<?xml version="1.0" standalone="no"?>
<!DOCTYPE svg PUBLIC "-//W3C//DTD SVG 1.1//EN" "http://www.w3.org/Graphics/SVG/1.1/DTD/svg11.dtd" >
<svg xmlns="http://www.w3.org/2000/svg">
<metadata></metadata>
<defs>
<font id="vtks_distressregular" horiz-adv-x="1139" >
<font-face units-per-em="2048" ascent="1638" descent="-410" />
<missing-glyph horiz-adv-x="569" />
<glyph horiz-adv-x="2048" />
<glyph horiz-adv-x="2048" />
<glyph unicode="&#xd;" horiz-adv-x="569" />
<glyph unicode=" "  horiz-adv-x="569" />
<glyph unicode="&#x09;" horiz-adv-x="569" />
<glyph unicode="&#xa0;" horiz-adv-x="569" />
<glyph unicode="!" horiz-adv-x="569" />
<glyph unicode="&#x22;" horiz-adv-x="727" />
<glyph unicode="#" />
<glyph unicode="$" />
<glyph unicode="%" horiz-adv-x="1821" />
<glyph unicode="&#x26;" horiz-adv-x="1366" />
<glyph unicode="'" horiz-adv-x="391" />
<glyph unicode="(" horiz-adv-x="682" />
<glyph unicode=")" horiz-adv-x="682" />
<glyph unicode="*" horiz-adv-x="797" />
<glyph unicode="+" horiz-adv-x="1196" />
<glyph unicode="," horiz-adv-x="569" />
<glyph unicode="-" horiz-adv-x="682" />
<glyph unicode="." horiz-adv-x="569" />
<glyph unicode="/" horiz-adv-x="569" />
<glyph unicode="0" horiz-adv-x="1008" d="M49 -112l12 8h4v-8l-8 -8zM49 704v164l8 12v8l4 128q7 0 24 132q6 0 28 96q30 83 80 168q44 72 88 72q26 26 44 60q94 48 152 48l4 4h80q0 -8 68 -12l20 -24l28 4q56 -18 136 -108q60 -78 100 -204q36 -137 36 -196l8 -16q0 -74 28 -184q0 -19 8 -28v-12l-24 -28v-88 l-8 -8l-16 4q-7 -72 -28 -72h-4q0 -7 32 -20h4q0 20 8 20l4 -4v-36l-4 -28q7 0 24 -28v-16q-8 -16 -20 -16v-4q24 -13 24 -60q78 -71 80 -92v-4q-23 -52 -40 -56h-8q-25 12 -40 68l-4 4l-32 -36l-4 20h-12v-24q12 0 12 -8v-8q0 -50 -88 -120q-26 -92 -176 -164l-20 -8h-4 l-4 4h-4q0 -8 -12 -8l-20 12h-8q0 -20 -12 -20l-4 4h-4l-8 -8h-80q-34 0 -104 16v4l-4 -4h-4q-162 70 -228 220q-68 156 -68 220q-16 43 -16 108l-8 8l-4 116v16zM81 656l8 -8h4l12 12l-20 4l-4 -4v-4zM85 -40l4 4h4l4 -4v-4l-4 -4h-4l-4 4v4zM109 1044h12v12h-12v-12z M133 384q9 -9 44 -12l4 -4v-4l-4 -16q15 -12 28 -12h8l12 12q-10 0 -32 36q-28 0 -44 12h-4zM157 576h4l8 8v4h-12v-12zM169 -68l8 8h4l8 -8l-16 -12l-4 4v8zM189 1000l12 -12h4l8 8l-12 12h-12v-8zM217 264l12 -12l8 12h-8v4zM265 588q4 -10 40 -36h24l8 8q0 8 -32 8 q-14 24 -40 24v-4zM277 372l20 -36l-8 -12l20 -20v-16l-8 -12v-32l12 -12l12 16l-8 20l16 56q-7 1 -24 32l12 28v24q-10 0 -20 16l-12 -4v-12l12 -16q0 -8 -24 -16v-4zM313 1464l12 -12h4l8 8q0 8 -12 8zM325 84l40 -48h8v24l8 12l-44 16zM325 996l12 -12h20v16h-32v-4z M341 -276h8l8 -8l-4 -4h-4l-8 8v4zM357 792h4v12h-4v-12zM369 712q0 -46 40 -80q11 -48 48 -48q72 -8 72 -24v-12l-20 -16h-32l-36 20l-12 -16l4 -44q-28 -83 -28 -108q22 -100 80 -100l20 -20h8q60 42 60 84q52 43 52 72q0 8 20 8l4 4v4q0 8 -12 8l-4 4v4l4 84v4l8 8l4 248 l-4 240q-8 0 -8 12l-4 92q-6 0 -20 76q-36 108 -100 108q-60 0 -100 -108q-32 -101 -32 -184v-8l-8 -12v-60l-4 -56q4 -23 40 -88v-4q-4 -12 -24 -12h-12l-4 -20v-60zM373 288h4l8 8v4h-12v-12zM381 408h4v12h-4v-12zM397 1344l8 -8h4l8 8v4h-20v-4zM457 96l12 -8l8 8l-16 8 l-4 -4v-4zM493 108l12 -8l8 12l-12 8zM513 1404h32q65 0 136 60v4h-32q-30 -34 -68 -44l-28 -4l-36 -4v-4l-4 -4v-4zM517 156h12v8h-4zM669 148h4l12 12v4h-4l-12 -4v-12zM693 524l8 -8h4v12h-12v-4zM693 608l8 -8h8l-4 40v32h-12v-64zM709 996h20q20 48 72 108q26 33 52 40 l-4 24h-20q-23 -23 -48 -32q-29 -69 -72 -84v-56zM721 796q0 -6 36 -24h36l36 24h48v12l-32 12q-18 -12 -80 -20l-4 -4q-14 12 -28 44h-4l-8 -12v-32zM733 444l8 -8h4l20 20l-20 20h-4v-4l4 -12l-12 -4v-12zM753 360h12v12h-12v-12zM801 1396h4v12h-4v-12zM817 984h8l16 16 l-8 8h-4q0 -12 -12 -12v-12zM861 472h4l8 8v72l-8 8l-4 -4v-84zM861 580h4q12 4 12 24v4l-4 88h-12v-116zM909 676h4v8h-4v-8zM921 912h12v12h-12v-12zM933 384h12v12h-12v-12z" />
<glyph unicode="1" horiz-adv-x="800" d="M32 1380q4 20 72 88q0 16 12 16v12l-12 16v56q11 28 48 28h16l16 -24v-16l-20 -36v-12h20l84 36l80 4l4 4l32 12v4l140 4h164l12 -12v-1544l-16 -16h-288l-16 16v820q0 49 -36 108v4l36 36v268l-8 8h-4l-48 -16v-12q0 -44 -68 -60q-64 3 -64 24v4l8 12q-8 0 -8 12h-16 q-19 -80 -48 -80l-4 -4q-18 0 -20 88v8q-8 8 -8 36l-36 92q-17 0 -24 16zM104 1388l24 -20q0 12 40 12l8 12v12l-4 20h-8q0 -22 -24 -32h-4l-16 12zM112 1416h4l8 8v28h-12v-36zM196 1300l4 -68h12l8 24v112h-12v-52zM256 1392h4l8 8h-12v-8zM412 396l12 -12h4l-4 20h-4z M424 240h4l16 32l16 16l-4 4q-15 0 -32 -24v-28zM460 240h4l8 8v4h-4l-8 -8v-4zM476 824l8 -8q52 30 84 72v8l-20 4q-72 -46 -72 -52v-24zM484 1452l12 -12h12q15 12 28 12q15 -28 36 -28l12 -8h12q10 0 12 32q-34 10 -36 20q18 8 20 16v4h-4l-64 -24h-16l-12 8q0 -8 -12 -8 v-12zM548 704h8v4h-8v-4zM560 140l8 -8h16l12 12v4l-8 8h-8l-20 -4v-12zM560 428l68 -24v12l-40 24h-16zM572 1124l56 -16l4 -4v8l-8 12v4l8 12v4l-20 16l-8 -8l4 -12q-36 -6 -36 -16zM580 1272l12 -12h4l8 8v4q-20 0 -20 20h-4v-20zM596 588l12 -12l8 8l-16 20l-4 -4v-12z M616 860h12v12h-12v-12zM628 192h4l8 8v4h-4l-8 -8v-4zM628 488h12l-8 8h-4v-8zM860 1332v4l4 4h4l4 -4v-4l-4 -4h-4z" />
<glyph unicode="2" horiz-adv-x="1034" d="M-111 1312v4l4 4h4l4 -4v-4l-4 -4h-4zM-43 1348v4l4 4h4l4 -4v-4l-4 -4h-4zM5 1292l8 8h4l8 -8l-8 -8h-4zM41 1516q78 65 204 88l4 4h8l12 -12v-4l-8 -12v-92h12q12 24 12 72v16l12 36h32l4 -4h4l-8 -84l4 -20l-4 -36q0 -84 12 -84l12 12v88l4 4l-4 4v116l12 12h48 q16 -5 16 -36v-24q39 -42 92 -80v-4l-8 -12l8 -12l-8 -12v-36q8 -10 12 -40l-4 -16h4l12 8h20l28 -24l8 12q-12 0 -12 28l-8 8l8 12v4l-8 12v8l8 12v4h-12l-12 -4v4q0 31 24 44h20l68 4l12 -12q0 12 40 12l8 12l-40 20h-8l-12 -8h-48q-20 9 -40 48h-32q-46 0 -56 -16l-44 16 q0 28 -8 36v20l12 12h44l12 -8h32q57 0 212 -64q36 -29 36 -44l4 4h8l32 -32v-44h4q8 0 8 20l4 4h4q36 -46 64 -124v-16q0 -74 24 -88v-152l-8 -12v-4q-13 -140 -44 -140l-8 12l12 20l-8 8v40q11 14 16 56q20 0 20 8v68h-12v-12q0 -21 -12 -24l-4 4v52h12v20q0 41 12 56 q-8 0 -8 12h-16q-24 -52 -24 -140v-180q0 -8 12 -8v-8h-12q0 -21 12 -36v-20q-26 -53 -44 -72q0 -15 -24 -52q-14 -40 -48 -40q0 -12 -12 -12l12 -20q-50 -86 -248 -312l-4 -4q0 -12 -8 -12h-12l-8 8v100l-8 12v48l-8 8l-4 -4v-48l-12 -16v-32h-12v-12l-12 -32 q0 -78 -12 -92v-40l-8 -8l-8 36l4 104l20 32v20l-8 12v48l-4 40l4 40q-20 64 -28 64l-8 -24l-8 -32h-4l-12 44v16l32 68v36q-36 58 -36 92q0 22 40 52h20q12 -5 24 -36v-28l-8 -12l8 -8q18 0 56 64l4 -12h4l8 8l-8 12q14 47 44 76l48 64l36 88v100q-30 89 -44 96 q-54 60 -116 60q-12 0 -32 20h-8q0 -15 -92 -24q-24 -10 -40 -32h-16l-12 12v56l-8 12v16l8 12v12l-20 -4l-4 4v56l-8 12v60h-12q-4 -76 -12 -76v-164l8 -12v-12l-16 -16q-15 0 -28 76q-31 11 -36 24q0 8 24 16v4q-12 84 -36 84q-88 32 -88 44zM105 64v12h4l32 -4l8 12v4 l-8 12v44l8 12v48q0 52 28 52l8 12l-8 12l-24 -12l-4 4v16q29 44 40 48l8 -8v-28h12v36q0 10 16 12l-8 8l-4 -4l-4 4v12q96 117 96 128h12v-44l-8 -12v-128l8 -8h4v72l16 32h4l4 -4v-4l-4 -40l4 -36l-4 -68l-8 -8v-16l8 -12v-4l-8 -12v-12q8 -8 12 -56l-20 -96l-16 -24h-48 q-12 0 -16 56h-8q-4 -48 -12 -48l-8 20l-4 -4h-4l-8 8q12 17 12 64l-4 4h-4q-26 -25 -36 -92l-12 -8h-40l-4 4h-4l4 28v4zM105 124v108l12 12h4l8 -8q0 -28 -12 -44v-64l-8 -8zM237 300h8l12 12l-8 8q0 -8 -12 -8v-12zM257 240h12v24h-12v-24zM273 332h4l8 8v4h-4l-8 -8v-4z M365 296v4q3 24 12 24l4 -4v-24l-8 -8zM365 372q12 0 12 28h12v-20l-16 -32zM365 484v24l8 8l4 -4v-24l-8 -8zM389 24l4 40v24l8 8l4 -4v-64l-8 -8l-4 4h-4zM401 128v8l8 8l4 -4v-8l-8 -8zM401 1432h4l8 8h-12v-8zM429 432h12v12l-8 8l-4 -4v-16zM441 188v8l8 8l4 -4v-8 l-8 -8zM441 644h4l8 8l-4 4h-4l-4 -4v-8zM485 8l4 84v4l8 8l4 160v28l8 8h24q12 0 12 -36l12 -8l16 16v4l-8 12v4l8 8h120l12 -12l-4 -24l4 -56v-48l-12 -16q12 -15 12 -36v-80l-12 -12h-132l-4 4h-4q0 -8 -28 -8l-8 -8h-4l-4 4h-4l-8 -8h-4zM501 552l20 4l12 -28v-40l8 -8 h8v12l-4 40l12 8q28 -8 28 -24l8 -8h4v32q0 13 -44 20l-8 12v4q0 12 24 12v4l-20 32v4l20 24l-20 24v8l8 12v4l-8 8q-40 -24 -40 -72l4 -32l-12 -28v-24zM557 840h12v16l-8 8h-4v-24zM569 712h4l8 8v4l-8 8h-4v-20zM581 596l8 -8h8v12l-8 8zM581 648h8l8 8v4l-8 8l-8 -12v-8 zM593 1284h12v28h-12v-28zM597 1380h12v16h-12v-16zM621 1260l8 -8h4v20h-12v-12zM621 1392l8 -8h4v24h-12v-16zM665 160l8 -8l4 4h4l-4 12h-4zM677 628h4l8 8v4h-12v-12zM729 228v60l8 8h4l8 -8v-4l-8 -12v-8l8 -12v-24l-8 -8h-4zM749 32q0 75 24 100l-12 16l12 32v52h12 l4 -92l-4 -20l4 -24l-20 -72l-12 -8zM813 196v12h12v-8l-8 -8zM833 32l4 260l12 8h24q11 0 16 -40l4 -4v-20q-10 -13 -12 -36l12 -32v-4q-12 -15 -12 -56v-76l-16 -16h-20q-10 0 -12 16zM833 864h12v16l-8 8h-4v-24zM897 36v16h12l4 -28h-4zM905 84l4 140q8 0 8 20h12v-20 l-8 -12v-28l-4 -108l-4 -4h-4zM953 136v24h12v-20l-8 -8z" />
<glyph unicode="3" horiz-adv-x="978" d="M66 1480q56 56 188 108q65 36 176 36q67 0 136 -24q128 -31 128 -60q40 0 64 -36q21 0 80 -96q20 -36 36 -120l4 -4v-60q0 -8 -20 -8l-4 -4v-4q0 -8 20 -8l4 -4v-24l-16 -64q-13 -48 -68 -132q-31 -71 -48 -88q0 -11 -20 -28l-4 -16q196 -129 196 -352v-24 q0 -205 -160 -348l-80 -56h-4l-12 8h-32v-12q12 0 12 -8q-24 -16 -36 -16h-8l-8 8l12 12v4l-12 12h-4l-8 -8v-8l4 -28l-32 -12h-4l-4 4h-4q0 -8 -40 -8q0 -8 -12 -8q-66 0 -80 -12h-4l-4 4h-4q0 -7 -36 -12l-48 -12l-4 -4h-24q-10 1 -36 48q-42 0 -56 16l-4 -4h-4l-28 16 l-4 -4h-4q-56 26 -56 32v28l28 148q8 68 20 68h4q91 -52 180 -52h4l12 -8h52l68 16q41 9 104 76q28 39 36 84l4 4v92l-16 48q-91 64 -104 64h-8q-38 0 -72 -60l-4 -4h-32l-24 24v16q18 36 48 36v8l-4 20l72 16v4q-10 16 -88 28l-4 4h-36l-36 -36q0 -8 16 -8l4 -4v-4l-32 -8 l-52 60q0 54 28 104v44q8 6 16 80l4 4h40v8l-40 44l4 4h8l52 -48q134 0 204 116l16 64l4 4v20q-8 6 -12 64q-23 43 -80 92v16h-4q-8 0 -8 -12l-4 -4h-44q0 16 -8 16h-16v-4l12 -16l-40 -8l-20 24h-24v-12q24 0 24 -12t-52 -12l-4 4v4l4 4v4l-12 8h-4l-48 -24l-24 4 q-8 0 -8 -20l-4 -4h-4l-24 108l-64 36v4l12 16q0 12 -36 16zM134 1444l24 -4l4 4v32h-12q0 -10 -16 -20v-12zM174 1524h16l16 16l-12 8h-8q0 -12 -12 -12v-12zM218 40l12 -12h4l-4 20h-4zM246 1404h8l12 8h4q12 0 12 -16l80 16q10 44 28 44v20q-13 60 -36 60h-8l-20 -16v-16 q16 0 24 -24v-4q-9 -17 -32 -24q0 -12 -8 -12l-4 4h-4q-12 0 -56 -28v-12zM278 1460l8 -8h4v16h-4zM318 924h4l28 12h12q12 0 12 -24l12 12l-16 28l-52 -16v-12zM458 1396h4l12 8l-4 12h-8zM474 180l8 -8h40v60q12 15 12 28l-8 8q-16 0 -24 -72q-12 -12 -28 -12v-4zM530 796 l24 -28l-8 -12v-48l12 -12h8l4 24l-4 40l4 12q-8 0 -24 32l-4 4h-4l-8 -8v-4zM606 1116l12 -8l16 24h4q21 0 36 -12h16l12 12l-16 12l-20 -4l-24 12h-24q-2 -23 -12 -36zM610 448l4 -4h4v12zM618 328l8 8v4h-8v-12zM626 588l12 -8l12 12v8l-12 12zM638 496l12 12l-4 4h-4 l-4 -4v-12zM638 1420q0 -22 24 -36q8 0 24 32l-4 12l8 8v8q-40 0 -52 -20v-4zM662 780h16v4l-4 20h-8l-4 -20v-4zM662 908l8 -8h4q22 0 36 24v4h-4q-35 0 -44 -20zM710 1276h4q48 56 76 56q12 0 12 8q-8 25 -20 28q-71 -43 -72 -52v-40zM714 1512l12 -12h4l8 8v4l-12 12z M806 444h16v12h-16v-12zM810 1056l8 -8h4v4l-8 8h-4v-4z" />
<glyph unicode="4" horiz-adv-x="1080" d="M29 380v12l16 68q8 0 8 60v84q24 27 24 52l-16 20l8 8h32q73 153 180 344q-4 53 -12 60v20q24 25 24 64v24q21 44 52 44l16 12l4 4v20l-24 32v4q0 7 44 32q98 58 124 116q44 105 64 112h288l8 -8v-128l8 -12l-8 -12v-24l8 -12v-4l-8 -12v-148l32 -40v-4l-24 -28v-8 l12 -16v-24q0 -21 12 -36v-4q0 -8 -24 -16l-8 -12v-380l12 -12h40l32 4l32 -4h28l12 -12v-228l-12 -12h-132l-12 -12v-188l40 -120q0 -24 -28 -24l-24 -36h-256l-12 12v268l4 24l-4 24l12 20l-20 32h-128l-12 -8h-4l-12 8q-28 -36 -96 -36q-52 -28 -52 -68q-24 -40 -44 -48 h-4q-8 8 -36 8l-12 16v16q0 26 48 52q0 16 -48 16h-72q-71 22 -80 44zM73 448l24 -16v-12h20l16 8q-5 17 -52 32zM89 1132v4l4 4h4l4 -4v-4l-4 -4h-4zM97 1072l8 8l8 -8l-8 -8zM169 556l8 -8l8 8l-8 8zM173 728h24l48 -20l12 12v8q-34 0 -64 40q-6 0 -20 -28v-12zM329 1016 h12v12zM341 1136l12 -8h12l8 8v4l-8 8h-12zM349 444h64q8 0 16 24h4q12 0 12 -24h8q14 4 44 92l32 48v4l-12 12q-8 0 -8 -16q-13 -5 -24 -40q-17 -16 -36 -20q0 -40 -64 -40q-27 -28 -36 -28v-12zM365 980h36l24 -24h8l12 12v56q0 45 56 60l4 4v4l-12 8l-8 -8h-4q-8 8 -36 8 l-32 24h-12v-8q3 -10 40 -44v-4q-16 -12 -20 -56q-30 -20 -56 -20v-12zM385 632h192l12 12v124l4 36l-4 40v136l-36 24h-4q-13 -16 -20 -88q0 -13 -36 -88q-9 -49 -40 -88q-68 -84 -68 -100v-8zM385 844l8 -8h4l8 8l-8 8h-4zM553 1296l12 -12q46 22 64 84q0 35 48 60v24h-8 q-56 -32 -56 -60l-36 -24l12 -16v-24l-8 -8l-12 8l-16 -28v-4zM577 1088h12l12 12v16l-8 8h-4zM589 1548q12 0 20 -12q18 0 32 -12h24l24 12v4l-4 4v4l-20 -4l-52 16h-24v-12zM605 1132l8 -8h4v16h-4zM637 336h16l8 8v4h-24v-12zM637 684l12 -12l12 12l-12 8h-4zM649 468h4 l24 20l-12 12l-16 -20v-12zM661 228h4l8 8v4h-12v-12zM665 1396l8 -8l8 8v4h-16v-4zM697 1128h28l60 -4l8 12v4h-24l-8 8l-4 -4l-20 4h-8l-12 -8h-20v-12zM701 216l12 -12l24 24v8h-20l-16 -16v-4zM745 316q0 -8 32 -12l12 -44h-16v-8l12 -12h4l12 8h8l12 -12v-4 q0 -34 -12 -48v-32l8 -24h4l12 12v108q-40 49 -40 76v4l12 16v4l-16 16q-22 -44 -44 -44v-4zM793 516h28q14 12 48 12h28l16 -24h4q10 40 32 40v32l-12 12h-44q0 -52 -88 -52h-12v-20zM913 452h4l8 8v8h-4l-8 -8v-8zM917 408l16 -4l12 24l-12 8l-16 -24v-4z" />
<glyph unicode="5" horiz-adv-x="992" d="M32 72v4q64 42 64 48v8l-28 24q48 25 48 68q13 88 28 88l68 -28l8 16q28 -5 64 -28h4l12 8l32 -20h44q7 9 72 12l92 56q65 87 68 144l4 4v104l-16 56q-31 82 -100 120q-82 48 -144 48l-4 4l-12 -12l-32 20l-4 -4l4 -4v-4l-8 -8h-4l-16 12h-20l-12 -8h-4l-12 8h-56l-8 8 v24l4 24l-16 24v8q0 10 16 12v4q-20 21 -20 36l20 4l-24 28v4q0 8 32 12l12 16l8 148l8 8l4 100l8 8l4 100q8 0 8 12l4 88l8 8v40l24 16v4l-20 20v16l12 12h316q13 0 28 -12q4 12 24 12h68q7 8 100 24q0 6 44 20h4q22 -7 36 -40q-32 -13 -32 -20v-4l8 -8h24q8 0 16 24h4 l4 -4v-256l-12 -12h-392q-16 0 -20 -56l-4 -4l-4 -104v-8l-8 -12v-4l28 -44q31 0 104 76l20 8h28q37 -12 72 -40v-16q0 -26 -88 -28v-8q4 -17 112 -56q58 -40 64 -64q13 -3 36 -72q15 0 40 -88q24 -33 40 -132q0 -28 8 -36v-140l-16 -80q-35 -139 -112 -224 q-68 -84 -132 -108q-62 -44 -168 -60l-16 -8l-92 -4l-128 4q0 12 -72 12q0 5 -124 36q0 6 -32 16zM164 272h8v8h-8v-8zM252 196l16 -12h4l4 16l-4 12l4 24l-12 8q-10 -11 -12 -48zM264 112q0 -18 40 -52v-4l-4 -28l12 -8q13 17 16 72q-20 0 -56 20h-8zM264 1472h12v12h-12 v-12zM336 1360l12 -12l12 4v4l-8 8h-16v-4zM356 224h8v8h-8v-8zM360 988l24 -8h20q52 0 52 -24h12l24 20h8q8 0 8 -20l4 -4h12l24 28h4v4q0 20 -80 20q-13 0 -28 -12h-36l-12 8h-36v-12zM396 112l8 -8h8v12l-8 8zM432 128l12 -12h4l8 8l-12 12h-12v-8zM440 1412h64l48 16 q0 8 24 8q6 19 76 44v12l-16 4q-52 0 -52 -32q-39 -28 -120 -36l-20 -4l-4 -4v-8zM456 160h16v16l-12 12h-4v-28zM456 1064l24 -24l4 20v8l-8 8h-20v-12zM512 900l8 -8l8 8l-8 8zM600 172l12 -8h12l12 12l-12 8h-12zM628 640l16 -20l4 4v64h-12l-8 -20v-28zM628 772l8 -8 q9 0 16 28h8q12 0 12 -16h16q42 20 88 28l4 4v8l-8 8l-88 -20q-21 21 -24 40h-12q-12 0 -12 -44v-16zM636 536h12v8h-12v-8zM676 460l12 -8q0 8 12 8v20l-12 12zM696 380l8 8h-8v-8zM724 640l8 -8v8h-8zM744 1412l12 12l-4 4h-4l-4 -4v-12zM800 -68h12l8 -8l-8 -8h-4l-8 8v8 zM848 12l8 8h4l8 -8v-4l-8 -8zM864 632l20 -4l8 8l-8 8h-12l-8 -8v-4zM868 -116l8 8l4 -4v-8l-8 -8l-4 4v8zM1116 160l4 4h4l8 -8l-4 -4h-4z" />
<glyph unicode="6" horiz-adv-x="1056" d="M59 576v84l4 160q7 0 20 108q49 194 108 284l4 4h4l16 -36v-4l-8 -12v-48l8 -20h4l8 8v48l4 128l68 84h4q0 -16 8 -16h4l-4 28l20 20l20 -16h8v24q0 34 32 44l60 44l16 -24l-8 -12v-16h4q11 13 80 28l8 -8v-4l-8 -12q0 -21 68 -32l4 -4h72q23 6 48 48q44 0 48 32l-4 12 h-4l-76 -40l-4 -4h-4l-56 20v4l-20 -4h-20l-8 8q0 7 40 20l8 20l-12 12q-12 -24 -60 -24q-6 -15 -76 -36l-8 -8l-8 12v20q0 9 128 64q57 11 172 72l16 4l8 -8h4l16 12l12 -12v-12l-8 -12l8 -8h4l12 8l12 -12v-236q0 -16 -88 -16l-8 -8h-28l-8 8v40h-12v-48q-1 -9 -84 -36 l-20 -16l-4 4h-4q-119 -103 -136 -148l-24 -56l4 -4l64 24h72q6 -8 44 -8l4 -4q23 0 32 -20v-144h4l8 8v16q0 55 12 68v24l-8 12l4 4l20 -4l16 4q138 -68 184 -172q10 -2 36 -68q28 -69 28 -88l-4 -104h4q8 0 8 12h12v-160l-8 -12v-32q0 -18 -24 -36v-4q12 0 12 -12 q-16 -72 -28 -72v-32q-47 -111 -144 -196l-16 -12l-8 8v32l4 16l-12 24v8l8 12v20l-8 12v48h-4l-8 -8v-104l8 -12v-4q-12 -14 -12 -48v-8h-12q0 19 -8 28v12l8 12l4 104l-4 56q12 48 20 48q64 -18 64 -36v-4l-12 -24l4 -12h4q8 0 8 20l4 4h40l4 28v8l-16 -12h-8 q-46 44 -92 52l-4 4v112l8 8l4 108v88q-6 0 -24 -44q-16 -8 -16 -20l4 -40q-3 -29 -12 -40v-176q0 -17 -40 -52v-56l-8 -12v-16l8 -12v-24l-12 -32l12 -20v-16l-8 -12v-72l-16 -16h-24l-8 8v92l12 48l-4 24v52l-12 12l4 20v12l-4 4v4q52 40 52 172v8l8 12v28l-4 16 q5 46 16 56v144l4 76l-12 28v12l12 44q-6 40 -20 40l-16 -24v-8l20 -36q-9 -7 -12 -72l4 -64l-4 -72l-4 -4q-16 0 -56 28h-8q-13 -12 -72 -12l-4 4v4q0 13 80 24l4 4v12l-8 12v16l12 24q-5 36 -24 36q-15 0 -80 -36q-112 -52 -112 -68l-4 -52v-24l-12 -16l4 -28v-56l8 -16 q0 -109 56 -208l52 -24l16 -32l-4 -40v-184l-8 -8h-4l-4 4l-4 -4h-28l-40 12v4l-4 -4h-4l-28 16l-4 -4h-4q-83 40 -104 68v60l8 12v92l-8 12v20q-12 0 -12 8v48q1 8 80 40q12 0 12 8q0 24 -68 28v-4l24 -16v-4q-6 -16 -28 -16h-8q-20 12 -20 32h-4q-12 -28 -24 -28v-44 l-12 -20q0 -104 -20 -104l-4 4v76l16 48l4 4v40l-8 12v40l8 12v12l-8 12v32l-12 44h-12q0 -27 -20 -48l-4 4v124q12 15 12 28l-8 8h-4l-12 -12v-32l-4 -16l4 -16v-24l-24 -28l-4 -160l-12 -8q-9 0 -24 96q0 24 -8 32v4q0 11 20 12v4q-24 10 -24 52zM111 312v28l16 32h4l4 -4 l-4 -36l4 -40l-4 -4h-4zM135 1056q48 0 48 16v8h-24l-24 -20v-4zM143 456l4 4h4l8 -8v-8l-8 -8zM151 264l4 28h12v-16l-12 -12h-4zM151 336l4 4h4l8 -8v-12h-12zM163 348v8h4v-8h-4zM179 1156h4l8 8v12h-12v-20zM215 720h12l-8 8l-4 -4v-4zM223 180v12l8 -8l-4 -4h-4z M239 1072h16v20h-4l-12 -12v-8zM279 840l8 -8h4v12h-12v-4zM279 864l8 -8h4v24h-12v-16zM279 1012l8 -16h12l4 60v100l-4 20h-12v-112l4 -24l-12 -20v-8zM291 168l16 -8h4q22 0 48 72q0 10 16 28v16h-12q-6 0 -24 -36q-28 -3 -28 -16l12 -20v-4zM315 844l24 -40h32 q25 0 72 40q13 0 16 24q36 0 36 28q11 0 32 32v8h-48q-30 -39 -88 -64q-8 -30 -28 -40h-4l-8 8v24h-4l-32 -16v-4zM335 1012h4l8 8v12h-12v-20zM335 1152h12l4 40v60h-12l-4 -40v-60zM351 720l8 -8h4v12h-12v-4zM367 1168h8v8h-8v-8zM375 1284h12v28h-12v-28zM383 1380h12 v16h-12v-16zM387 1176h12v24h-4l-8 -8v-16zM407 1252h4l8 8v12h-12v-20zM407 1392h12v16h-12v-16zM423 256l4 -4h16v12h-12zM467 204l8 -8l4 4v4l-8 8l-4 -4v-4zM479 136h12v8h-12v-8zM527 184v84h12v-80l-8 -8zM527 1280l16 -16l12 16q-12 7 -12 52q-16 0 -16 -48v-4z M543 12v28l20 44v8l-8 12v8l16 32l4 -4v-48l4 -36q-12 -13 -12 -52l-4 -4h-8zM563 1276l12 12l-4 4h-4l-4 -4v-12zM579 876l8 -8h4l12 12v12l-8 8h-4l-12 -20v-4zM603 816l12 -8l8 8l-12 12zM615 864h12v24h-4l-8 -8v-16zM635 552l4 4h8l12 -12v-4l-8 -8zM647 1424v4h8v-4 h-8zM675 336h12v80l4 4v4h-4l-12 -12v-76zM683 32v88q3 24 12 24l4 -4l-4 -40v-68h-12zM683 444l12 12v72l4 20h-4q-12 -2 -12 -32v-72zM711 684l12 -12h4l8 8q-12 12 -12 28h-4l-8 -8v-16zM747 972h8v12h-8v-12zM763 764l8 -8l12 16l-8 8h-4zM763 1408h8v8h-8v-8zM779 480 l4 -12h20l32 -24l20 4v12q0 8 -68 24l-4 4l-4 -4v-4zM779 612h12v16h-4l-8 -8v-8zM791 1564h4l8 8v4h-12v-12zM811 968l8 -8h12v4l-12 12zM879 492h12v84h-4l-8 -8v-76zM879 604l12 -12l8 20v48q-8 9 -8 28h-12v-84zM899 760l12 -12h12l12 12v20q-12 0 -12 12h-8 q0 -10 -16 -28v-4zM899 840h16v8l-8 8l-8 -8v-8zM923 564l12 4v8h-12v-12zM1151 568v4l4 4h4l4 -4v-4l-4 -4h-4zM1251 792v8h8zM1259 512v8h12v-4l-8 -8z" />
<glyph unicode="7" horiz-adv-x="926" d="M41 1472v12l8 12v92l8 8h220l32 -4l32 4h104q10 8 56 16l64 28h4q24 -7 24 -28q2 -16 12 -16h284l12 -12v-204l-116 -324v-4l12 -16v-4q0 -64 -12 -76v-24q0 -10 64 -84l8 -24q0 -27 -36 -56h-8q-40 26 -40 72h-8q-21 -16 -52 -112l-64 -80l-48 -92l-144 -400 q-39 -122 -56 -132h-36l-44 -72h-4q-28 28 -28 80l4 20l-4 44v40l4 32l-4 44v132l-8 8l-4 -4v-136l-8 -12l-4 -116l-4 -4h-4l-4 4v52l-8 12v16q12 10 12 108v28l-4 56q16 26 16 124v12q72 193 72 252l28 68q46 43 84 160l124 332v12h-332l-12 12v64h-12v-56l-20 -20h-144 l-8 8v136zM125 44v52q12 14 12 48v4l-12 16q7 7 12 48l-4 32v12l8 8h36l8 -8v-12q0 -8 -16 -8v-16q0 -12 16 -36l-4 -56v-8l-8 -12v-72l-12 -12h-16zM125 1448l8 -8h4v36h-12v-28zM193 36v24l8 8l8 -36l-4 -4h-4zM197 84v72l8 12v44l4 40h12l-4 -88v-24l-8 -12v-40l-8 -8z M209 276v4l4 4h4l4 -4v-4l-4 -4h-4zM217 316v8l8 8l4 -4v-8l-8 -8zM245 -4v28l16 20l8 -52l-12 -16zM253 52v8l8 8l4 -4v-12h-12zM269 1424l8 -8h4v8h-12zM301 1572h4l8 8v4h-12v-12zM361 516l4 4h4q20 0 20 -116q8 0 8 -12l4 -4h4l16 4v8l-20 48v44l12 12q23 -2 36 -12h44 v8l-84 24l-12 16v4l8 8l24 -4h4v12q-17 0 -24 16v20l12 16v8q-12 0 -12 12h-8q-12 0 -12 -24l-4 -4q0 -7 -20 -12v-8zM365 1532l48 -40v-36l-4 -24q0 -36 20 -56h32q0 19 8 28v12q-32 0 -32 16q8 0 16 40l20 12h4l60 4l20 -4l16 4l12 -4l48 4l36 -4l12 4q28 -3 28 -24h28 q24 10 24 20q-28 33 -28 48h-68l-40 4l-16 -16l-28 4q0 -16 -56 -16h-4q-16 0 -44 28l-20 8h-32l-12 -8h-48v-4zM389 -132h12v-4l-8 -8l-4 4v8zM401 668l12 -12h4l8 8v8h-4zM505 636h4l8 8l-8 8l-4 -4v-12zM565 604l8 -8h4v12h-12v-4zM581 680l12 -12l8 12l-8 8q0 -8 -12 -8 zM717 1480v8h12v-8h-12zM721 1428l12 -12l4 12h-16zM761 1076l12 -12l8 12h-20z" />
<glyph unicode="8" horiz-adv-x="1088" d="M46 1428v24q16 28 48 60h12l24 -24v-68h4q30 24 68 80q35 39 128 56q30 20 80 20q41 24 112 24h4l12 8h76q8 0 8 -12l32 4q35 0 56 -24l8 8h12q99 -38 172 -116q44 -62 64 -120l16 -52l4 -80l-4 -68q-9 0 -12 -48q-9 0 -12 -44l-96 -128l-20 -60q72 -49 72 -88 q0 -33 32 -56l40 -84q20 -41 28 -96l4 -4q0 -9 -20 -12q24 -20 24 -56l-16 -4v-8q16 0 16 -8l-4 -76v-4q-12 -17 -12 -56q-6 0 -20 -52q-51 -101 -84 -120q-28 -43 -72 -64q-32 -23 -96 -52l-4 4h-4q0 -8 -28 -8l-8 -8h-4l-4 4h-4q0 -8 -32 -8l-8 -8l-104 -4l-4 4v24l8 12 v44h-8v4q-13 -4 -16 -16h-8v-12q0 -47 -24 -56h-20q-9 9 -60 12l-96 36l-56 40q-156 125 -156 320v32q0 78 40 196q17 100 36 116h24l12 -8q60 50 60 72l8 12v8q-37 38 -44 56v36l-36 52q0 11 20 12v12h-12l-12 -8q-32 31 -48 128v20l-8 12v24q0 15 -24 56l-4 72v32 q-10 0 -20 24q-40 33 -40 60zM178 388h4v12h-4v-12zM202 1280l24 -16v8h4l-4 4v4l8 8h20q64 0 64 -48q28 0 44 -12l8 12v8l-52 40l-16 32v12q17 19 32 64l16 16v20q0 24 -24 24h-20l-8 -8l4 -24q-1 -13 -36 -28l4 -4v-4l-8 -8l-24 4l-20 -40l12 -8h40l8 -8q-9 -20 -40 -20 h-4l-16 24h-4q-12 -15 -12 -36v-16zM226 356l16 -16l8 12v8l-16 8zM266 972l8 -8h12l12 8h8l4 -4l20 -32l8 8l-4 56v4l-8 12v44l-4 20h-12l4 -40q0 -60 -36 -60l-12 -4v-4zM290 336h8v12h-8v-12zM298 380l20 -20l8 8v12l-16 16h-12v-16zM374 1296h12v12h-4l-8 -8v-4z M386 156l12 -8h20l12 8l16 -12l8 12v60l-12 12q-8 -8 -8 -36q-8 -24 -32 -24q-16 -2 -16 -12zM386 852h12v8h-4zM386 1404l12 -12l12 16v8h-12zM394 1340l8 -8l8 8v4h-16v-4zM398 412l20 -84q56 -112 124 -112h32q92 0 132 148l4 44l-28 28v4q0 8 32 12l4 4v8q-8 7 -12 56 l-40 12l-8 8h-40l-48 -20h-8l-8 8q4 17 80 32l4 4v4l-12 28q10 0 12 32q0 36 -40 60q-5 24 -64 24l-8 8h-8q-79 -56 -112 -188q0 -19 -8 -28v-20l8 -12v-4l-8 -12v-44zM422 1452l8 -8v12h-8v-4zM434 1080l8 -20h16v28l-8 8zM434 1168q0 -28 80 -28l68 16v-4q-7 -13 -72 -28 l-4 -4v-12l8 -12v-4q-12 -14 -12 -48v-8q28 -34 52 -48h8l76 124l56 40v36l-8 12l8 12v36q-10 13 -12 36q-21 0 -32 36l-4 4h-4l-88 -4q0 -9 -40 -12q-14 -32 -60 -32q-12 0 -12 -8v-24l24 -28q-30 -15 -32 -24v-24zM454 832l28 -32v-16l-4 -40h16q12 29 12 60 q-24 39 -44 52l-8 -8v-16zM482 1412h8v8h-8v-8zM566 1420q5 -16 36 -16h4l28 48h-8v4q-34 0 -60 -36zM586 788q3 -12 28 -20l8 12v8l-8 16h-12zM626 1548l12 -12v12h-12zM638 72q0 -10 44 -16l4 -4h36q67 22 80 48v12h-16q-22 -30 -40 -36l-4 4h-4l-8 -8h-16l-12 8l-4 -4v-4 l-56 8l-4 -4v-4zM638 852h12v8l-8 8h-4v-16zM646 932l8 -8h16q12 0 48 24h40q57 0 96 64l12 12l-8 8h-4q-69 -68 -80 -68h-12l-12 8h-12q-15 -12 -28 -12l-20 4l-44 -20v-12zM658 1504h4l20 20v12l-20 4l-4 -4v-32zM730 436h24l12 12v8h-36v-20zM730 1360h12q15 12 28 12h32 l48 -4q2 11 40 32l-8 8l-20 -4l-16 28h-24v4l20 20v8h-24q-10 -35 -80 -72l-8 -12v-20zM742 1056l12 -8h4l8 8l-12 12h-8zM746 760l12 -12h12l12 12v4l-8 8l-28 -4v-8zM754 136l8 -8l8 8v4h-16v-4zM782 1200l8 -8l24 20l-20 4l-12 -12v-4zM818 1164l12 -8l8 12l-12 8z M890 524h8v8h-8v-8zM902 1128l8 -8h16v4l-8 8h-16v-4zM934 488l20 -20l8 8q-4 18 -20 24zM958 1792v4l8 8l4 -4v-4l-8 -8zM1054 1532l8 8h4l8 -8l-8 -8h-4zM1130 1484l4 4h12v-4l-8 -8zM1186 1532v4l4 4h4l4 -4v-4l-4 -4h-4z" />
<glyph unicode="9" horiz-adv-x="1064" d="M-190 1160l8 8l8 -12l-8 -8zM-186 872v4l4 4h4l4 -4v-4l-4 -4h-4zM-114 1172v4l4 4h4l4 -4v-4l-4 -4h-4zM-86 1096v4l8 8h4l8 -8v-4l-8 -8h-4zM90 1012v96l8 12v8q0 140 112 312q76 88 128 112h12l12 -8h4l8 8v4q-12 0 -12 8q69 40 148 40l8 8h76q0 -8 76 -12 q0 -7 52 -20l88 -52l-4 -140v-28l-8 -12v-8q7 -6 12 -52q12 0 12 -8q-6 -88 -24 -88l-8 -24l-4 -4v-52l-4 -108l-8 -8v-44l8 -12q-8 -8 -8 -32l-12 -4v-12l8 -12v-24q0 -48 16 -48l8 16v88l8 8l4 -4v-56h4q12 0 12 44v84q12 12 12 76v20l8 12v24q-12 15 -12 28q0 70 12 84 v32q0 23 16 40v44l-4 56l4 20q-24 0 -24 8v56l8 8q19 -33 40 -52q56 -73 96 -224q14 -104 20 -104l4 -128v-52l-4 -24l4 -12l-4 -108q-6 0 -16 -80l-24 -104h-4l-4 4l4 40v60l8 12v24l-8 8q-16 -10 -16 -56v-60q-24 -28 -24 -44v-56l-8 -12v-28q0 -61 -36 -120 q-24 -46 -40 -60l-4 4h-8l4 -20v-4l-68 -84q-28 -34 -60 -56q-22 -24 -36 -24l-4 4v12l8 12v8h-12l-8 -16v-36q-36 -27 -68 -36l-4 4v4l8 8v52q-12 0 -20 16v4l8 12v36h-12v-28l-8 -12v-108l-24 -16l-4 4h-4q0 -8 -16 -8q-1 -12 -108 -36q-28 -22 -100 -48h-16q-15 9 -28 36 q-36 0 -36 12v180q0 11 20 12v12q-20 0 -20 12v24l12 12h4l108 4q0 8 32 8q114 38 164 88q28 32 52 32v24q37 43 60 116l-4 4h-76l-12 -8h-24q-16 0 -16 36l-4 4h-4q-5 -40 -16 -40h-40q-111 35 -200 124q-95 92 -132 228q-16 56 -16 104v8zM134 1188l16 -16h36v4 q0 16 -52 20v-8zM138 988l12 -12h12v20q0 8 -12 8l-12 -4v-12zM198 724l12 -12h12v16l-16 8zM266 1036h4v12h-4v-12zM266 1156l12 -8h4l12 12v8h-24zM278 708l8 -8l8 8l-8 8zM282 220l8 -8h4v8l-8 8l-4 -4v-4zM290 964h28q36 -24 36 -36q0 -41 16 -48h16v12l-20 36l8 12 l-20 32v28q8 8 12 48l-40 36l-8 -12l36 -40q0 -8 -12 -8v-12q-5 -36 -36 -36h-16v-12zM314 864l8 -8h8v16h-16v-8zM354 208q13 -32 20 -32h4l8 20q-8 0 -8 28l-8 28l-4 4h-4l-8 -12v-36zM402 1040q10 -36 36 -36l24 -24h56l12 8h28l8 -8q-11 -11 -52 -24h-12l-12 8h-4 l-12 -12v-12l8 -12q-12 -18 -12 -36q18 -60 32 -60h4q33 0 100 36h4q20 -13 20 -40h8v28q0 30 48 44v232l-8 12q0 96 -52 188q0 7 -20 8h-16q-156 -16 -156 -52q-20 -39 -28 -116l-4 -4v-20l36 -44v-4q0 -11 -36 -16v-44zM434 704l8 -8h4v4l-8 8h-4v-4zM494 632l4 -20v-8h8 q13 0 16 60l-12 24v24h-12v-56zM498 1408l8 -8h4v12h-12v-4zM506 1496h4l8 8v40h-12v-48zM510 316h8v12h-8v-12zM510 1580q0 -6 44 -24h12l12 12q-24 0 -52 20h-16v-8zM534 1420h20q20 12 20 32q15 0 32 24q0 8 -12 8q-36 -19 -44 -48l-16 -4v-12zM566 328h12v12l4 28l-4 4 h-4l-8 -12v-32zM570 700l8 -8v-64h12l4 28v68h-12zM582 268l16 -16l20 20v8q-16 0 -16 24h-12v-24zM590 200h4l8 8l-12 12v-20zM594 352l8 -8h4v8l-8 8l-4 -4v-4zM602 1408h4v12h-4v-12zM618 592l8 -8h4v20l8 12v24h-12q0 -19 -8 -28v-20zM630 232q24 0 24 -48h12v52l8 12v8 l-16 8l-28 -16v-16zM662 452h4l8 8h-12v-8zM686 388q28 0 28 -36l-12 -12l20 -20h16l12 16q0 27 -28 56l4 32l-4 4h-4l-16 -28h-16v-12zM690 788q8 -9 8 -28h12l4 28v20l-4 52q4 35 12 44v12l-12 16q12 13 20 68l4 4l4 116l-4 112h-12v-32l-20 -36v-44l8 -12v-4l-8 -12v-8 l4 -24l-8 -24v-8q12 0 12 -8v-12l-8 -16l-4 -96l-8 -8v-100zM714 256l8 -8l16 16v12l-8 8l-16 -16v-12zM746 560h28q10 8 40 12l24 -20q7 0 12 20q12 0 20 16v36l-16 16h-20q-20 -64 -64 -64l-4 -4h-20v-12zM786 316l8 -8h4v44l-8 8l-4 -4v-40zM786 1228l8 -8h4v32h-12v-24z M806 488h4l12 12l-8 8h-4zM842 472h12v12h-12v-12zM846 1048h12v12h-12v-12zM854 428h4l8 8v12h-8zM858 988h12v12h-12v-12zM858 1168h24l20 -4l12 16l-20 4h-8l-28 -4v-12zM870 892h8v12h-8v-12zM894 1120h12v36h-12v-36zM926 964h8l8 8l-8 8l-8 -8v-8z" />
<glyph unicode=":" horiz-adv-x="569" />
<glyph unicode=";" horiz-adv-x="569" />
<glyph unicode="&#x3c;" horiz-adv-x="1196" />
<glyph unicode="=" horiz-adv-x="1196" />
<glyph unicode="&#x3e;" horiz-adv-x="1196" />
<glyph unicode="?" />
<glyph unicode="@" horiz-adv-x="2079" />
<glyph unicode="A" horiz-adv-x="1209" d="M-21 112q0 32 28 60h8q37 0 52 -72h8q22 48 32 116q39 84 64 120q0 18 24 72l120 556q13 12 24 12q0 8 -16 8l-4 4v4q10 0 12 52q9 0 24 112v16l-4 16l12 28v48l-8 12v40l56 72l48 236q0 12 8 12h324l8 -8q-16 -5 -24 -20v-8l8 -8h4q32 13 32 40l4 4h8q15 0 40 -160 l16 -84q6 0 8 -44q29 -11 52 -48l4 -4v-4l-20 -32v-8q17 0 36 -72l8 -8v-8l-36 -32l148 -768l48 -232q20 0 20 -8l-12 -16v-16l12 -16l-8 -12v-16l8 -12v-12l-12 -12h-36l-12 -8h-8l-12 8h-4l-16 -12h-12l-16 12h-168q-14 0 -32 120q-36 220 -80 220q0 19 -20 32h-228 l-12 -12l-4 -96q-12 0 -12 -60q-30 -49 -52 -200l-4 -4h-72q-20 -12 -20 -32l-4 -4h-8l-28 24h-4q0 -20 -8 -20q0 9 -28 28v4l-12 -8l4 -4v-8q0 -14 -96 -24l-20 -16h-8q-84 101 -120 124q-12 15 -12 36zM71 1160v8l8 -8h-8zM115 136l20 -4l4 24l-4 12q-8 0 -8 -20zM127 204 l12 -12h12v12l-12 12h-4l-8 -8v-4zM163 184l12 -12h32l16 16v4l-12 12h-16q-32 -13 -32 -20zM171 1092v4l8 8l4 -4v-8h-12zM235 448l20 -4q24 0 40 20v8q-47 0 -60 -24zM267 184h24v12h-24v-12zM379 1228h8l24 24l-8 8l-24 -24v-8zM403 240q10 -12 16 -52l12 -8l8 8v4 q0 34 -12 48v4l12 16v24l-8 8h-4q-7 0 -24 -48v-4zM403 624l12 -12h16q15 16 32 16q24 16 24 32h-12q-24 -18 -68 -24l-4 -4v-8zM411 860h4l8 8h-12v-8zM427 1048h8l12 12h-20v-12zM439 436l8 -8h4v8h-12zM471 1416q0 -14 12 -24l60 28h28q13 0 28 -12l8 8l-32 28h-4l-28 -4 l-20 28v4q48 67 48 76v4q-29 0 -60 -60q0 -13 -40 -52v-24zM519 924l16 -4v4l-12 12h-4v-12zM535 640l12 -12h196l4 4h4l-64 396l-48 28h-8l-12 -12v-20q0 -34 -12 -48v-56q0 -39 -40 -140v-8l12 -16l-28 -16l-16 -52v-48zM547 1284q11 -24 40 -24h16v4q-16 24 -48 24h-8v-4 zM619 1084h12q0 29 36 56v20l-24 148h-4q-8 0 -8 -36l-4 -36l-8 -8v-144zM631 1528l12 -4q48 4 48 36l-12 12h-16q-32 -13 -32 -20v-24zM667 1456h20q0 12 12 12v12h-16l-16 -16v-8zM727 1540h8v-4q12 3 16 16h8v8l-12 12l-20 -24v-8zM739 1132q21 0 32 -28h36l12 -12v-12 l-56 -68l-4 -4v-24l4 -20h64l12 8q0 -8 20 -8l12 -24l-16 -60l4 -4h4l16 20v36q0 8 24 8l4 20q-36 9 -36 28h-4q-34 0 -48 -12h-32l-12 12v4l80 92l-32 44l4 4h4q13 0 28 -12h8l4 20q-11 20 -36 20l-12 12l20 20l-8 8h-16l-36 -24h-4l-4 4h-4l-8 -12q32 -4 32 -12v-4l-8 -8 h-12l-12 8h-16l-8 -8v-12zM799 1444h12v12h-12v-12zM823 1548l12 -8l8 12l-12 8zM895 400h8l96 84l-12 12h-32l-12 -12l8 -12q-16 -28 -48 -28v-20l-8 -12v-12zM919 1084h8v12h-8v-12z" />
<glyph unicode="B" horiz-adv-x="1104" d="M77 1324v24q7 24 28 24q8 0 8 20v172q8 6 8 44l24 12h12l4 -4h4q0 8 48 12l4 4h44l16 -16v-76h12v88l8 8h4l12 -12v-36h12v40l8 8h36l12 8h44l12 -12v-32h32v32l12 12h16l12 -8h8l12 8h8l24 -16q0 20 32 24l4 4h44l20 4l4 -24h12q0 24 8 24h8l8 -8v-36q0 -8 -20 -8l-4 -4 v-4l12 -4l4 4l4 -4v-32l-24 -40v-48l-8 -12v-8q20 -23 20 -40q24 0 24 -8l-12 -16v-12q28 0 28 -12q-12 -48 -20 -48l-20 4v-12q10 0 40 -28q-3 -35 -12 -44v-12l20 -8l4 4v40l12 12h4l16 -20v-4l-8 -12v-12l16 -8l12 16l4 -4v-16l-24 -44l4 -20l-12 -32v-16l4 -16 q-16 -21 -16 -64l-8 -20q-32 -4 -44 -16l-12 8l-24 -28l4 -28l-4 -44l4 -32l-4 -48v-8q-8 0 -12 -68l-8 -8v-20l12 -16v-16l-8 -8l-28 36l8 8v4l-12 12l-20 -20h-4l-48 20h-104l-12 -12v-104q0 -61 -16 -112v-8h12q3 20 12 20l24 -16v-8q0 -8 -32 -12l-4 4l4 -28v-216l28 4 h16l28 -4q0 16 72 36q79 0 100 32l16 20v8q-32 60 -56 60l-4 4v4l8 8l28 -16l36 24l8 -8q29 13 44 40l-4 24q0 8 12 8v24l-8 12v16l16 12l4 4v52h-12q0 -16 -8 -16l-12 16v4l16 16l8 -8q0 6 16 12q27 -9 40 -28l12 8q0 92 28 136l-4 28v24l-8 12v36h8v-36h16q0 20 8 20h4 l16 -20q73 -39 120 -140q26 -42 36 -116l4 -4v-20l4 -44l-4 -52v-32q-12 -17 -12 -64q-6 -1 -20 -48q-12 -11 -12 -32q-25 0 -28 -44q-25 -35 -72 -72q-28 -52 -204 -112h-40l-28 -4l-4 4v4l4 24l-4 60v8l-12 12h-8l8 -12v-60q-8 -5 -8 -48l-4 -4h-4l-4 4h-4q4 35 12 44v36 q-8 9 -8 28l-28 -4v-24l-8 -12v-20q20 -1 20 -12q-16 -48 -24 -48h-8q-11 0 -12 20h-4q-8 0 -8 -20l-4 -4h-4l-4 4h-4l4 56l-4 136h-12q0 -24 -16 -24h-4l-4 -60v-28l4 -16q-16 -38 -16 -60l-4 -4h-8l-8 8v28h-8q-16 -8 -36 -36l-4 4v64q0 31 -16 36l-8 -12v-8l8 -12v-4 l-28 -28l-8 8v24h-12q0 -25 -28 -48h-4q-12 0 -12 24h-12q0 -12 -8 -12l-4 12h-16q0 -20 -8 -20h-4q-8 0 -8 40l-4 4h-4l-16 -12q-12 0 -12 24q-16 -6 -16 -28v-12q28 -9 28 -16v-16l-12 -12h-16l-12 8h-40l-16 28v448q0 8 20 8l4 208v40q0 34 -12 48v8l8 12v4l-20 36v272 l-4 144l4 32h-12l-12 -4v4zM113 692v32l8 8l4 -4v-32l-8 -8zM125 148h12v48l8 12v20l-8 24h-4l-8 -24v-80zM125 1096l8 -8l4 4v12h-4zM133 1060q0 -56 20 -56l12 40l4 4v56l-12 16q2 23 12 36v36h-12v-28q-12 -15 -12 -36l4 -40q-16 -6 -16 -12v-16zM137 904l12 -12v20h-4z M137 1216h12v12h-12v-12zM149 820l8 -8h4v8h-12zM161 88h8q12 5 24 36v24l-8 8h-4v-20l-20 -28v-20zM169 252h12l4 48h-4l-12 -12v-36zM169 452l4 -28h8l4 20v60h-4q-12 -4 -12 -24v-28zM185 700h12v24l8 12v24l-4 20l4 4h-8l-12 -12v-72zM193 792h12v4q18 116 24 116v4 l-12 16v16l12 16v48h-16q-9 0 -20 -108v-112zM197 324l4 -4h4l64 80q0 14 36 64v12l-8 8q-7 0 -28 -40l-16 -12h-8q-18 16 -36 16l-4 -4v-16q0 -8 20 -8q0 -8 16 -8l4 -4v-8q-37 -45 -48 -76zM197 588l32 -16v-40h12v24l8 8l4 -4v-28h12l4 28v24l8 12v104l-8 12v16l20 32 l-8 8v44l-12 16v64h-12q0 -16 -12 -28v-32q0 -21 -12 -36v-32l12 -16l-4 -28v-44l-8 -12v-48q0 -12 -24 -12zM205 1156h12q0 11 24 40q11 49 28 56h4q24 0 48 -20l8 12v16l-12 12h-12l-12 -8l-16 16v4q16 24 28 24v12h-36q-23 -8 -36 -44v-12l4 -16q-19 -47 -32 -60v-32z M217 1564l8 -8l4 4v16l-8 8h-4v-20zM241 8l8 8q20 -5 20 -12l-4 -4h-16zM241 604l8 8l4 -4v-12h-4zM241 1000l8 -8l4 4v4l-8 8h-4v-8zM281 88h12v24h-12v-24zM301 8l4 4h12l8 -8l-4 -4h-12zM301 180h12v52h-12v-52zM305 724h12v36h-12v-36zM317 856l8 -8l4 4v12h-4zM325 360 h12q0 16 12 28v8l-8 12v20l8 12v140l-8 24h-12v-24zM325 1060q14 0 16 -32h4l4 4v12l-8 24h-16v-8zM325 1120h12v12l-8 8h-4v-20zM329 1516h8q13 12 24 12v12q-32 -2 -32 -12v-12zM337 888l8 -8l20 16v8h-12zM337 1368h4v12h-4v-12zM341 244h12v12h-12v-12zM345 4v8h12v-8 h-12zM361 436l12 -4q16 0 16 48h-4q-8 0 -8 -24l-16 -8v-12zM365 776l8 -12v-8q0 -47 8 -64l-8 -32v-16q0 -28 12 -28v-4l-8 -12v-40l8 -12v-56h12l4 12l-8 68l4 16v28h-12l16 64v16q0 13 -12 28v48l8 12q-8 7 -12 60h-12l-8 -16v-52zM365 1072l12 -12q0 7 32 20v28l-8 8z M373 292h12l4 20h-4l-12 -12v-8zM377 48l4 4h4l4 -4v-8h-4zM377 124q12 0 12 -12h12v96h-12v-24l-12 -16v-44zM377 1192h8q16 0 16 64q-2 40 -12 40h-4v-48l-8 -12v-44zM401 264h12v24h-4l-8 -8v-16zM421 112h12v12h-12v-12zM421 764h4l8 8h-12v-8zM421 928l8 -8l4 4v16 l-8 8h-4v-20zM425 88l12 -12l8 12l-12 12h-8v-12zM425 976l12 -12h76q8 8 32 8q16 12 52 76l12 4q16 0 16 -28h12v28l16 72l-4 64q27 0 48 28v8l-8 12v4q12 17 12 32q-17 5 -48 72q-60 48 -60 56l-16 24v4q0 8 28 32v16l-16 16l4 60v32h-4q-9 0 -12 -36l-24 -8v-36l-8 -12 v-44l-12 -16l4 -4v-4l4 4h8l16 -16v-8h-88l-8 8v8q0 8 12 8v4l-8 12v24l8 12l-8 8h-4q-12 -81 -28 -92q-16 -2 -16 -12v-84q10 0 24 -20q-24 -8 -24 -16v-288zM437 160h12v32h-4l-8 -8v-24zM449 880h12v12h-12v-12zM473 760q0 -12 44 -16l4 4v8q0 9 -28 16l-8 44h-4l-8 -20 v-36zM473 856l8 -8l4 4v24h-4l-8 -8v-12zM493 8v24l8 8l4 -4v-24l-8 -8zM509 1552l8 -8l4 4v36h-4l-8 -8v-24zM533 144h12v16h-12v-16zM533 856l16 -20l8 12v24l-16 16l-8 -8v-24zM565 1184l4 4h4l8 -8l-4 -4h-4zM593 856q10 0 28 -16l28 100l4 12h-12q0 -16 -8 -16 q-28 0 -28 24h-4l-8 -8v-96zM593 1176l4 4h12l8 -8l-4 -4h-12zM601 988h12v12l-8 8h-4v-20zM605 888v8l8 8l4 -4v-12h-12zM625 1612h24l-12 12h-4l-8 -8v-4zM637 204h4l12 -8h8q0 15 48 32q13 -11 16 -56h8l4 12l-4 32l16 12l-4 4v8q15 56 36 56l4 16v4q-31 0 -56 -56 q-9 -32 -56 -32l-4 -4l-20 20q-12 -17 -12 -40zM661 720l12 24l4 84l8 8v80l-8 12v4l8 8l12 -8q10 56 40 56h4q9 0 12 -20l-16 -16l12 -16q0 -32 -16 -32v-64q0 -14 16 -28v-60l-28 -24v-4l4 -16l-4 -28v-44l4 -40l-4 -4h-12l-36 40v56zM677 1452v16q12 10 12 20h8v-20 l-16 -16h-4zM689 760l8 -8l4 4v12h-4zM701 312h12v16h-12v-16zM709 400l4 -28h20v16l-12 12h-12zM709 1164l4 -20h12l12 36h-28v-16zM713 928h8v-4l12 4v12l-8 8h-4zM721 288h12v16h-12v-16zM721 1316q18 55 28 64l-4 32l4 120l4 4h8l24 -16v-36l-12 -16v-8q12 -13 12 -68 v-24q0 -8 -12 -8v-60l-12 -12q-40 20 -40 28zM749 400h12v12h-12v-12zM749 828v8q14 44 20 44q12 -30 20 -88q8 0 8 -20q-2 -37 -12 -48v-24l8 -8l28 104h4l4 -4v-92l-8 -24l-4 -24l-4 -4h-28l-12 12v156q-21 0 -24 12zM749 1564v48q7 6 12 52l40 28l4 -4v-20 q-12 -14 -12 -48v-12h-12v28h-12v-88h-12zM793 956v4l8 8l4 -4v-4l-8 -8zM797 1000v24q12 13 12 68l-12 12v20l8 12l4 84q8 0 8 44l12 12l4 136l8 8v44q0 32 16 72l-12 12v4l8 12v36l8 8q19 -9 28 -28v-64l-8 -12l-4 -160l-8 -8l-4 -100q-8 0 -8 -12l-4 -4h-4l-4 4h-4 q-12 -10 -12 -108v-56q-12 -14 -12 -48v-16l-8 -8zM805 556h12l4 36h-8l-8 -8v-28zM817 972q12 0 12 48l4 4h4l16 -20l-20 -28v-64h-12v12zM817 1556v12l8 8l4 -4v-12l-8 -8zM821 864v8l8 8l12 -12v-4l-8 -8h-4zM841 1112v4l4 76l8 8l12 -32q-9 -9 -16 -60h-4zM845 1672 l8 12v12l-8 12l12 12h8q22 0 28 -16v-56l-12 -12h-12zM865 972v40l8 8l4 -4v-44h-12zM877 136h4v12h-4v-12zM893 972v8l8 12l4 136v4l8 12v48l4 140q8 0 12 48l8 8v80l-8 12v4q8 5 8 48l4 4h4q36 -61 36 -112q8 0 8 -20v-40l-12 -16v-12q24 0 24 -28v-32l8 -12v-60l-8 -12 v-4q0 -61 -40 -148q0 -32 -24 -32q-26 -42 -36 -44zM901 1560v8l8 8l4 -4v-12h-12zM937 244h12v24h-12v-24zM949 360h12v16h-12v-16zM965 396h12v12h-4l-8 -8v-4zM989 388h12v36h-12v-36zM1033 516h12v28h-12v-28zM1061 728l4 4h8l8 -8l-4 -4h-8z" />
<glyph unicode="C" horiz-adv-x="1075" d="M-206 932v4l8 8l4 -4v-8h-12zM-154 1196v8h4l12 -12l-4 -4h-4zM-78 1192v4l4 4h4l4 -4v-4l-4 -4h-4zM-58 1120l8 8h4l8 -8l-8 -8h-4zM90 792v44l4 140q8 0 8 12q0 77 52 240l36 84q117 206 280 280h8v-8l-20 -24l-8 8l-12 -12l4 -12l-4 -64v-24l16 -20v-32l-4 -40l4 -16 l-4 -64l4 -48q-5 -24 -12 -24l-12 8q-13 0 -16 -60l-24 -24v-8l8 -8l48 80q20 -23 20 -36v-4q0 -33 -28 -140q0 -36 -8 -36l-4 -128v-76l4 -120l8 -8v-404q-12 -16 -44 -28l-24 -44v-8l24 -24h8l12 8h20l-4 -20v-20l8 -12v-28h4l8 8v48l8 8h4l4 -20v-64l-24 -16h-24 q-77 36 -108 36h-12q-40 -16 -64 -16h-40q-25 13 -52 72l24 24h16l48 -20h8l8 8q0 8 -68 96l-24 72v48q-12 35 -28 140q-8 0 -8 28q-12 35 -20 108h-4zM174 1148q84 65 84 72l-12 12h-24l-12 -12l4 -20q-40 -20 -40 -32v-20zM222 416h16v12h-16v-12zM370 804h8v-4 q24 8 24 16l-12 12h-12l-8 -16v-8zM382 936h12v12h-12v-12zM382 1464l8 -8l4 4v12h-4zM406 1412h4l8 8v4h-4l-8 -8v-4zM462 268v4q4 40 12 48v12l-12 16l4 120l16 12l16 -32v-40l-8 -16l-4 -112l-20 -16zM462 1252l8 8l8 -8v-8h-8zM498 72v16l8 8l4 -4v-16l-8 -8zM498 1572 v28q7 11 48 28l4 -4l4 4h8l8 -8l-32 -48v-48l8 -12v-24q-12 -10 -12 -108v-20l12 -16v-72l-32 -36l-4 4v4l4 164q0 23 -12 40v4q12 12 12 96l8 8q0 8 -24 16zM534 28v12l8 8l8 -8v-12l-8 -8zM534 192v28l8 8l8 -24v-16l-8 -8zM534 324v12l8 8l4 -4v-12l-8 -8zM562 1372v8h4 v-8h-4zM562 1392v8l8 8l8 -8l-12 -12zM586 1572v4l12 16l-4 20v16l12 12l4 -12l-4 -36l4 -24l-12 -8zM606 268v48l8 8q14 -16 76 -32l20 -8l4 -4v-28h4l16 32h12q94 0 160 60l48 -40v-4q-12 -36 -28 -44q-8 0 -8 12l-4 4h-20l-8 -8v-24q24 0 24 -52l12 -12v-16l-4 -28 l12 -12v-4l-8 -12v-4l8 -12v-8q-20 -14 -20 -36q0 -12 -8 -12l-8 8v24l4 28l-4 4h-8q-5 -76 -28 -84h-8l-12 12v36h-12q-3 -52 -16 -52h-8l-12 12v68l-4 68h-12l-8 -16v-16q0 -52 -12 -52q-8 0 -8 12l4 12h-8q-16 -6 -16 -28v-12q36 -11 36 -20v-16l-20 -20h-64 q-12 0 -24 88l-4 4h-4l-4 -20v-52l-12 -12h-12l-8 8v16l12 32l-12 20v48l8 12l-8 8v28l12 12h4l8 -8v-44h12q10 40 16 40l8 -28h12v24l20 24v4l-20 56h-4q-11 -56 -24 -56h-8q-32 20 -32 56zM610 1364v16q0 8 24 16q12 20 56 20l8 8h56l28 -16l8 12v28l-12 12h-4l-44 -20 l-4 4v4l4 16l-12 8q-10 0 -16 -32h-8q-11 5 -40 64l-12 8l4 48v4q0 14 -16 28v8q0 8 12 8v12l-8 12v4l20 16h12l4 -4h4l8 8h28q8 0 8 -24q36 0 36 -28l-12 -20q20 -11 20 -24h12v8q0 84 12 84h4q13 0 24 -132v-68h12v40l8 8l-4 4v4l4 4v4l-8 8v20l8 12v52q0 44 12 44l12 -16 v-112l8 -8q0 6 40 16v16h-4l-28 -4l-4 4v8q0 84 12 84h4l8 -8v-24h12q0 24 8 24h8q44 -13 44 -24l-8 -12l16 -20l4 4h4l20 -16l-48 -32v-4l24 -24q-32 -12 -44 -28l20 -20q-24 0 -24 -48q-9 0 -16 -48l-12 -8q-73 28 -148 28q-60 0 -124 -36h-4zM706 92h8q7 0 24 28v48l-8 8 h-4v-32l-20 -28v-24zM762 192h28v8l-4 4v4l-24 -4v-12zM826 96h12v24h-12v-24zM838 208l16 -32h8v4q0 68 -12 68h-4v-20l-8 -12v-8zM922 56l4 4h4l4 -4v-8h-4z" />
<glyph unicode="D" horiz-adv-x="1167" d="M75 1348q7 24 28 24q16 0 16 12v220l32 16h8l4 -4h4q0 8 48 12l4 4h36l4 -4h4l8 8h76l12 8h40l4 -4h4l8 8h28l140 -4l8 -8h8l24 20h100l4 -4h4q79 64 88 64h24q56 -37 56 -44v-16q0 -21 -64 -24h-20v-12q3 -9 84 -64q44 -55 56 -108q87 -160 108 -252q16 -54 24 -116 l4 -4l4 -104l8 -8v-244q-8 -8 -12 -48l4 -12q-16 -134 -60 -272q-12 -10 -28 -64q-43 -79 -112 -160q-133 -109 -220 -124q-59 -23 -132 -32v-4l-128 -4h-60l-168 4l-8 8h-32q-21 0 -28 16v1200l-40 116zM215 1116l8 -8h4l96 68h12v12l-12 12h-8q-100 -32 -100 -84zM219 648 q14 0 60 -44v4l-4 20q10 10 52 20v32l-8 8q-8 0 -8 -20l-4 -4h-4q-16 0 -16 40q-29 16 -64 16l-4 -4v-4l16 -20v-4h-16v-40zM315 192l28 -20h8l12 8q-11 31 -24 36zM323 1576l12 -8l12 16v28l-12 12q-8 -8 -12 -48zM327 100l20 -4v4l-8 12l-12 -4v-8zM327 532l8 -8l4 4v4 h-12zM407 1164l8 -8h4l4 12l-4 12h-4l-8 -8v-8zM435 268h8v-4l40 4h48q9 9 52 12l28 16q66 45 96 136v4q-20 17 -20 68l-88 52v16l16 16h4q38 -12 60 -36h12l32 68q48 25 48 112v72l8 12v72l-8 12v8l-4 140q-7 0 -16 68q-28 113 -56 148q-26 53 -100 104q-28 13 -84 20l-4 4 h-28q-8 -8 -36 -8l-8 -12v-800q19 -39 44 -64q0 -10 -40 -20l-4 -4v-216zM447 12h8v4l-8 8v-12zM447 1460q8 -9 8 -28l20 -4l-8 -20l4 -4h4l16 12h28q49 0 68 28l-8 8h-12q-25 -24 -60 -24l-52 52h-8v-20zM687 208h12q6 8 44 8q7 12 28 12q36 16 36 40q13 28 60 76q8 0 8 28 q6 0 24 40l-8 8l-36 -36q-39 16 -84 16v-12q42 -14 72 -36v-4l-36 -48q-13 0 -20 -40q-14 -21 -100 -40v-12zM687 1576l24 -24h8q8 0 16 24h8q0 6 -28 20h-8zM735 1204l16 -20l8 44l-4 12h-12l-8 -16v-20zM755 1400l8 -8h4v4l-8 8h-4v-4zM767 444h4v12h-4v-12zM783 628h8v12 h-8v-12zM791 808h12l12 12l-12 8l-12 -12v-8zM803 728h4l12 12v8l-16 -16v-4zM851 1096h4q60 67 60 108l32 24q-18 36 -24 36h-8q-16 -8 -16 -24l4 -48q-18 -13 -48 -72l-4 -4v-20zM867 820h12v8h-12v-8zM911 912q0 -24 24 -24l16 28v8h-28zM923 588l8 -8l20 16v8h-12z M987 1264l8 -8l4 4v4h-12zM1059 888l4 -4q20 5 20 12l-8 8z" />
<glyph unicode="E" horiz-adv-x="827" d="M60 4v200l4 40l-4 56v448l4 36l-4 40v440l8 8l12 -12h4l4 12l-12 12l-4 -4h-4l-8 8v40l24 28v4l-24 28v224l8 8h688l12 -12v-252l-12 -12h-76l-44 -4l-16 4l-4 -4l-28 4h-200l-12 -12v-356l8 -8h20l128 4q3 7 140 36q29 0 32 -40q40 0 40 -16v-232l-12 -12h-344l-12 -12 v-204l8 -12v-20l-8 -12q27 -30 32 -52h4q23 24 44 24q76 0 76 -24q0 -38 -52 -56l-8 -8v-4q0 -8 32 -8l8 -8h52l12 8h8l12 -8h8q108 -5 128 -32v-8h24l40 4l8 -12v-12q-12 -15 -12 -56v-24l4 -20l-4 -24v-60l4 -4v-4q-13 -12 -24 -12v-12l20 -20v-8l-12 -16v-8l8 -12l-8 -8 h-108l-56 16q0 8 -32 8l-8 8h-20q-34 0 -48 12q-4 -12 -24 -12h-252l-12 -8l-12 8h-140zM88 1180l8 -8h32l20 20l-8 8l-4 -4h-4l-28 12l-16 -20v-8zM100 144l12 -12h8l16 16l-8 8h-16zM112 900h12v12h-12v-12zM120 524h12v4l-8 8h-4v-12zM132 968h12v4l-8 8h-4v-12zM144 400 l8 -8h12q20 28 60 28l44 -4v4l-4 12h-44l-12 8q-19 -18 -64 -32v-8zM168 -212l4 4h4l4 -4v-4l-4 -4h-4l-4 4v4zM172 1076h8v4l-8 8v-12zM184 528h12v8h-12v-8zM196 168l20 -4q64 16 64 28v8l-12 12q0 -17 -72 -32v-12zM208 1344q0 -13 44 -20l4 -4h12q30 25 116 68l4 4v12 h-24l-52 -36h-28l-12 8h-20l-24 -20h-20v-12zM216 836q1 -15 36 -28l28 16h88q22 -6 64 -48l16 -8l8 12q-52 32 -52 56l-120 4h-28l-20 -4l-8 12l4 16h-12zM232 -172l8 8l12 -12l-12 -8l-8 8v4zM252 1580l8 -8h4l4 12l-4 4h-4zM264 1004l8 -8h4l12 12l-12 12h-4l-8 -8v-8z M280 1056h8v12h-8v-12zM324 88l8 -8l8 8l-8 8zM356 316l4 -4h4v12zM376 280l8 -8h72v4l-8 8h-4l-56 4l-12 -4v-4zM384 328l32 -32h4v28l-8 12v36h-8q-9 0 -20 -40v-4zM412 72h12v12h-12v-12zM444 -296l4 4h4l4 -4v-4l-4 -4h-4l-4 4v4zM484 1440l8 -8l28 24v4l-12 4 q-24 -8 -24 -16v-8zM564 24h16v12h-8l-8 -8v-4zM568 216q72 -27 100 -48h8l12 12l-72 36q0 12 -28 12h-20v-12zM612 1580l8 -8h28l12 8h12l4 -4h4l4 4v4l-8 8h-64v-12zM708 1580l16 -8l8 8v4l-8 8h-16v-12zM720 1464h4q12 0 12 44v28h-12v-4z" />
<glyph unicode="F" horiz-adv-x="989" d="M75 1300q0 26 36 36l4 4v280l12 12h288l24 20h204l4 -4h4l8 8h52v-4l-8 -12v-8h84l24 24l-8 8h-40v4l8 8h24l4 -4h4l8 8h12q96 -103 128 -104l20 -24v-20q0 -56 -16 -56h-24q-27 17 -44 56h-4q-12 -2 -12 -32v-92q-8 -8 -12 -52l-32 -28h-4l-80 16q-42 12 -100 12h-204 l-12 -12v-156q-14 -24 -48 -24l-4 -4v-4q0 -7 28 -12v-4l-12 -4q-34 0 -96 24l-4 -16q74 -28 88 -40q0 -16 8 -16l32 4l8 -12v-8l-24 -16q0 -24 -48 -72v-28h16l16 12h4l36 -12q0 -12 40 -12l4 -4l-8 -52h8q10 0 20 52l4 4h68l36 -20h8l16 32h160l16 -32v-240l-12 -12h-36 l-12 8h-4l-12 -8h-164q-123 -5 -128 -24l-4 -4v-532l4 -24l-4 -20l4 -20q-4 -40 -12 -40h-196l-12 -8h-4l-12 8h-72l-8 8v4l20 40v76l-20 24v752l8 12v4l-8 12v156q0 113 -40 204zM127 688l8 -8q21 0 24 12l-4 4h-8l-20 -4v-4zM135 1548h4l44 48l-8 8h-4l-36 -36v-20z M151 1376q8 -8 56 -12l8 -8l8 12q-19 21 -52 24q-18 -8 -20 -16zM219 1176h8v8h-8v-8zM223 728l12 -8q0 8 12 8l4 4v4l-8 8q-18 -8 -20 -16zM223 1536l12 -12q28 14 28 20l-12 12h-16l-12 -12v-8zM247 1456l8 -8l24 24l-4 4h-4q-17 -4 -24 -20zM319 1544l12 -8l8 12l-8 8z M367 1604l12 -8l16 16l-8 8q-18 -8 -20 -16zM379 1440h16v4l-8 8l-8 -8v-4zM387 988l32 36h8v-36l-8 -8h-24zM443 1108h4l140 -140l-8 -8h-4q-13 3 -128 124zM451 1476l8 8v4h-8v-12zM487 1148v8h12v-8h-12zM503 1620l8 -8v8h-8zM523 1548h8l-8 8v-8zM571 1440h12v8h-12v-8z M571 1516l12 -12l24 32l-8 8l-28 -24v-4zM647 1604l20 -20l12 16v8l-8 8h-16l-8 -8v-4zM707 716h8v12l-8 -8v-4zM719 1116v4h8v-4h-8zM731 1372l4 -4h8v12h-4zM759 728l12 -12h8l8 8v4l-20 12z" />
<glyph unicode="G" horiz-adv-x="1259" d="M32 1456l4 4h8l8 -8l-4 -4h-8zM180 228l24 20l40 -20l32 -28h16v4q0 11 -68 132l-24 88l-4 236l-8 8l-4 124l4 132v12l8 16q0 111 72 304l12 12l8 -8l8 8l-8 24q26 76 140 192l4 4h4q3 -21 24 -36v-72l-8 -12v-4l8 -12v-28l-8 -12v-56l-8 -8h-16l-12 8h-4l-12 -12v-8 q48 0 48 -28l8 -20q0 -13 -16 -32v-8l32 -28l-20 -40v-24q12 -15 12 -28v-4q0 -8 -20 -8l-4 -4v-68l8 -12v-20q12 0 12 -8v-28l-20 -24v-656l-4 -84l4 -28l-4 -4h-4q-38 22 -68 28l-28 -4h-52q-72 0 -104 124zM208 924l4 -36v-4h12q9 0 32 44l4 4l-12 12q0 -8 -32 -8z M220 608l4 -20h4q23 13 32 28l-4 4v4q-36 -5 -36 -16zM220 728l12 -8h4l-4 20zM260 504q25 -60 32 -60h8l16 16l-4 20q33 29 56 88v4l-12 12h-4q-18 -47 -52 -68l-12 -16q-10 0 -12 16h-4zM292 756l12 12h-12v-12zM332 1632v4l8 8h8l8 -8v-8l-8 -8h-4zM336 1764v8l8 8v-8z M344 372l8 -8h4v8h-12zM352 896l12 -8l16 16l-8 8h-4zM360 400l8 -8l8 8l-8 8zM368 448l36 -8v12l-12 12h-4zM380 308l12 -8h8l12 12v12h-4q-28 -5 -28 -16zM400 788h8v4l-8 8v-12zM400 1728v4l8 8h4l12 -12l-12 -12zM420 516h8v8h-8v-8zM452 80v44l12 12l8 -16v-44l-8 -8z M460 212v4l16 16l8 -8v-20l-16 -16zM464 264v4q8 6 12 64l-8 20l4 24l-4 12q8 46 8 156v56l12 16q-4 59 -12 64v28l8 12v12l-4 16l4 12h4q12 0 12 -84l8 -8v-28l-8 -12q9 0 16 -48l4 -4v-56l8 -8l16 12l4 -4v-4q-39 0 -52 -156v-12l-8 -12v-80l-8 -8zM484 876l16 152v4l8 12 v20l-12 16q0 49 16 64l-8 12l4 20v32l12 12h4l16 -8v-8h-8v-60l4 -36l-4 -40v-44q-12 -15 -12 -28v-56l-8 -16l-4 -100h-12q-12 26 -12 52zM500 60v28l8 8l4 -4v-28l-8 -8zM508 1440l4 28v24l8 12v32q0 22 16 28h8v-4l4 -60q-3 -64 -12 -64h-20l-4 4h-4zM512 228v4l8 8l4 -4 v-4l-8 -8zM512 336v8h4v-8h-4zM512 1248v64l8 12v76l8 8l8 -8v-36l12 -16v-92l-24 -16h-4zM536 192v36l8 8l12 -24v-24l-8 -8zM536 328v8l8 8l4 -4v-8l-8 -8zM544 40l8 8v-8h-8zM564 1368q3 40 12 40l8 -8q0 -21 -20 -32zM576 1168v8h4v-8h-4zM580 364v4l4 4h4l4 -4v-4 l-4 -4h-4zM592 1572v12l16 16l8 -8v-20l-12 -12zM608 272v100l8 8q36 -46 100 -88q0 -40 8 -40h4q1 32 16 32h4q15 -12 56 -12h40q31 0 36 16v48q14 54 28 68q34 0 36 104v4l-4 56l4 52l-4 28l16 40v16q0 14 -16 32v124l-16 28h-4l-4 -20v-60q0 -44 16 -108l-12 -24v-32 l8 -12v-36l4 -20l-12 -12v-4q12 -15 12 -68l-16 -4v-4l12 -16v-24l-12 -12h-12l-8 8v192q-17 40 -44 40q-24 0 -32 56l12 24l4 84q-16 0 -16 8v12l4 32l-4 32l12 12h124l12 -8h8l12 8h136l8 -8q-20 -5 -20 -12v-4q24 0 24 -32q14 -40 28 -40l8 -20l-4 -28v-40 q-24 -17 -24 -68l-8 -8v-52l8 -12v-40l-8 -12v-60l-24 -16v-4q24 0 24 -116q8 -5 8 -48l4 -4h4l8 8l-4 24q4 53 12 60v56l8 8l32 -156v-8q-8 -40 -40 -40v-96q0 -16 -44 -28q0 -27 -16 -44v-4q0 -7 28 -12v-16q-5 -12 -36 -24h-20l-8 8v136l-8 12v44h-4q-8 0 -8 -28 q-17 -4 -24 -20v-128q-12 -10 -12 -36l-4 -4h-4l-8 8v20h-8l-36 -28l-4 4v32l12 12h12l12 -8h8l20 16q0 8 -12 8l-12 -4l-4 4v4l4 16l-4 4h-8q-9 0 -16 -28h-4q-7 0 -12 20l8 16l-4 40v60l-8 8h-4v-24q-11 -10 -16 -56l-4 -4l12 -16l-4 -20l4 -24v-4q0 -8 -16 -8v-24 l-12 -36h-4l-4 4h-4l4 28v40h-4q-8 0 -16 -76l-4 -4h-16l-12 12v48h-12l-12 -56l-4 -4h-8l-12 12v104l-12 40h-4l-8 -8v-40l-12 -40h-4q-6 35 -16 48v40q0 8 20 8l4 4v4q-12 15 -12 40l-4 4h-8l-36 -24h-4l-8 8v32l-4 28q-12 -2 -12 -32v-24l-12 -16l-20 4h-4q0 -24 -12 -24 l-8 8v80zM616 92v40l8 8h8l12 -8l24 28l12 -8h8q0 24 12 24h12l12 -12v-20q-12 -15 -12 -44q15 -48 32 -48l16 -4l4 -4v-28q0 -8 -12 -8q-72 0 -72 12l8 8v8q-24 0 -24 32q0 24 -12 24l-8 -12v-44l-12 -12l-12 12v16l8 12q-12 15 -12 28zM616 1240v56l4 16l-4 16v4 q0 71 24 108q0 85 12 96v20l-20 40q14 20 40 32l4 -4h4l32 16h4l16 -16l4 4h8l16 -20l-12 -24l24 -24h4v48l12 40h4q14 0 24 -88l4 -4h4l-4 -40v-64h12l4 12l-4 20l4 156q8 0 8 12l4 4h4l8 -8v-96l-8 -12q10 -28 16 -28h4q0 12 36 20v16h-24l-12 12v40q7 6 12 52l4 4h4 q4 -48 12 -48h4q8 48 20 48h24l8 -8l4 4h12l12 -12v-56q0 -13 -48 -20v-12l12 -12q8 8 36 8q0 6 36 20l4 -4h4q0 8 24 12q5 -24 12 -24l8 56h-16q-13 0 -28 -12h-4l-12 12v24l12 12h8l8 -8l4 4h12l32 -16l4 4h4l44 -24l4 4h4l8 -8l4 4h4l20 -16l4 4h4l12 -12l-56 -32 q-13 36 -20 36q-12 -12 -12 -28h-4l-20 4v-68l-8 -12v-16l20 -28v-16q-7 -5 -16 -68l-12 -12q-60 13 -60 48l-4 4v36l8 8l12 -8h4v12l-16 8l4 40v20h-4q-10 0 -24 -112v-24l-4 -4v-4l-20 4h-44l-12 8l-8 -8h-8l-12 8l-12 -8h-8q-105 0 -200 -76h-8q0 24 -8 24l-16 -24l4 -24 l-24 -32zM648 1372q11 -17 36 -28l8 8v8q0 9 -40 20l-4 -4v-4zM692 1608l8 -8h4l8 8l-12 12zM728 852v64l8 8l4 -4v-64l-8 -8zM732 832v8h4v-8h-4zM748 708v32l4 20l-4 28l24 88v44l12 12h12l12 -12v-16l-12 -16v-48l-20 -36q12 -15 12 -28v-44q0 -64 -12 -64q-8 0 -8 12 l4 12h-4q-18 8 -20 16zM832 96h12v24l-8 8h-4v-32zM832 884h8v4l-8 8v-12zM848 188l12 -12h8v24l-8 12v36h-4l-8 -8v-52zM856 732h12v36h-12v-36zM856 1488h12v16h-4l-8 -8v-8zM860 836h8l12 20v8l-8 8h-4q0 -19 -8 -28v-8zM872 896l8 -20l16 8v8l-8 8h-16v-4zM892 144l8 8 l-4 4h-4v-12zM892 252h12v12l-8 8h-4v-20zM928 48v4l8 8l4 -4v-4l-8 -8zM928 908l12 -8l12 12l-12 8zM952 272h12v16l-8 8h-4v-24zM956 552q8 -5 8 -48q16 0 16 68h-4l-20 -8v-12zM968 128l8 -8h4v20h-4l-8 -8v-4zM968 776l8 -8h4v24l-12 -12v-4zM976 248h12v4l-8 8h-4v-12z M988 168h12v36h-12v-36zM988 308h12q0 23 12 40v24l-8 8h-4q-12 -38 -12 -72zM1000 520q16 -52 24 -52h4v16q0 56 -24 56v-4zM1000 888h12v12h-12v-12zM1024 560h12v16h-12v-16zM1024 620h12v48l-12 -12v-36zM1024 780l4 -28h12v36l-4 28h-8l-4 -20v-16zM1024 852h8 q8 0 8 12q-2 32 -12 32h-4v-44zM1036 248h12v4l-8 8h-4v-12zM1036 436q6 -16 12 -16h4l24 52l-12 16v20l8 12l4 144l-4 32h-12v-24l-8 -12v-40l12 -16v-8l-12 -16v-16l8 -12v-4l-8 -8l-12 8h-4v-16l12 -16v-12q-12 -15 -12 -68zM1040 40v8l8 8l12 -12l-12 -12zM1060 296h12 v4l4 60h-12l-4 -60v-4zM1060 816l4 -4h4l8 8v20h-12zM1084 152h12v16h-12v-16zM1084 856l16 -16l8 12v32l-16 16h-8v-44zM1140 1496l12 16q16 -6 16 -12l-16 -12h-4z" />
<glyph unicode="H" horiz-adv-x="1409" d="M79 1584v36l12 12q16 -15 16 -76l12 -12l-4 -40v-56h-12v24q-8 10 -24 112zM107 48l8 12v8l-8 12l8 8v32l-8 12v4l8 12v328l4 128l8 8v60q-8 9 -12 44l12 24l4 84l-16 16v380l16 20v12l-16 20v104l-8 12v40l20 16l4 180l12 8h4l8 -8v-116l-4 -20h12q0 25 36 28l8 -12l4 4 h4q8 -8 36 -8q47 -22 56 -36v-4q0 -8 -20 -8v-8h-4q4 -30 12 -40v-72q3 -24 12 -24h4l8 24v44l-8 12l24 4v60l-4 60l-12 4l-20 -4h-12q-15 12 -56 12h-16l-20 12l-20 -4l-8 12v44q8 8 8 36l12 8q5 -36 12 -36h4q0 24 20 36h48l12 -12v-48h8l20 8v40l12 12h68l16 -12l8 8h4 l8 -8v-48l-16 -28h-8l-12 4v-12h4q-4 -53 -12 -60v-24l32 -36l-8 -12v-28l20 -24v-332q0 -13 12 -28v-60q-8 -8 -8 -32l-32 -16h-8l-12 4v-4q0 -24 -36 -24h-4q-8 0 -8 20l-4 4h-8l-12 -40v-4l12 -12h8l36 20h8l24 -20q8 8 8 36l24 12q14 -52 40 -52h8v4q0 26 20 104h4 l12 -36v-44l-8 -12v-60l-16 -56l4 -36l-4 -4h-12l-12 12v4l4 28l-4 4h-4q-13 0 -20 -40q-12 -4 -12 -24v-136l-8 -8l-12 4l-4 -4v-4q0 -20 24 -40v-220l-8 -12v-12l8 -12l-20 -24q20 -14 20 -36l4 -24q-16 -21 -16 -64l12 -28v-16l-16 -24h-12l-16 12l-12 -8l-4 4v60l4 16 l-4 16l24 8v40h-12v-20l-8 -8q-5 46 -12 52v16q0 31 -12 64h-4q-12 -12 -44 -16l-4 -4h-8l-12 8h-4v-20q0 -11 -44 -20q-11 -26 -40 -60v-24l4 -4v-4l20 4h8l8 -8l-4 -20l4 -24v-4q0 -8 -16 -8v-24l-16 -24l-4 4v52l8 12v4h-12q-14 -72 -24 -72h-16l-8 8v32h-12 q0 -16 -8 -16zM127 84h12v24h-12v-24zM143 176l12 -12h8v24l-8 12v36h-4l-8 -8v-52zM151 720l8 -8l4 4v40l-8 8h-4v-44zM163 840h12v12l-8 8h-4v-20zM167 344l20 4l4 140v116l-8 8h-8v-84l-8 -12v-4l8 -12v-32l-8 -12v-112zM167 1056q12 0 12 -8v-20h12l-4 40h-4 q-16 -6 -16 -12zM167 1124l8 -8h4v20h-4l-8 -8v-4zM179 236l8 -8h4l8 16v8l-8 8h-4zM211 796q0 -41 16 -112l-12 -12v-40l8 -12v-56l4 -4v-4l-12 -4q12 -15 12 -72l-4 -52h12l4 60v36l-4 32l4 32l-4 60q16 5 16 36v8q0 14 -16 32v124l-16 28h-4l-4 -20v-60zM211 924l8 -8 l4 4v4l-8 8h-4v-8zM211 1056h8l8 8v16h-12l-4 -20v-4zM215 1448h8v8h-8v-8zM223 36v4l8 8l4 -4v-4l-8 -8zM223 1116l8 -8q24 35 40 80v24h-12q-8 -16 -8 -48l-28 -40v-8zM223 1184l4 -4h4l16 36v56l-8 24h-12zM243 88l8 20l-4 36v4l24 16h4l12 -8h8v28l8 8h16l4 -4h4l-4 -20 v-108q-14 -52 -20 -52l-8 8v20h-8l-36 -28l-4 4v60zM247 260h12v16l-8 8h-4v-24zM247 1044h12v12h-12v-12zM259 500h12v28h-12v-28zM263 84l12 -12h8l4 20l-4 4h-8zM263 116l8 -8h4v20h-4l-8 -8v-4zM263 548h12v12h-4l-8 -8v-4zM263 764l8 -8h4v20h-4l-8 -8v-4zM263 920 l8 -8h4v36h-12v-28zM283 296h12q0 23 12 40v24l-8 8h-4q-12 -38 -12 -72zM287 1148l8 -8h4v28l8 12v28l-12 12q0 -24 -8 -32v-40zM295 504q13 -13 16 -44l4 -4h8v16q0 56 -24 56l-4 -4v-20zM295 876h12v12h-12v-12zM307 1020l8 -8l4 4v16h-12v-12zM319 548h12v16h-12v-16z M319 608h12v48l-12 -12v-36zM319 768l4 -28h12v24l-4 40h-8l-4 -28v-8zM319 1200h12v12l-8 8h-4v-20zM331 196v16l8 8l8 -8v-16l-8 -8zM331 424q6 -16 12 -16h4l24 56l-12 12v20l8 12l4 144l-4 32h-12l-12 -52v-8q0 -14 16 -32v-4l-12 -16v-12l8 -12v-12l-8 -8l-12 8h-4v-20 q12 0 12 -8v-16q-8 0 -12 -68zM335 16v20l8 8l12 -12v-16l-8 -8h-4zM355 284h12v4l4 60h-12l-4 -60v-4zM355 804l4 -4h4l8 8v20h-12zM355 1548l8 -8l4 4v40h-12v-36zM359 968l8 -8h4q0 24 8 24h24v8l4 76q-3 35 -12 44v4q8 6 12 64l-4 68q-7 0 -16 64l-4 4h-4l-8 -8v-4 l8 -12l4 -84q-16 -116 -24 -128v-4l8 -12v-20l4 -48l-12 -12v-16zM379 1036v20l8 8l4 -4v-20l-8 -8zM451 948v24l8 12l4 -4h20l28 4l4 -12q0 -28 -8 -28h-8l-12 4v-4q0 -20 -8 -20zM511 712l12 52l4 84l8 8v92l-8 12v4q12 15 12 36l40 16h4l12 -12v-104l-12 -24l4 -24 q0 -36 -16 -36v-80l24 -28v-4l-20 -20h-48q-10 0 -16 28zM535 756l8 -8l4 4v16h-12v-12zM559 932l4 -20h4l8 8v24h-4zM587 744q12 11 12 32q8 0 8 12l4 4h4q10 -76 40 -76v-4q-11 -1 -16 -20l-16 -4v24l-4 4l-20 8zM635 892v8q12 14 12 48v24h8l12 -12v-48l-8 -12l8 -12v-8 h-8v8h-4v-12h-8v8q-12 0 -12 8zM647 1052v32q8 7 8 40l4 4h4l16 -16v-80l-8 -8h-4zM671 752v112l8 8h4l8 -8v-48l12 8l4 -4v-104h-8l-8 8v20q-20 0 -20 8zM679 948v12l8 8l4 -4v-28q12 0 12 -8v-4l-8 -16h-12zM683 788l8 -8h4v24h-12v-16zM707 692v24q24 0 24 16 q24 122 24 176l8 8l4 124l8 8v20l-8 12l8 12v28l4 156l-4 12l12 4v40l16 52v4l-4 12l4 20v36l-8 8l-16 -4v4q20 55 24 104l-4 44q-20 0 -20 8l8 8l20 -4l8 8h248l12 -12v-52q-9 -20 -20 -20v-4l20 -20v-1296l4 -24l-4 -20v-164l-12 -12h-108l-12 -8q-6 8 -44 8l-4 4v72l-8 8 h-4q-12 -33 -12 -64v-12l-8 -8l-12 12v16l16 68l4 4q0 13 12 28v4l-32 40v32l-4 40h-12l-8 -16v-108l-8 -8l-28 44h-4v-28l24 -28v-16q-32 -8 -32 -32q-3 -48 -12 -48l-4 4v52l12 16v56q-12 15 -12 56v72q0 8 12 8v20q-12 15 -12 28v80l4 16l-4 28v224q0 12 -52 16z M715 1272v4l4 20h8v-20l-8 -8zM719 908v32l8 8l12 -16v-36l-8 -8zM727 1340v4l8 8l4 -4v-8h-12zM771 1360v8h4v-8h-4zM775 420h4v12h-4v-12zM775 1436v4l8 8l4 -4v-8h-12zM779 236h12q0 19 8 28v8l-12 12l-8 -8v-40zM787 16l24 24v52h4q8 0 12 -40l8 -8v-24l-12 -12h-28z M791 356h12v16h-12v-16zM811 392h12v4l-8 8h-4v-12zM811 644h20l40 24q5 -44 16 -44h8v8l-8 12v48h-4l-72 -36v-12zM815 480l8 -8h4v8h-12zM827 1424l12 -12q14 0 32 16h36l20 -4l4 4v4q-61 22 -68 40l44 56v8l-8 8q-36 -33 -36 -44q0 -12 -36 -48v-28zM835 368h12v52l-8 8 h-4v-60zM847 828l8 -8l4 4v28h-12v-24zM851 920h8v8h-8v-8zM863 1116l8 -8l4 4v28q20 3 20 12h-20q0 -12 -12 -12v-24zM871 1164h12v24h-12v-24zM875 500h12v20l8 12v4l-12 12l-8 -12v-36zM875 852l8 -8l4 4v48h-4l-8 -8v-36zM883 1008h12v48l-8 8h-4v-56zM919 1248 q0 -14 68 -32l20 -20v32q0 8 -32 8q0 8 -48 16l-4 4h-4v-8zM955 1528l16 -16l8 8l4 -4h4l28 16l4 4v32h-32q-32 -16 -32 -24v-16zM971 728l12 -8q0 8 12 8v12h-12zM995 1460l12 -8h4l16 16l-8 8q-24 -8 -24 -16zM1015 908h4q24 0 24 24l-4 12l12 4v12l-8 8q-28 -16 -28 -48 v-12zM1051 1296h12l-8 8h-4v-8zM1231 1032v4l8 8h4l16 -16l-8 -8h-8zM1275 940l8 8h4l8 -8l-8 -8h-4zM1351 968l4 4h4l8 -8l-4 -4h-4zM1363 1292v4l12 12l4 -4v-4l-8 -8h-8z" />
<glyph unicode="I" horiz-adv-x="512" d="M67 1620v4l44 40q13 -32 20 -32h256l8 -8l-72 -28h-40l-8 -16v-8l32 -32q36 37 88 56l16 32h8l8 -8v-472q0 -21 20 -24l32 -84l92 -40l4 -4v-4q0 -48 -16 -48h-20q-17 0 -52 36l-12 -12v-68q-36 -80 -36 -100l-12 -36v-744l-12 -12h-228l-12 -8l-12 8h-44l-12 12v472 l24 20v16l-20 -4l-4 4v600q0 8 20 8l4 4v16q0 8 -20 8l-4 4v340q0 44 -40 112zM143 320l8 -8h12v12h-20v-4zM143 1404h28l40 24q0 10 -16 12l-52 -28v-8zM167 1148l12 -8h4l8 8l-12 12zM179 68l8 -8h24l48 16q0 8 28 8l8 8q10 0 16 -36h20q0 28 28 28v8l-12 16v4 q12 14 12 76h-12q-9 -8 -28 -8l16 -20v-4q-33 -56 -60 -56l-36 -4q0 -9 -60 -24v-4zM187 724l16 -16h4q32 11 52 32h40l12 -8h12v8l-24 24h-16l-12 -8q-12 0 -12 24q-12 0 -12 8v8q100 125 100 148v36h-4q-8 0 -8 -24q-25 -29 -44 -76l-40 -36q0 -30 -44 -68h-20v-52z M227 188h12v12h-4l-8 -8v-4zM283 540q12 -24 96 -40v16q0 12 -80 28l-4 4h-12v-8zM311 1200q10 -13 12 -36h8l4 20l-4 24q16 4 16 24l-16 12q-7 0 -20 -32v-12zM347 440h20v16h-8l-12 -12v-4zM359 792h20l24 24l-12 12h-16l-16 -16v-20zM383 720h20l12 24l-12 8l-20 -24v-8z M391 1260h12l-8 8h-4v-8zM587 312v4l4 4h4l4 -4v-4l-4 -4h-4z" />
<glyph unicode="J" horiz-adv-x="887" d="M31 88l44 32l-24 24l28 28v4l-4 48l12 4v32q3 24 12 24h28l12 -8h100q74 28 92 72q20 31 28 96l4 4v772q-22 63 -44 100q7 16 44 32v284l8 8h136l12 8l8 -8h144l8 -8v-160l8 -12l-8 -12q40 -36 40 -80q8 0 8 -28l28 -20l4 4h4q62 -26 68 -44v-24q-17 -28 -24 -28h-8 q-17 0 -56 40h-4l-12 -12v-56q0 -42 -36 -120q0 -28 -12 -44v-488l-4 -160q-12 0 -12 -72q-7 0 -24 -84l-52 -92q-65 -95 -204 -132q-58 -4 -64 -12h-180q-8 8 -36 8l-40 16l4 20v20l-4 4zM91 152l12 -8h8l4 12l-12 8zM139 72l20 -4h40l12 -8h4l28 12l-12 12h-80zM303 96 l4 -12h24v8l-12 12h-4zM355 320l8 -12l12 4v12l-8 8zM363 44h12q16 45 16 88v8q0 21 -12 24h-4v-24l-8 -16zM379 1304l16 -16l4 4h4l12 -8h8l4 20l-24 12h-12zM391 1380l20 -20h4q12 3 12 32l-12 8h-12l-12 -12v-8zM399 1176h12l72 24l16 16v8h-8l-28 -4l-16 16l-24 -4 l-24 4v-4l4 -4v-4l-4 -44v-4zM403 804h8v-4l12 4v8l-12 12l-8 -12v-8zM411 272l12 4l-8 8h-4v-12zM423 420q0 -16 52 -16h8q0 32 40 32q0 7 20 8h56l8 8l-12 12h-44l-4 4q-41 -24 -92 -32l-4 -4q-13 0 -28 -12zM427 900q13 -26 40 -36h48q14 12 52 12l4 -4h4l16 4h16v12 l-16 8h-80l-12 -8h-16l-20 16q7 0 12 20h8v12h-20q-36 -22 -36 -28v-8zM447 160l8 -8h12l16 16v12h-28l-8 -8v-12zM447 732l4 -12h4l8 8l-8 8l-4 -4h-4zM463 548h20v4l-8 8h-4l-8 -8v-4zM475 984h16l8 8l-4 16h-8l-12 -12v-12zM511 1100l12 -8h20v8l-12 12h-8zM531 192 q2 -16 32 -16q15 14 40 16q0 11 12 24l-8 8q-15 -12 -28 -12h-32q-16 -8 -16 -20zM535 552l12 -12l8 12v8l-12 12l-8 -12v-8zM535 1356q39 -13 40 -20l4 4h12l4 -4h4q0 8 48 36l4 4v4l-12 8l-12 -8q-14 12 -48 12q0 -10 -40 -20l-4 -4v-12zM559 1200h12v12h-12v-12z M603 1616l4 -20h8l4 20h-16zM615 1040l4 -20h20v20l-12 12h-12v-12zM627 1080h8l8 8l-8 8l-8 -8v-8zM631 1176l12 -12v12h-12zM843 532v4l4 4h4l4 -4v-4l-4 -4h-4z" />
<glyph unicode="K" horiz-adv-x="1152" d="M71 1268q15 39 24 40l4 -4h4l8 12v284l12 12h36l8 -8v-4l-8 -12q12 0 12 -12h8q13 36 20 36h12l16 -24l-8 -12l12 -20l-4 -84l8 -8l8 8v128l12 12h4l8 -8v-76h12v72l12 12h92l12 -12v-36h20l8 -8v-52l8 -12l-16 -72q-7 0 -8 -68v-28q0 -22 24 -48v-88q32 0 32 -60l16 -40 v-20l-8 -8l-4 12h-12q-10 -40 -16 -40q-20 0 -20 -44h12v20l12 12l24 -24l4 4h4l8 -8v-20l20 4v-4l12 4v56l4 24l-12 36v8l8 12v44q0 15 36 60q0 16 28 48l36 76q9 48 44 48l4 -4v-8l-28 -16v-16l16 -8h8l12 8l4 -4v-4q-2 -37 -12 -48v-12h12q13 59 32 84v8l-8 12v68l8 12 l-8 8v24l12 28l-4 48q6 16 12 16l4 -4v-76l4 -4v-4l4 4h4l8 -8v-52l-8 -12v-28l8 -12v-20l-8 -12v-20q20 0 20 -8l-24 -4v-48l-12 -24l4 -12l-4 -4h-8q-24 14 -24 24q-28 -17 -28 -24q0 -8 12 -8q7 -22 20 -32q5 20 12 20q18 -8 20 -16v-20h12q0 12 8 12l4 -4v-40 q0 -8 -16 -8l-8 -20l8 -12v-4q-12 -15 -12 -36v-16l4 -28l-16 -16v-60q-7 -24 -28 -24l-8 -12v-12h16q0 12 8 12l4 -12l-4 -20h4l12 4v-4q-16 -32 -16 -56l-12 -12v-44q0 -20 24 -28v-64q0 -8 -32 -24v-24l8 -12v-40l-8 -12v-64l-12 -16v-28l-4 -176l12 -24h12l4 20v16 q-16 0 -16 8v20q28 26 28 44l-4 4v4l4 4h4l16 -4v24l-20 40l20 16l4 24v44h-12q0 -24 -8 -24l-8 12v24l8 8q8 0 8 -12h4q8 0 8 32l8 8v164q0 8 -24 16v4q3 64 20 64q8 -66 28 -80v-72l-12 -16v-36h12q17 84 24 84l4 -4v-40l8 -12v-16l-20 -48v-32l-4 -16l4 -16v-4 q0 -13 -12 -28v-24h12l28 164l4 24l4 4h4q29 -56 100 -240l16 -56q12 0 12 -16l36 -84l12 -8h84l8 -8l-48 -68q0 -8 44 -8l4 -4v-4l-36 -48v-12q0 -14 36 -96l-8 -8h-56l-8 8v80h-12l-16 -84l-4 -4h-4l-8 8v28l16 68q8 0 8 20v24q-24 0 -24 8v40q0 44 -12 44h-4l-8 -24v-112 l8 -12v-124l-20 -24h-4q-18 0 -24 68q15 2 24 24v40l-8 8h-4q0 -12 -16 -12q-8 -22 -8 -80l-4 -4h-4l-12 12h-4l-8 -20v-56l-8 -8q-21 23 -44 76l-12 8h-52q-15 16 -88 232l-76 216q7 64 28 64v8h8v-12h16v16l-4 68l4 64l-4 52q4 49 12 56l4 112l8 8v32q-12 17 -12 32l12 4 v32l-12 12l-12 -16v-52l-16 -24l-4 4v8l8 12v12h-12q0 -20 -8 -20h-4l-24 20v24h-12v-128l20 -16h4q13 0 16 56l12 16l4 4h4l12 -28v-24l-8 -12v-36l-16 -92l12 -24v-16q-17 -20 -28 -52h-8l-8 8v4l8 12v48l4 28l-4 4h-4q-7 0 -28 -40l-12 -12v-4q20 0 20 -8v-16l-8 -12v-20 l8 -12v-40l-8 -8q-37 108 -48 116l-12 -8q-5 20 -12 20h-4v-24l-8 -12v-32l-40 -80l-12 -12l16 -60v-84q0 -8 -16 -8l-12 -68h12q4 32 12 32l4 -4v-24q0 -29 -32 -56h-8v-12q25 0 40 -48v-40l8 -12v-4l-8 -12v-20l8 -12v-4l-8 -12v-56l-8 -8l-8 8v20h-8l-36 -24l-4 4v64 l-8 12v4l12 12l-4 28v68h-12l-12 -40q0 -28 -8 -36v-8q12 0 12 -8l-4 -20l4 -24v-4q0 -8 -16 -8v-24l-16 -20l-4 4v40l8 12v4h-8q-9 0 -20 -60l-4 -4h-20l-8 8v32h-12q-10 -40 -16 -40h-12l-8 8v92l-12 36h-4l-8 -8v-40l-12 -40h-4l-8 28h-4l-16 -24v-16q36 -10 36 -16v-12 l-8 -8h-40l-12 12v48q0 8 24 16q12 15 12 36v44h-4q-6 0 -16 -52l-4 -4h-4l-8 8v32l-4 16l4 28v204q0 8 20 8q0 16 12 16v72l-8 8h-4l-8 -20v-40l-8 -8l-4 4v560q8 8 8 32l4 32l8 8v20q-12 15 -12 32q0 46 12 60q-8 0 -8 20h-12v-40l-8 -8q-8 16 -8 44v8q16 15 16 32h-12 q0 -16 -8 -16q-9 0 -20 68zM123 220h12q0 19 8 28v16l-12 12l-8 -12v-44zM131 180q0 -28 36 -28l4 -4h20l24 20v4l-12 12q-18 0 -36 -12h-12l-16 12h-8v-4zM135 1528h4l8 8v4h-12v-12zM143 672l4 -4h4l8 28l-4 28v24q0 30 24 96v60l-8 12v12l12 16v56h-12q-16 0 -16 -104 q-8 0 -8 -12zM171 300q24 0 24 40q6 32 32 32q37 8 40 20v8h-4l-56 -16l-24 24h-4l-8 -8q12 -15 12 -28v-32l-12 -16v-24zM171 1156h12v24h-12v-24zM171 1540l8 -8l4 4v16h-12v-12zM179 496l4 -4h12q0 24 8 24l4 -24h12l8 20l4 104v4l8 12v8q-8 5 -12 68l12 4v32l4 40 q-16 5 -16 36v84h-12v-40l-12 -16v-44l-12 -24l4 -68l-4 -116l4 -16h-12v-56zM195 576v4h4l8 -8v-4h-4zM195 976l12 -12q0 12 44 12h4l-4 32q15 20 20 60q23 0 32 28q24 10 24 32v4q-76 -14 -76 -88q-10 0 -12 -36q-21 -21 -40 -24l-4 -4v-4zM195 1240l8 -8h4v8h-12z M195 1324q17 -44 28 -44l4 4v12l-12 16v8q0 13 44 20l4 4h40l28 -16l4 4v36l-12 12h-8q-18 -12 -36 -12l-4 4v4l4 4v4l-4 4h-4l-24 -20h-4l-36 52h-12v-96zM239 64h12v24h-12v-24zM255 148l20 -4q0 11 12 24v4q-20 0 -20 12v24h-12v-60zM263 712l8 -8l4 4v28h-12v-24z M275 832l8 -8l4 4v4l-8 8h-4v-8zM279 340l12 -12l8 8l4 148v60q0 44 -12 44h-4v-144l-8 -12v-92zM279 1036q14 0 16 -32h4l4 4v4q-2 32 -12 32h-4zM287 1492h12q0 12 16 12v12l-28 -4v-20zM299 228h12v4l-8 8h-4v-12zM323 808l4 -108l8 -8v-32l-8 -12v-52l12 -44l-4 -16 l4 -88h12v68l-4 32l4 32l-4 44l12 20v40q-12 15 -12 28v96l-8 12v20h-4l-12 -12v-20zM323 1048l4 -12h8l4 20v4h-8q-8 0 -8 -12zM335 16v4l8 8l4 -4v-4l-8 -8zM335 420h12v16h-12v-16zM335 1168h12q2 23 12 36v44l-8 24h-4l-8 -8zM359 240h12v16l-8 8h-4v-24zM371 472h12v36 h-12v-36zM375 64l12 -12h8l4 20l-4 4h-8zM375 88h12v20h-4l-8 -8v-12zM375 528h12v12h-4l-8 -8v-4zM375 736h12v20h-4l-8 -8v-12zM375 904l8 -8l4 4v28h-12v-24zM395 136h12v24l-8 8h-4v-32zM395 596l16 -16h4q32 13 32 32l-4 16h-12q0 -15 -36 -24v-8zM399 1120h12v36l8 12 v20l-12 12q0 -28 -8 -36v-44zM407 864l4 -20h8v24h-12v-4zM423 772q8 -8 12 -48h12v20q0 26 -12 52h-12v-24zM431 820l8 -8l4 4v40h-12v-36zM467 784l4 -4h4l8 8v20h-12zM491 824l8 -8h16v36l-12 12h-12v-40zM491 1020v16l8 8l4 -4v-20h-12zM519 900h8v8h-8v-8zM555 976h12 v32h-4l-8 -8v-24zM563 860v12l8 8l4 -4v-12l-8 -8zM567 1020q12 0 12 -12l4 -4h4q4 28 24 72v32l-8 12v20q0 72 -12 72h-4v-36l-8 -12v-40l8 -12v-16l-16 -48l-4 -4v-24zM599 424l4 -28h8q12 0 12 16l4 68h-4l-24 -8v-12q16 0 16 -8q-16 -6 -16 -12v-16zM627 1156h8v-4l12 4 l-8 8h-4zM647 712l12 -8l4 4v4q-2 32 -12 32h-4v-4l4 -16zM719 1472h4l8 8h-12v-8zM735 1580v20l8 8l4 -4v-20l-8 -8zM743 1296v8l8 8l4 -4v-12h-12zM755 948q3 45 16 56v16q0 22 -16 28l4 28v32q6 6 16 84l8 28q8 0 8 12l4 172q9 0 12 20l-4 20l4 64v32l8 12v16l4 76l-8 56 q5 19 24 32q9 0 20 -40v-48l-4 -180l-8 -8v-52l-4 -16l4 -4l-4 -20v-44l-8 -12v-28l8 -12l-12 -12v-68l-8 -24h-12v12h-4q-12 0 -12 -52v-44l-8 -12l8 -8v-16l-8 -12v-16l8 -12q-12 0 -12 -36q-8 0 -8 -16l-4 -4h-12zM779 1536v20l8 8l4 -4v-24h-12zM803 1056v4l4 88l4 4h4 l12 -32q-12 -14 -12 -48v-16h-12zM863 12h12v16l-8 8h-4v-24zM863 352l4 -4h4q16 28 28 28l-12 12h-8q-11 0 -16 -36zM867 64l20 -4v60l-12 12l-8 -8v-60zM879 1232v20l8 12v24l-8 12v4q0 8 12 8v24q12 15 12 36v72l-16 4l16 88l-4 48l28 8v8h-8v8q42 0 60 44l4 4h4 q23 -44 48 -44q24 0 24 -8l-4 -4l4 -12l-4 -32l20 -48l-4 -4h-12l-12 8h-12q-13 0 -28 -48v-16q64 -95 64 -112l-4 -4l-48 4h-36l-12 8h-24q-13 0 -60 -116h-4zM891 216h12v48h-4l-8 -8v-40zM903 336h12v16h-12v-16zM983 1496l12 -12l24 32l-12 8l-24 -24v-4zM1079 1168l8 8 l8 -12l-8 -8zM1079 1264v4l8 8h4l12 -12l-12 -12zM1151 1160l8 8l8 -8v-8h-8zM1311 1436v4l4 4h4l4 -4v-4l-4 -4h-4z" />
<glyph unicode="L" horiz-adv-x="872" d="M71 1304q15 28 44 28v284l12 12h84l36 4l4 -4h4l16 4l32 -4h8v4l28 -4h80l12 -12v-204q40 -40 40 -92l4 -4q0 -43 88 -68l20 -24v-24q-13 -36 -20 -36h-20q-17 3 -48 48l-16 -16v-52q0 -68 -36 -144q0 -39 -12 -52v-664l12 -12h112l20 4l24 -4h68l12 -8h12l12 8h108l28 4 l8 -12v-252l-4 -4v-4l-20 4h-236l-12 -8l-8 8h-116l-12 -8l-12 8h-252l-12 -8q-6 8 -44 8l-4 4v1180zM151 1604q7 -8 40 -8l8 -12l-4 -12l4 -4h8q8 0 8 32l8 8l-12 8h-48zM167 1544l8 -8h4v20h-4l-8 -8v-4zM175 1496h4q24 0 24 24h-12l-16 -16v-8zM199 92h12v12zM215 932 l12 -12l20 4v8l-20 44q9 19 28 28h8l12 -8h44l4 20l-4 4l-28 -4h-28q-32 20 -32 56l-4 4v8l8 12l-4 4q4 42 16 52v8h-12l-20 -20v-208zM223 164h12v12h-12v-12zM223 1416h12v4l-8 8h-4v-12zM235 1516l8 -8h4v12h-12v-4zM251 260l24 -24h8v8l-8 12q0 20 80 20l12 -12h12 l12 12v12h-4l-20 -4l-12 24l-28 -12l-4 16h-8q-8 0 -8 -12l-4 -4h-4l-32 44l-4 4h-4l-8 -12v-72zM255 1384l8 -8l8 8l-8 8zM283 1400h8v4l-8 8v-12zM287 1592h20v12h-12l-8 -8v-4zM307 48l12 -12q0 15 36 24q0 28 60 72v8l-12 12q0 -12 -36 -12q-60 -52 -60 -72v-20z M595 372v4l4 4h4l4 -4v-4l-4 -4h-4zM607 180q2 -15 84 -36l40 -36h16l12 8h4l12 -8l4 20v64q0 21 -12 24q-17 -16 -40 -16h-12v-8q0 -12 28 -12l8 -12l-4 -4h-4q-59 0 -112 24h-24v-8zM635 316v4h8v-4h-8zM655 88l8 -8l8 8l-8 8zM719 520v4h8v-4h-8z" />
<glyph unicode="M" horiz-adv-x="1516" d="M76 20v16l8 16l4 156l8 8v4l-8 12v8l8 12v160l-8 12v104l8 12v232l4 148q8 0 8 12l4 96l8 8v8q0 100 24 100q16 14 16 28v40l8 12l4 164q8 0 8 12l4 156l8 8v52l12 12h108l12 -12v-48h12v48l12 12h64l20 -20h4q0 13 24 24l28 -4h32q17 0 36 -136v-12l-28 -16l-4 -4v-4 l8 -12v-20h4l28 12h4q8 0 48 -208q0 -14 68 -76v-4q0 -94 36 -200v-52l4 -20q-16 -6 -16 -28v-8l4 -44l-4 -4l4 -16q20 0 20 -8v-4l-8 -12l12 -12l8 8v48l8 8q8 -65 16 -72v-60h8l12 8l4 -20h12q25 129 36 144q28 84 28 132v52q7 9 20 100l68 300q25 123 36 124h4v12l-8 12 v4l20 76q15 12 40 12v4l28 -4h72l20 4l24 -4h44l40 4l8 -12v-132h12v68q12 10 12 36l8 28l12 8h4q16 0 16 -76v-52l8 -12v-72q-20 -47 -36 -64l4 -32q-3 -40 -12 -40l-4 4v24h-12v-48q24 0 24 -12v-52l-8 -12l4 -16l-4 -12h-4l-12 8h-8v-28l8 -12v-8l-20 -40q12 -17 12 -32 l-12 -24q4 -15 32 -20v-48l-8 -8l-4 4v44h-12v-128h12v28l8 8l4 -4v-68l-8 -12l8 -12v-80l-8 -8l-12 12v16l8 12l-8 12l8 12v20l-8 12v36q-24 0 -24 24q-12 0 -12 8l-4 64l4 100l-4 84l-8 8v44q-16 16 -16 64l4 16q-12 0 -12 8v4h12v52l-8 8h-8l4 -40v-20h-16v-100l-8 -8 l-12 12l8 12v32l-12 12q-12 -33 -12 -84v-32l4 -32l-4 -44v-188l-8 -12l-4 -104l-8 -8v-24l8 -24l20 4l8 -32l-4 -12q6 -16 12 -16l4 20v40q8 6 8 44l12 12h4l8 -8q-11 -10 -16 -56l-4 -4v-16l8 -12v-24q-8 -7 -12 -60q-8 0 -12 -28q0 -52 32 -80l16 24v48l4 104l-4 16 l20 40q16 -6 16 -12v-36q-12 -15 -12 -56v-64q-12 -15 -12 -28v-104q16 0 16 -8l-12 -4q0 -98 -12 -108v-56l-8 -8l4 -20v-4q-16 -32 -24 -32h-4l-12 8h-8v-8q0 -29 24 -48h4q0 20 8 20l12 -12v-32l-20 -36l8 -12v-4l-12 -12h-44l-12 12l-4 160l-8 8v8q0 76 -28 196 q-14 0 -36 -80l-4 -4h-12l-4 4h-4l4 20v48l8 12v16h-8l-16 -12l-12 12v32h-12q-32 -89 -80 -300l-12 -8l-16 56h-12v-20l-8 -12v-12q0 -7 36 -32q-22 -89 -60 -112h-16q-12 12 -76 12q-7 9 -68 12l-28 -4l-32 12l4 28v16q0 8 -12 8l-4 4v28q-20 0 -20 16h-4l-20 -4l-4 4 q5 41 12 48v40q-8 7 -44 176q-60 232 -124 552h-12v-64l-8 -16l-4 -140q-8 0 -8 -12l-4 -100q-8 0 -8 -12l-4 -84l-8 -8l-4 -108l-8 -8v-84l-4 -44l4 -4l-4 -28v-60l-8 -12v-68q0 -88 -20 -88l-20 -8h-4l-12 8h-40l-12 -8l-8 8h-64l-12 -8l-8 8h-64zM112 56q0 -7 28 -12 l20 12l-4 12h-20l-24 -8v-4zM144 212h12q0 52 28 52q44 15 44 24v8h-12q-15 -12 -44 -12l-16 4l-12 -32l4 -24v-12l-4 -4v-4zM184 752q0 -7 36 -12q44 5 44 16v8h-40l-8 8q0 28 12 44v16q-8 7 -8 40l-20 12l-8 -12v-68l8 -32zM184 1016l24 -8l8 12l-12 8h-8zM220 56h12v12 h-4l-8 -8v-4zM228 784q0 -8 12 -8l12 4v12h-16zM240 716h12v12h-12v-12zM328 1052l8 -8l12 12v56h-12v-20l-8 -12v-28zM336 480l12 -12l12 12v12h-16l-8 -8v-4zM348 996h12v12h-12v-12zM364 1412l12 -8l8 12v8h-8zM372 1012l4 -20h12v28l16 20l4 -20h12v16l-8 12l8 12v20h12 v12h-12v-12h-12q-8 0 -8 12h-16l-8 -24v-12zM372 1176h12q0 11 16 20q0 24 8 32v16q-6 16 -24 20l4 48v20h-12l-4 -60v-96zM384 1100h8v4l-8 8v-12zM388 1436l8 -8h4v24l8 12h-20v-28zM396 1500h12v24h-12v-24zM408 980h12v24h-12v-24zM408 1320l16 -16l8 8l-16 20h-8v-12z M408 1376l24 -20l16 16v12q0 7 -24 12v20h-12zM420 1448h12v16h-12v-16zM444 1068l4 -4h4l8 8v36l-8 8h-4v-20zM456 1428l12 -12h4v16l-8 8l-8 -8v-4zM460 872l8 -8h4v20h-4l-8 -8v-4zM460 1236l12 -12h8v20l4 28h-8l-16 -24v-12zM472 1320q8 -9 8 -28h12v12l4 44l-8 20h-8 l-8 -16v-32zM480 1560l12 -12l12 12q-9 0 -12 20l-12 -12v-8zM508 1148l8 -8h4v20h-4l-8 -8v-4zM532 1268l12 -16v-20h12q0 19 8 28v12l-16 8h-4zM540 1344h12q0 12 12 12v16l-4 20h-4l-16 -16v-32zM568 404h12v4h-12v-4zM628 48v12l8 8l4 -4v-12l-8 -8zM684 936h12v12h-4 l-8 -8v-4zM696 56h12v16h-12v-16zM720 200q12 0 12 -12h16q-3 12 -16 16v8zM760 528l8 -12v-28h12q16 85 16 132h-4l-32 -80v-12zM856 68h8q13 0 16 52l-4 36h-12v-40l-8 -12v-36zM924 696h12v8h4l-4 12l-12 -12v-8zM928 248l8 -12v-20h12v56l4 48h-4q-9 0 -16 -68zM960 420 h12q0 12 8 12h20v64l8 12v44q0 13 12 28v28l-20 -12zM1032 512h12v12h-12v-12zM1056 1152h24l12 12v8h-24l-12 -12v-8zM1072 636q27 -72 32 -72q13 12 24 12v116l-8 12l-4 336v24h-12q0 -30 -20 -32v-4l12 -12l-4 -28q0 -28 12 -44v-48l-8 -16l-16 -164l-8 -8v-72zM1092 548 q4 -66 20 -116h8v68q0 29 -16 60zM1096 1316l8 -8h4v20h-4l-8 -8v-4zM1108 1256l8 -8h4v12h-12v-4zM1116 1356h12l4 68h-4q-9 0 -12 -68zM1164 784v4l4 4h4l4 -4v-4l-4 -4h-4zM1168 1556l12 -12h8v12l-12 12zM1180 1048v60l8 8l4 -4v-60l-8 -8zM1192 852v72q8 8 8 36l12 8 q8 0 8 -12l-8 -24v-36q-8 -6 -8 -44l-4 -4h-4zM1204 760v8l8 8h4v-12l-8 -8zM1204 792v8h12v-4l-8 -8zM1204 988v4l4 4h4l4 -4v-4l-4 -4h-4zM1216 440q8 -8 8 -32l12 12q-8 0 -8 24h-12v-4zM1220 252h8v8h-8v-8zM1224 800h4l20 4l4 -4v-16l-8 -8h-4q-16 8 -16 24zM1224 1592 l12 -8l12 12l-12 8zM1236 1532h4v12h-4v-12zM1240 124v12l8 8l12 -28v-8h-12zM1252 20v4l28 36l4 -16h12l4 28v24q9 20 20 20v24l4 60q-16 6 -16 12v12h4l12 -8h8l4 184l8 8v4q0 64 12 76v16q-12 0 -12 8q0 47 12 64v16q-12 14 -12 60q0 23 12 40v408h-8l-12 -8l-4 4l4 48 v12l8 12v88q0 20 20 36l4 -4v-4l4 -188l8 -8l4 -192l8 -8l4 -188l8 -8v-52l4 -60q-4 -48 -12 -56v-156l-16 -104v-28h12v12q16 53 16 108l4 4h4l4 -4v-44l8 -16l4 -172l8 -8v-96l-12 -12h-80l-12 -8q0 8 -44 12l-4 12h-12q0 -16 -8 -16h-4zM1252 64v20l8 8h4v-24l-8 -8z M1264 212v8q0 8 12 8v8l-4 20l4 4h4l4 -4v-20l-4 -16l8 -24l-4 -4h-4zM1272 288l4 100q12 3 12 32v68l8 12l4 156v12l16 16l8 -24v-72l8 -12v-4l-12 -16v-64l-8 -12l-4 -116l-20 -4v-28l8 -12q0 -8 -12 -8v-28l-8 -8zM1272 760v4l8 8h4v-8l-8 -8zM1284 120l4 28v24h8v-56h-4 l-4 4h-4zM1284 1424l12 -8l24 12v8h-8v4q-28 -7 -28 -16zM1288 228v4h8v-4h-8zM1300 232h8v-8zM1312 1520l8 -8h12v12h-20v-4zM1324 884v16l8 8l4 -4v-28h-4zM1332 984v60l8 8l4 -4v-56l-8 -8h-4zM1348 1360v4l4 4h4l4 -4v-4l-4 -4h-4zM1404 164q3 -32 12 -32h4v12l-4 20 h-12z" />
<glyph unicode="N" horiz-adv-x="1267" d="M56 1180l4 96l20 16h16q24 -14 44 -96h12l4 40v44l8 12l-8 12v92l8 12v12q0 86 32 196q36 28 64 28l124 -16h120q9 0 12 -52q6 -1 128 -316q132 -323 252 -664q16 -29 16 -52l4 -4h8l-4 140v4l-8 12l-4 216l-4 4h-4l-4 400v300l12 12h160l16 -12l28 12h52l8 -8v-952 q0 -98 12 -108v-24q-12 -15 -12 -36v-120l-8 -12v-8l8 -12v-116l4 -20l-4 -24v-112l4 -24q-5 -44 -16 -44h-68l-12 -8l-8 8h-20l-12 -8l-12 8h-140q-19 15 -88 204l-84 196q-49 19 -76 92q-40 67 -72 176q-50 71 -84 196h-8l4 -148v-148l8 -12v-216q0 -84 32 -236l4 -4v-40 q-11 -28 -32 -36l-8 -20l-4 -4h-260l-8 8v664l-8 12v108q-32 43 -32 104l-4 4v12q0 141 -64 176q-48 38 -48 84zM228 104h8q44 29 48 40v8l-12 12h-20l-20 -12l4 -20l-8 -12v-16zM228 1472q0 -11 44 -16l4 -4h8l16 16v4l-12 12h-4q-18 -12 -36 -12l-8 12v20l32 68l-8 12 q-20 0 -36 -24v-88zM260 628l16 -16l8 12v8l-16 16h-8v-20zM296 500q39 -1 84 -20h16v4q-16 32 -52 32v8h-8q-40 -18 -40 -24zM308 1380h16v12h-16v-12zM360 1424h32v16h-32v-16zM368 1556h4q14 0 28 16h4v12h-16l-20 -20v-8zM392 1048l24 -16h12v12l-20 8h-16v-4zM408 56h8 q22 0 32 84l4 4h-20v-12q0 -19 -24 -72v-4zM432 1304h24v16h-12l-12 -12v-4zM452 348h4v12h-4v-12zM452 1596l12 -12h24l12 12l-12 8h-36v-8zM548 1236q18 0 24 -16v-8l-8 -12v-4h4l20 4l8 -12v-12l-8 -12v-68l-24 -16v-4l24 -20l-4 -40q15 -44 24 -44h12v8h4q-5 29 -16 40 v16q6 20 52 20v12q-29 0 -52 36l4 12l-4 32l4 48q-13 5 -36 48v4l8 12l-12 12h-8q0 -12 -16 -28v-8zM764 336h4l8 8v12h-8zM852 128l8 -8h4q36 16 36 44h-12q-36 -13 -36 -20v-16zM896 388q0 -8 44 -12l8 -8h16l20 16h20l28 -4v8l-16 16h-8l-12 -8l-16 32l60 76l-12 12 q-14 -30 -48 -64q0 -42 -76 -52zM992 936h8l24 -4l4 4h4l32 -12h4l12 12q-17 24 -56 24l-16 8h-4l-12 -12v-20zM996 1544l4 -4l20 -8l8 -24l-8 -12l8 -12v-32q0 -48 16 -48h8l4 16l-12 28v4l-4 60l12 8h4q14 -12 48 -12v16q-57 12 -76 32h-20zM1056 188q0 -20 72 -36l8 12 q0 14 -80 28v-4zM1128 92l12 -12l8 12l-12 12zM1136 448l8 -8h4l12 12v4l-8 8h-4l-12 -12v-4z" />
<glyph unicode="O" horiz-adv-x="1178" d="M43 812v52l4 24l-4 4l4 28v48l8 16q0 81 44 232q32 95 80 180q96 158 240 208q55 24 120 24h4l12 8h52l28 -12l-4 -20v-136l-8 -12v-8q8 -9 8 -28h4l8 16v68q12 10 12 36l4 4h4l4 -4v-32l4 -52q-5 -41 -12 -48v-60l8 -12l-12 -12h-8l-60 40q-109 0 -160 -144 q-48 -124 -48 -264v-4l-8 -12v-32l8 -12v-28l-8 -12q40 -22 44 -36q-15 -24 -40 -24l-4 -4v-100q8 -8 8 -36q44 -18 44 -56q0 -14 108 -32l8 -12v-8l-24 -24h-28l-32 20l-16 -12l4 -48v-12q0 -34 -12 -48v-28l-4 -24q28 -75 76 -100q11 0 44 -24h40q84 42 84 80 q48 69 48 124q8 0 16 68l16 24l4 92h8q2 -40 12 -40h4v44q7 16 24 16v68q12 15 12 28v96l8 12v48l-12 12l4 108v60l8 16l4 92l8 8l4 184v12q0 37 -16 52v96l8 8q84 -69 104 -112q71 -105 76 -172q8 0 8 -44q8 0 12 -28l-4 -4l4 -28v-124l-4 -24l4 -4l-4 -28v-48l-8 -16 l-4 -92l-8 -8v-4l8 -12v-12q-12 -16 -12 -52q2 -52 16 -52l16 12q8 0 8 -32l8 -8v-12l-8 -12v-12q24 -16 24 -52l20 -28v-28l-20 -36l-4 -68h4l16 -24q20 0 20 -8v-4l-12 -16l24 -24q-3 -36 -12 -36q-13 13 -16 44l-4 4h-4q-14 0 -36 -72q-22 -63 -100 -116q-8 0 -8 20l-4 4 h-12l4 -40v-4l-64 -68h-4q-8 0 -8 12h-8q-3 -52 -32 -52q-4 -12 -24 -12l8 52v60l8 12v4l-20 36q-58 -4 -64 -12l-20 20v4q13 24 36 24v12l-16 8q-26 -10 -28 -28l-32 -24v-44q-10 -27 -44 -56v-16l8 -8q9 8 28 8l24 68q7 0 12 20h8q84 -19 84 -24l-12 -20l4 -24l-4 -52 l4 -28q-16 -16 -64 -24q0 -6 -52 -20l-92 -4l-8 12v16q8 8 8 32l4 28l8 8v4q-6 17 -32 32h-4l-8 -20v-16l20 4l4 -4v-8q0 -23 -16 -40v-36l-8 -8h-4q-12 0 -12 40l-4 4h-8q-10 0 -16 -36h-24l-8 8v100h16v56h8l12 -68h12q0 64 12 76v12l-8 8l-12 -8h-4l-8 8v28q-20 0 -20 20 h-8l-8 -24v-92l8 -12v-4h-12l-8 8v36l-8 8q-10 0 -28 -40l20 -44v-4l-28 -48q-11 36 -16 36l-20 -20h-8q-161 90 -240 336q-48 161 -48 264l-4 4h-4zM127 -176l4 4h8v-4l-8 -8l-4 4v4zM151 -104l8 8l8 -8v-4l-8 -8l-8 8v4zM151 736h92l8 8v8l-4 -4h-20l-12 12v24l12 20 l-12 20v24l-16 8q-23 -20 -32 -48q-16 -2 -16 -12v-8h4l12 8h8q6 0 24 -36l-8 -12l-28 4h-4l-8 -8v-8zM167 308l20 -24h4q50 18 60 28v8q-20 0 -44 -16q-13 0 -32 16h-8v-12zM227 1000h8v12h-8v-12zM235 -120l12 12h4l8 -8l-12 -12h-4zM235 832h4l8 16h-12v-16zM239 1036 l8 -8h4l8 20v40l-8 8h-4v-24l-8 -12v-24zM259 980h4l8 8v4h-12v-12zM271 764h4v12h-4v-12zM275 700h8v12h-8v-12zM275 1144h8l36 28v68l-12 12l-8 -8l-4 4v4l4 64v12h-12l-4 -40v-80l-8 -12v-52zM275 1400l12 -12l8 12l-8 8h-4zM283 1004q5 -24 12 -24h4v32l8 12v52h-12 l-8 -24v-24zM299 1420l8 -8h4v32h-4l-8 -8v-16zM307 1484h12v24h-12v-24zM319 964h12v16h-12v-16zM319 1316l4 -28h8l12 12l-16 16h-8zM319 1364l24 -24l16 16q0 22 -24 24v16h-4l-12 -12v-20zM331 1064h4l8 8v4h-12v-12zM331 1432h12v16h-12v-16zM347 760l8 -8h4v24h-12 v-16zM355 1076l4 -28h4l8 8v20l-4 20h-8zM367 460h8l8 8l-8 8h-8v-16zM371 1216l12 -12h8v12l4 40h-8l-16 -24v-16zM383 1304l8 -12v-24h4q12 0 12 84v20h-4l-20 -24v-44zM391 1544l12 -12l12 12q-8 0 -8 12h-8l-8 -8v-4zM427 32v36l8 8l4 -4v-36l-8 -8zM431 1456 q0 -6 16 -12l-4 -20v-16h12q0 12 8 12h4l36 -24h8v12q-12 20 -32 20v52h-4q-8 0 -8 -20l-4 -4h-4l-24 4h-4v-4zM439 -312l4 4h4l4 -4v-4l-4 -4h-4l-4 4v4zM451 1324h12q0 18 16 24q-7 28 -16 28l-12 -20v-32zM523 1388h4q9 0 12 36l-4 36h-12v-72zM527 1520l12 -12v32h-4 l-8 -8v-12zM539 1588l8 -8h4l8 16l-12 8l-8 -12v-4zM547 1444l36 -32h4v8q0 31 -16 36h-12zM551 1388l8 -16h12l4 28l-12 8l-12 -12v-8zM607 20h4l8 8v28h-12v-36zM683 1496q0 8 20 8v28l8 8l4 -4v-28l-12 -36h-4zM691 1412v28l8 8l16 -16l-20 -24zM719 376l8 -8l24 20v4h-8 q-24 -2 -24 -12v-4zM719 1160v12l8 12v36l8 8l4 -4v-52l-16 -16zM731 1280v4l4 4h4l4 -4v-4l-4 -4h-4zM739 1416v8l4 56l-4 16l16 20l-4 28v32l-8 12v4l8 8h4q8 0 8 -32l4 -4q0 -12 16 -12l4 -4v-12h-4l-4 4h-4l-8 -12l8 -12v-8l-20 -28l8 -12v-20l-12 -40h-4zM755 740v84 l8 12v20l4 60l-12 12l4 4h4q0 -9 28 -16l12 -40l-4 -60q0 -8 -16 -8l-4 -4v-20q0 -26 -12 -52h-4zM775 1304v4l4 4h4l4 -4v-4l-4 -4h-4zM791 960v24h8v-24h-8zM839 188l8 -16h12l4 32l-4 60v8l8 8l8 -8l8 8v4q-20 0 -20 12v12l8 12v24h-12l-20 -88v-68zM863 692 q0 -10 40 -20l4 -20h12q0 12 8 12h36l8 8v12q0 8 -12 8l-12 -4l-4 4v4q17 6 24 20h-8q-11 0 -44 -24l-20 -4h-8l-16 12zM899 308l12 -4l20 4l28 -28l-4 -20v-20l8 -8h12l8 8v12l-16 20v8q0 13 12 28l4 104l-4 12h-8q-4 -32 -16 -32l-12 8h-8v-4l8 -12v-8q-16 -52 -28 -52 q0 -8 -16 -8v-8zM899 400h12v36h-4l-8 -8v-28zM899 1096h20q9 -9 60 -12v12l-12 12l-8 -8h-24l-12 8h-16l-8 -8v-4zM943 484h12l4 40l-4 20h-8l-4 -28v-32zM971 536h12v8h-12v-8zM995 1000l8 -8h4v36h-12v-28zM1003 500h4l12 8l-4 4v36h-12v-48zM1027 500h4v12h-4v-12z M1031 824v4l8 8l4 -4v-4l-8 -8zM1063 780v4l4 96l4 4h4l4 -4v-4l-4 -84v-4l-8 -8h-4zM1075 440v4l4 4h4l4 -4v-4l-4 -4h-4zM1075 908v36l8 8l4 -4v-36l-8 -8zM1091 840v48l8 8l12 -24v-12l-16 -24zM1115 292v4q8 9 16 64l4 20l4 4h4l8 -8v-80l-16 -16h-8z" />
<glyph unicode="P" horiz-adv-x="1046" d="M69 1336v8q21 21 40 24v228q0 17 112 28l4 4l136 4h20l12 8h92l12 -8h40l12 8h48q17 16 40 16h68l12 -12v-48q-12 -18 -12 -36l4 -4h12l8 16v88l60 52l8 -8h8q1 20 12 20h4l16 -16v-4l-8 -12v-28h12q7 48 20 48l36 -40v-4q0 -28 -80 -28h-4v-4q0 -36 28 -36l4 -4 q32 0 32 -48h8l12 8h4q6 0 36 -60q-4 -40 -12 -48v-24h12q0 12 8 12q28 -28 40 -84q10 0 12 -36q8 0 8 -24l8 -32h4l4 -112l-4 -112q-7 0 -24 -96q-8 0 -8 -20q-36 -95 -128 -188q-164 -124 -360 -124h-56l-12 -12v-576l-12 -12h-80l-12 -8h-4l-12 8h-16l-12 -8h-16l-12 8 h-8l-12 -8l-8 8h-44l-12 -8h-4q-6 7 -52 12l-4 4v1156q0 64 -40 164zM121 324l12 -12l36 20l8 12h-8v4q-30 0 -48 -24zM141 1536l16 -24h4l16 8v4l-24 20h-12v-8zM193 1200h20l-12 12h-8v-12zM225 368l12 -8l24 20v4h-20zM225 772l8 -8q34 0 48 72q18 7 28 24v4l-8 8 q-20 -9 -44 -48q-16 -2 -16 -12l8 -12l-24 -24v-4zM225 1008q0 -12 52 -28h8v4q0 9 -48 24h-12zM237 84l12 -12h16v16l-8 8h-20v-12zM273 1388l28 4h24q25 6 72 60q24 -4 24 -12v-8l-4 -4l4 -12h8l12 24l28 -4h12l20 4l-12 12h-4l-28 -4l-4 4v8q0 17 24 64l-12 8 q-42 -44 -88 -52q-12 -15 -44 -28q-9 -29 -24 -36h-4l-12 16l-4 4h-16l4 -28zM285 1196h4v12h-4v-12zM357 536h28v12h-28v-12zM393 1052h4v12h-4v-12zM409 1280h8v4l-8 8v-12zM421 1284l8 -12v-104l28 -28q-28 -7 -28 -16v-252h8l16 12h36q8 -8 52 -12q57 0 128 88l12 24v12 q-52 61 -100 64l-4 4q-12 0 -12 8l4 4h12l68 -24q12 28 40 28l20 28l-4 96l-24 72q-61 104 -176 104h-4q-72 0 -72 -20v-64zM585 640l8 -8h8v20l-8 8h-8v-20zM637 1380h8v12h-8v-12zM693 1424h16v16h-16v-16zM709 836h12v64h-12v-64zM721 1028h12l8 24v64h-12v-24l-8 -12 v-52zM741 996h4l8 8v4h-12v-12zM757 1160h8l36 28v68l-12 12l-8 -8l-4 4v28l12 16v12l-8 24h-12l-4 -28v-68l-8 -12l8 -12l-8 -12v-52zM757 1412l12 -8l8 12l-8 8zM765 980h12l16 96l-4 20v8h-12q-12 -42 -12 -100v-24zM781 1428h12v32h-4l-8 -8v-24zM789 1500h4l8 8v16h-12 v-24zM793 1116q20 -14 20 -36h4l16 12q4 -40 12 -40t8 12l4 4h4l4 -4v-8l-4 -40h12q7 0 24 48q16 7 16 28v4q-16 14 -20 48l-4 4v60q12 14 12 48l-4 4h-4l-12 -4l-4 4v20q12 12 12 88v20h-4l-20 -24v-44l8 -12v-24l-8 -8h-4l-8 8v32h-4l-20 -20q0 25 -20 36l-8 -8 q13 -44 20 -44l16 4l12 -28l-12 -16v-8q16 0 28 -12l-4 -20q4 -53 12 -60v-12l-16 -20q-7 0 -12 28h-8q0 -20 -8 -20h-12l-12 8h-4zM801 972h4l8 8v16l-8 8h-4v-32zM801 1380l16 -24h8l16 16v12l-8 8l-12 -4l-4 24h-4l-12 -12v-20zM805 1064h12v4h-12v-4zM813 1448h12v16 h-12v-16zM829 768h12v32h-4l-8 -8v-24zM853 860h12l8 16l-8 8h-4l-8 -8v-16zM901 1140h8l12 12v12h-20v-24zM909 1200h4l8 8v4h-12v-12zM921 1264q16 -10 16 -32h12l8 16v24l-8 8h-16l-12 -12v-4zM933 1340h12q0 18 16 24q-7 28 -16 28l-12 -20v-32z" />
<glyph unicode="Q" horiz-adv-x="1243" d="M-223 784v4l4 4h4l4 -4v-4l-4 -4h-4zM-203 1028v4l4 4h4l4 -4v-4l-4 -4h-4zM-99 968v12h12v-12h-12zM73 752q0 23 36 56l4 -4l-4 -16l4 -116l-4 -116l-4 -4h-4q-16 53 -16 116l-8 8v52zM73 892v88l8 8l4 -4v-88l-8 -8zM113 1080v100l8 12v60l8 8l4 -4v-108l12 -16 q-12 -16 -12 -60l-4 -4h-4zM145 672v12q16 39 16 84v48q8 8 8 36l24 28q19 0 60 44h16q9 -9 44 -12l4 4v4q-21 27 -24 56h-12q0 -33 -56 -40q-11 -36 -44 -36h-12l-8 8v160l8 12v12l-8 12v4l8 12v12l-8 12v48l8 12v112l-8 56q6 0 16 32q8 0 16 36q10 12 36 12l4 4v4l-12 20 q61 108 100 128q93 72 228 92l4 4h124l80 -20q81 -41 116 -68q72 -65 72 -76q97 -116 140 -352q12 -35 12 -104l4 -4h4l4 -168v-24l-4 -200l-8 -8q0 -156 -88 -364l-56 -84q-25 -31 -52 -48q-14 -16 -32 -16v-20l132 -44v-4l108 -4h36l20 -20v-16l-8 -12l24 -24 q-85 -198 -104 -216h-40q-192 81 -348 176l-100 52h-20l-32 -20h-100q-26 0 -92 -48l-24 -4h-24q-29 17 -56 56v16l16 16h12l60 -4v12q-29 35 -76 68q0 28 -8 28l4 4v8h-8v-12h-4q-22 0 -44 112q-11 9 -40 100l-4 4q12 15 12 28v56l24 44v8h-4l-20 -4l-4 12l4 104l-4 44 q-12 0 -12 8zM185 1396l12 -12h12v8l-16 16zM217 1060h4l12 12v8h-12zM221 592l12 -24h12q12 0 12 16q0 31 -20 56h-4l-12 -12v-36zM241 772h4l8 8v16h-12v-24zM257 1484l8 -12v-40q24 0 24 -12v-16l-20 -52l12 -28h8l16 16v12l-12 16q9 9 16 60l4 4v12q-24 25 -24 44h4 l-4 4v4l4 28h-12q0 -11 -24 -36v-4zM301 616h4l8 8v4h-12v-12zM305 328h12l12 12l-12 8l-12 -12v-8zM305 1192q12 0 12 -12l12 -4l-4 -28v-16h4q11 0 16 40l4 4q-11 28 -44 28v-12zM341 1428h12v12h-12v-12zM349 608l8 -8l8 8l-8 8zM349 1540h4l12 12l-12 8h-4v-20zM361 880 l12 12h-12v-12zM377 1344h12v12zM397 856l4 -172q8 0 8 -12q0 -137 56 -244q14 -7 24 -52q48 -64 116 -64q93 0 144 204l20 88l4 112l8 8v72l-36 76v4l36 24v100l-20 44q-16 0 -16 16q-6 0 -16 32q0 13 -100 24l-12 16v12l20 20h28l36 -20q12 0 12 16l-4 56l16 60v32 q-14 63 -80 108q-30 4 -40 12h-20q-58 -18 -88 -60q-88 -153 -88 -328q-8 0 -8 -12zM409 1504l4 -12h8l12 12l-12 8h-8v-8h-4zM413 1548q19 0 28 -8h4l16 16v8h-36l-12 -12v-4zM521 1552h20l12 12l-12 8h-20v-20zM529 148l28 -12h20q12 12 28 12q13 32 20 32l8 -8h4l16 16 l-4 16l4 4h4l20 -16h4q16 0 32 92q84 22 84 36l-4 4v4q-32 -4 -68 -24h-4l-20 20v4l8 12l-8 8h-12l4 -16l-8 -20l4 -32q0 -48 -36 -48q-46 0 -72 -36q-52 -6 -52 -48zM577 1584q0 -24 32 -24h4l8 8l-16 16h-28zM617 48l12 -8h8l12 12l-12 8h-8zM661 1652l8 -8l8 8v12l-8 8 l-8 -8v-12zM689 124q0 -8 48 -24h32l12 12v8l-12 12h-4l-28 -12l-28 16l-20 -4v-8zM697 1576l4 -12h12q32 16 32 24l-28 36h-8v-4l4 -28q-16 -4 -16 -16zM713 1492l12 -4l8 12v4l-12 12l-8 -12v-12zM809 1068l12 -8h8l12 12l-12 8h-8zM817 784l4 -12l56 -4l40 16v12h-64 l-8 8v24l20 48v4q-12 14 -12 40l12 28v4h-44v-56l-4 -24l12 -40v-24zM841 116l8 -8h20v12l-24 4l-4 -4v-4zM865 828h8l8 8l-8 8l-8 -8v-8zM953 820l12 -12l8 12h-20zM973 60h12v4l-8 8h-4v-12zM973 544l16 -16h8l48 24l4 4v12q-76 -14 -76 -20v-4zM997 -116v-12l4 -12 q66 57 100 128l12 36l-20 12h-8q-22 -76 -48 -76q0 -33 -24 -56q0 -10 -16 -20zM1037 844h12l8 8v4h-20v-12z" />
<glyph unicode="R" horiz-adv-x="1104" d="M71 1332q6 36 36 36l4 4v232q0 21 120 24l8 8l136 4h20l12 8h32l28 -12l24 12h8l12 -8h64q15 12 28 12q23 -12 80 -20l4 -4h12l16 12h28q35 0 140 -36h4l56 16l4 4h44q32 -9 52 -36l36 -64v-12l-16 -16h-16l-64 36h-12v-4l64 -124q12 -25 12 -80v-8q0 -55 -12 -68v-16 q0 -38 -24 -144q0 -40 -64 -160q-56 -76 -116 -112q0 -6 -28 -16q-12 -10 -12 -24q120 -82 160 -240l52 -264l16 -4h28l20 -16l-32 -48v-4q32 -4 32 -12q-8 0 -8 -16q-8 0 -16 -24h-8v-32q12 -16 12 -44l-4 -4h-4l-8 8l-12 -16v-32q16 0 36 24l12 -28l-8 -8h-20l-20 4 l-24 -4h-32q-8 0 -44 -60l-12 -12q-8 0 -8 16h-20q0 -12 -24 -40h-4q-13 8 -28 84l-16 12h-60q-32 0 -88 384q-39 208 -72 208q0 22 -56 44l-40 12h-56l-12 -12v-512l8 -12l-8 -8v-12l8 -12l-8 -8v-64l-8 -8h-64l-12 -8l-12 8h-72l-12 -8h-4l-12 8h-104l-12 12v56l-4 16 l4 28v932l20 24v16q-20 0 -20 16l-4 92q-7 0 -16 56q-20 50 -20 68zM135 644h8q32 11 40 28l-8 8l-40 -16v-20zM159 1444h8q26 0 52 24h16l12 -8h4l24 8v16l-28 -4l-44 24h-32v-12q24 0 24 -12v-4q-12 -20 -32 -20l-4 -4v-8zM167 264l8 -8l8 8v44h-12l-4 -40v-4zM171 1256 l12 -12h8q32 9 64 108q18 0 32 24v12h-16q-42 -27 -44 -52q-13 0 -36 -20q16 -24 16 -36l-4 -4h-24l-8 -16v-4zM179 880l4 -24v-8h36q23 8 40 36q0 9 80 24l12 16v12l-16 16q-7 -24 -28 -24l-76 -36q-18 0 -36 12h-12zM195 512h8q112 46 112 88l8 8l-12 8q-24 -49 -52 -60 q-64 -30 -64 -36v-8zM255 64l12 -8h12v8l-12 12zM255 140q12 0 12 -8v-28h8l12 8q12 -10 12 -32l8 -32l4 -4h4q8 8 8 32q18 12 52 12l12 16v28l-16 16h-8q0 -12 -8 -12h-12l-16 12q-4 -32 -12 -32l-44 48h-16v-24zM263 724h12l8 8l-8 8h-4l-8 -8v-8zM291 1336h24v12h-24v-12 zM339 208q14 -12 48 -12v8l-16 16h-20zM359 292l4 -20h12l12 12v16l-8 8h-12l-8 -8v-8zM387 1232l20 -4l16 12l32 -20q-32 -6 -32 -16v-272l12 -12h24l12 8h64l12 -8h20q34 11 68 84l48 60v8q-47 48 -104 48l-20 4l-4 4v4l4 4h4l76 -16q16 23 48 36l12 20q0 114 -76 184 q-68 40 -124 40l-64 -8l-12 -16v-116l-4 -4v-4l-20 4l-12 -4v-20zM395 1032l8 -8h8v16h-8zM459 1584l16 -20l8 8v16l-16 16h-8v-20zM471 1424h12v12h-12v-12zM483 1480q57 0 184 -80l4 -4v-12l-12 -28l4 -4h4l20 24l20 -4h24q15 0 84 52v12l-32 32q0 -8 -32 -16 q-22 -41 -44 -56q-17 28 -36 28q-41 36 -76 36q-42 48 -100 48l-12 -24v-4zM627 1564l72 -24q0 -24 12 -24q36 5 36 16q-23 27 -92 36l-20 8zM647 976h16v12h-12zM683 316h8q44 22 44 28l-12 8q0 -8 -24 -8q-16 -7 -16 -24v-4zM755 712h20l20 20l-8 8h-12l-20 -20v-8z M755 1208l24 -4l4 4v4l-8 8h-20v-12zM771 1016q53 -28 84 -28h8l12 12v4h-4l-24 -4q-18 4 -44 24l-20 4l-12 -4v-8zM803 376h8l8 8l-8 8l-8 -8v-8zM815 88h12v4l-8 8h-4v-12zM815 840l8 -8h4l76 76v4q0 8 -12 8q-48 -29 -48 -52q0 -12 -8 -12h-20v-16zM843 1204h8l8 8v4h-16 v-12zM887 -4l4 -4h12l8 16l-12 8h-8zM903 544l12 -8l12 12l-12 8zM907 1292l4 -4h12l-12 12l-4 -4v-4zM959 1068l8 -8h8v12h-16v-4zM979 1288h8v12l-8 -8v-4zM1091 888v8l8 8l8 -8v-8l-8 -8zM1111 552l8 8h4l8 -8l-8 -8h-4zM1171 476v4h8v-4h-8zM1235 516l4 4h4l4 -4v-8h-4z " />
<glyph unicode="S" horiz-adv-x="994" d="M-110 1556l4 4h8l8 -8l-4 -4h-8zM94 92v36l12 44l24 20v12h-8l-4 -4h-4l-4 4l24 140l4 4q0 12 8 12q56 -36 224 -60l12 -4l36 4h24q9 9 60 12q0 6 48 24q0 9 28 24q48 59 48 112l4 4v24q-8 7 -8 40q-21 60 -52 60q-69 48 -84 48h-20q-20 0 -80 -36h-28l-48 48v8l24 24h56 l8 8q-24 31 -84 68q-69 70 -80 124q-32 28 -92 152q-28 67 -28 132v56q0 158 108 292q112 111 220 132q68 15 68 20l124 4q152 0 280 -76q44 -14 44 -24v-4q-16 -15 -60 -28l-20 -16q35 -16 36 -24v-4l-64 -32q-19 -113 -32 -120q-27 23 -112 44l-4 4h-20l-12 -8h-12l-16 12 h-12q-110 0 -156 -52q-34 -22 -48 -84v-56q0 -111 252 -248q102 -71 140 -124q85 -101 100 -188l12 -52l4 -4v-156q-8 -5 -12 -64q-6 0 -28 -72q-60 -127 -168 -188q0 -12 -120 -60q-74 -24 -132 -24h-8l-12 -8h-52q-59 0 -128 -24h-12q-20 11 -32 44q-121 28 -136 48z M138 1824v4l8 8l8 -8v-4l-8 -8zM154 304l12 -20q27 0 48 28v4q0 8 -48 20zM154 1696v4l8 8l8 -8v-4l-8 -8zM198 1780l8 8l8 -8l-8 -8zM214 996l24 -36h8l12 8h16l28 -24h4q42 0 76 44l-8 8h-12l-20 -16h-8q-9 0 -16 28h-48l-12 8h-44v-20zM238 1428l16 -28h16v16 q-8 6 -16 80l-4 12h-12v-80zM298 964v4h8v-4h-8zM346 124l8 -8l12 12v4h-12zM358 200q12 -12 92 -40l16 -20h36l12 -12v-8l-8 -12l4 -4h4q21 0 36 12l-32 48v8l4 4h4q52 -36 76 -36h4l8 8q-66 54 -100 56v4q15 20 24 20v4l-8 8q-25 0 -52 -24h-24v-12q28 -4 28 -12l-4 -4h-8 q-38 0 -100 24zM374 1256h8v12l-8 -8v-4zM406 1564q0 -6 104 -24q136 -31 136 -44q1 -32 16 -32h32l8 8v4l-40 44q-136 27 -136 48l-12 -8h-28q-15 12 -56 12h-24v-8zM446 932l8 -8v12h-8v-4zM518 812l12 -8l4 4v8l-8 8zM610 824q24 0 36 -20v-4l-12 -24l12 -8q13 30 56 72 l-12 8h-8q-15 -12 -28 -12l-4 4h-4q-36 -6 -36 -16zM658 944h4l8 8v4h-12v-12zM706 468l12 -12h12q0 19 8 28l-4 4h-4l-24 -16v-4zM778 584q12 0 12 -20h12l12 12v4q-11 35 -24 40q-12 -18 -12 -36zM790 248h4l8 8v4h-12v-12zM794 1528q21 0 24 -52l-4 -16h8q16 8 16 20 l4 100q-4 16 -24 16h-4l-8 -8v-4q0 -8 24 -16v-8q0 -7 -28 -20zM862 324l12 -12l12 12h-24zM862 600l8 8v4h-8v-12zM906 592l8 -8l8 8l-8 8z" />
<glyph unicode="T" horiz-adv-x="942" d="M38 1352v272q12 44 44 44h36q18 12 36 12q0 12 12 12q36 92 60 92h24q35 -11 40 -24v-8q0 -26 -52 -56l16 -16h88l4 -4h4l-4 -16l4 -56v-24l8 -8h4v88l16 16q0 -6 48 -16l28 -16h16l104 -16h64l20 4l4 -4v-4l-4 -24v-4h12q3 32 12 32h40q12 0 12 -16l-12 -20l12 -12 l-4 -60v-60h12l4 60v56q20 22 20 40l4 4h4l4 -4v-36l-8 -12q9 -9 12 -44q-4 -44 -12 -52l-4 -76l12 -20l-24 -36h-32l-12 12v28h-12v-32q0 -8 -44 -8l-8 -12v-732l-20 -20v-4q20 -1 20 -12v-540l-8 -8l-12 32l-4 -4h-4l-4 4h-4l-12 -36h-20l-12 12v4l8 12v48q0 13 12 28 l-8 12v48l8 8l12 -12v-44q3 -64 24 -64v8l-8 12v40q12 12 12 76v4h-4l-16 -12l-8 8v44l8 8h20v20l-24 24l8 12v16h-8l-12 -8l-4 32q-7 0 -20 -32v-52l8 -12v-8q-8 -7 -8 -40l-12 -8l-4 4v4l4 44v8h-12q0 -21 -12 -36v-4l4 -24q0 -12 -32 -32h-4q-28 36 -56 36h-44l-12 -12 v-16l32 -32q0 9 44 16l4 -4v-4q-14 -29 -68 -84l12 -8h8l32 16v-4l8 -40v-8l-4 -4v-4l-20 4h-4l-12 -8h-4l-12 8h-64l-12 12v308l8 12v4l-8 12v508q0 63 -36 136v12q0 19 32 20l4 20v268l-4 20h-272zM62 1436l16 -24h16v24q-12 0 -12 12h-8zM130 1412l12 -8h4l-4 20z M134 1460l32 -32l12 12v4q-17 28 -24 28h-12l-8 -8v-4zM302 1388l12 -12h4q10 16 32 16v20q-20 0 -20 12l8 24q-16 22 -16 48q0 66 12 80v4l-12 12h-8l-12 -12v-140l8 -12v-28zM334 956h8v4l-8 8v-12zM338 1064q20 0 20 -8v-28h12l4 40v52l-8 8q-14 -2 -28 -48v-16zM346 836 h8l4 4h4l-4 28v28h-12v-60zM374 1004l8 -8h4v12h-12v-4zM374 1520l12 -8h20v8l-12 12h-8zM386 1412l12 -12h4l8 8v16h-12zM394 1160h8q32 18 32 36v64q-24 0 -24 8v20l8 12v44h-12l-8 -16v-44l-4 -24l4 -4v-4l-4 -76v-16zM398 992l12 -12l8 8l4 104v12h-12q-3 -43 -12 -52 v-60zM406 708q0 -14 68 -28l4 -4v-8l-8 -12v-12l8 -8q20 12 20 32h60l8 8v24l-8 8l-32 -12h-4l-8 8q52 23 52 48l-4 4h-4q-41 -37 -88 -60h-16q-33 24 -48 24v-12zM406 1572l12 -12q0 8 12 8l4 4v4l-8 8h-12l-8 -8v-4zM418 1428h12v36h-12v-36zM422 1508l8 -8h4v24h-12v-16z M434 980l8 -8h4v32h-4l-8 -8v-16zM434 1320l8 -16h8q8 0 8 12q-6 16 -12 16zM434 1380l24 -24h8v8l12 8q0 20 -8 20l-12 -4q-8 24 -16 24l-8 -12v-20zM442 1064h12v4h-12v-4zM446 932h12v12h-4l-8 -8v-4zM446 1088l8 -8h4v20h-4l-8 -8v-4zM446 1448h12v16h-12v-16zM454 1608 h12v20h-12v-20zM458 1124l12 -16v-44l12 -12l8 8v40l4 4v4l20 -4h36l28 -24l8 12v32l-12 12l-12 -12l-64 4h-8l-12 8h-8zM466 768h12v32h-12v-32zM470 320l12 -12h12q26 0 56 44l24 8v20q-12 0 -12 12h-12l-36 -12v-4l4 -16q0 -24 -40 -28zM482 116l28 24h8l8 -8 q-12 -15 -12 -28v-56l-12 -12l-8 8v40l8 12zM490 860h12l4 24h-16v-24zM490 1236q3 -24 12 -24h4v36q8 8 8 36l4 32l8 8v56h-8q-16 -8 -16 -20l4 -76l-16 -40v-8zM494 12v4l8 8l4 -4v-4l-8 -8zM506 1560l12 -12h4l8 8l-4 16h-8zM538 1140h12l4 20v4h-16v-24zM542 112v8l8 8 l4 -4v-8l-8 -8zM542 1208l8 -8h4v12h-12v-4zM562 908h8v4l-8 8v-12zM562 1256q12 0 12 -24h12l4 28v20h-28v-24zM562 1424h12q0 12 12 12l16 44l-4 16h-12q0 -22 -16 -32q-7 0 -8 -28v-12zM562 1516l8 -8h20l20 4v20h-24zM566 1340h12l20 28q-8 0 -8 20l-4 4h-4l-16 -16v-36 zM598 396h12v20h-12v-20zM598 1204l8 -8l8 8l-8 8h-8v-8zM602 528l12 -12l4 4v4l-4 4h-12zM610 612h12v4l-8 8h-4v-12zM634 1452q3 -48 12 -48h4v72h-12zM646 1532h12v24h-12v-24zM674 1388h12l8 20v8h-8l-12 -12v-16zM802 1456v4q3 64 12 64l16 -20v-4q0 -29 -24 -48z M806 1560v12q12 0 12 40l4 4h4l4 -4v-16q0 -52 -12 -52zM850 1416l4 104l8 8v40q16 9 16 56l4 4h4l16 -12l16 4l4 -4v-4q-24 -5 -24 -12v-4l4 -20l-16 -4v-20l4 -20q-16 -68 -16 -132l-12 -12q-9 0 -12 28zM902 1352v4l12 12l8 -8v-12l-8 -8z" />
<glyph unicode="U" horiz-adv-x="1117" d="M63 1616q0 32 40 60h4l16 -28h228l12 -12v-8l-8 -12l-4 -204h12v88q0 9 20 12l4 -4v-84l-8 -12v-52l8 -12l-12 -12q4 -63 12 -68v-4q-20 -57 -24 -116l4 -4q12 0 12 -8v-12l-8 -8l-4 4h-4l-8 -12v-112l-8 -8l-8 24h-8l-12 -12l8 -12v-68l-8 -16l-4 -112q-9 0 -12 -48 l4 -80h12q0 12 8 12l4 -4v-36l-4 -4v-4l12 -8h4q0 12 16 20h4q12 -5 24 -36v-20l-8 -12v-40l8 -8h12v196l4 24l-12 36v84q12 15 12 36v24l8 8l12 -40v-8l-8 -12v-4h12q0 12 8 12h4l8 -8v-32l-8 -8q-12 0 -12 24h-4l-8 -8v-268h12v76l16 32l4 -4v-40h12q0 71 16 88l8 8h8 q80 -48 80 -92q0 -88 -24 -88h-8q-39 25 -52 72h-12l-4 -28v-4l4 -168l8 -8v-4q0 -108 44 -108l28 -28v-24l4 -40h12q0 19 8 28v8l-8 12v4q0 11 68 24l24 20l4 -12h16l8 8l-12 16v4q32 61 48 160l-4 4l4 28v228q0 11 20 12v20q-12 0 -20 16v448q9 20 20 20v12q-20 0 -20 8 v40l8 12v8l-8 12v188l8 12v8l-8 12v52l16 16h100l24 4l20 -4l20 4l8 -12v-24h12v20q0 11 40 16l24 -4h44q8 0 8 -12l-4 -12l8 -8v-988q-24 -17 -24 -132v-104l-36 -112l-20 -40h-4l4 160v36q9 9 12 52l-4 40l4 88l-4 4v4l4 4v4l-4 64l12 20v408q-12 0 -12 8l-4 -4h-8l-8 16 q12 0 12 52v36l8 12v40q0 85 12 96v8l-8 12v24l8 12v12h-12q0 -15 -24 -44v-4l4 -28q-2 -23 -12 -36v-120l-4 -40h-8v16h-4q0 -12 -12 -12v-4l4 -20q-2 -23 -12 -36v-12l8 -12v-24l-8 -12v-12l8 -12v-8q-12 -40 -32 -40h-4l-8 12v20l8 12v80l-8 12l-4 100q-11 0 -16 40l4 4 l-8 8v44l8 12v40l-12 12l-8 -8v-24q0 -34 -24 -64q0 -9 -24 -32l-4 -64l4 -164v-64l8 -12l-12 -16v-8h4l-4 -28v-44q-8 -5 -12 -64l4 -24l-12 -20v-12l12 -36q24 -2 24 -24l-4 -24l12 -8l12 12v24l-8 12v12l12 16v52l16 28l4 -4v-8l-8 -12l12 -16v-4q-16 -16 -16 -56l4 -32 l-4 -52v-20l-20 -28v-4l8 -64v-4q12 0 12 -20l12 -12v-36h12v8h4l-4 16l4 96v60l8 12v32l-8 12q20 31 20 44h4q12 0 12 -16q0 -71 -12 -84v-60q0 -13 -12 -28v-68l-4 -44q8 -20 24 -20v-12q0 -8 -12 -8v-40q-8 -7 -12 -60h-4l4 -20v-36l-12 -12l4 -4v-28q0 -8 -24 -12v16h-4 l-8 -24v-12l8 -24q28 0 28 -12v-4q-80 -60 -104 -60l-8 68h-12v-36l-8 -12v-16l8 -12q-2 -9 -68 -32l-12 16v20l8 12v40l-16 76l-16 4v-4q8 0 12 -76q-5 -92 -36 -92q-28 0 -36 -8h-28l-12 8h-20q-72 6 -72 24v24h-4q-8 0 -8 -20l-4 -4h-8q-84 32 -84 48v28h-12 q0 -20 -8 -20q-28 9 -28 44q0 24 -32 24l-16 -4q0 12 -12 12l-4 4v16l4 28l-4 4h-4l-20 -4q-84 153 -84 316l-8 8v404q8 16 20 16v12l-4 -4h-8l-8 8v28l8 12v8l-8 12v264l20 24l-8 8v28l-4 56l4 12l-16 16v48q-7 5 -16 68zM111 1580h12v12h-4l-8 -8v-4zM135 1160h12v12h-12 v-12zM163 1280q8 -9 8 -28h12v28l-12 12zM163 1384l8 -8q12 0 16 32l-4 4h-12l-8 -16v-12zM163 1456l8 -8h12l12 28v16h-12l-20 -24v-12zM175 1300h8v12l-8 -8v-4zM195 424h12v4h-12v-4zM199 1448l16 -16h8q0 12 8 12q14 0 24 -72h12v36l-8 12v4q0 12 56 12v8l-12 12l-8 -8 h-4l-12 12l16 44l-4 12h-8q-20 -21 -52 -32q-32 -18 -32 -24v-12zM211 508l8 -8l12 8h16l12 -12l-4 -44h12v28q0 16 36 16l4 4v20h-4l-16 -12h-12l-16 16q-48 -3 -48 -12v-4zM255 1616h12l4 20h-16v-20zM295 1372h12v16h-12v-16zM307 124h16l40 36v12l-20 4q-24 0 -24 -28 l-12 -12v-12zM319 728v36l8 8l4 -4v-36l-8 -8zM355 672v84l8 12v28l-8 12v16l20 44v44l8 8l4 -4v-44l-8 -12l-4 -136l-8 -8v-40l-8 -8zM375 964l12 12l4 -4v-24l-8 -8zM375 1524v4l4 4h4l4 -4v-4l-4 -4h-4zM387 1044v4l8 8h4v-8l-8 -8zM403 1424v4l4 4h4l4 -4v-4l-4 -4h-4z M403 1484v4h8v-4h-8zM403 1604v24l8 8l4 -4v-24l-8 -8zM427 748v28l8 8l16 -16v-12l-16 -16zM435 404h12q0 12 16 12v12l-28 -4v-20zM483 72l8 -8q23 0 40 60l4 32v4h-4q-8 0 -8 -20l-4 -20l-4 -4h-4l-4 4v52l-8 24h-4l-8 -8l-4 -104v-12zM547 4h12v36l8 12v72l-12 12 l-8 -12v-120zM551 1156v4l8 8h8l12 -12l-12 -12h-4zM579 92h12v24h-12v-24zM715 172h12v24h-4l-8 -8v-16zM739 1384l20 4v8l-12 12l-8 -12v-12zM747 1420h12v4h-12v-4zM747 1520h12v12h-12v-12zM759 112h12v4h-12v-4zM759 280l28 -20h8v4l-8 12l44 16q12 0 12 -24h12v40h-24 l-12 8l-16 -12l-16 24h-4l-16 -28l-8 -8v-12zM767 1620l8 -20h12l8 20v8h-20zM787 788v12l8 8q5 -20 12 -20l8 8l4 -4v-8l-8 -8h-4q0 8 -16 8zM799 768l8 8v-8h-8zM799 1220q12 9 12 40l4 4h4l4 -4v-48l-8 -8zM807 1092v44l8 8l4 -4v-44l-8 -8zM811 896v24l8 12v24 q0 34 12 48l-8 12l8 12v36l8 8l4 -4v-80q-12 -11 -12 -100l-4 -4h-4zM819 820v4l8 8h12v-4l-12 -16zM855 832l4 4h8l12 -12v-16q-8 -7 -8 -40l-4 -4h-4zM859 728v16l8 8l4 -4v-28h-4zM867 140v4l4 4h4l4 -4v-4l-4 -4h-4zM871 956v4l16 20h12l8 -8v-84l-8 -8q-8 0 -8 16 q-12 0 -12 8v40zM891 212v12l8 8l4 -4v-12l-8 -8zM895 252v4l8 12v12l-8 12v48l8 12v24l12 40l4 136l8 8v28l4 56l-4 40q6 28 16 28q9 0 12 -48l-4 -32l4 -4v-4l-4 -16l4 -20q-4 -48 -12 -56v-48q0 -55 -12 -68v-28q0 -24 -16 -24l4 -68q0 -27 -20 -48zM895 788q0 8 20 8 l4 4v4l-4 28l4 80v12l8 8l12 -16v-36l-8 -12v-24l8 -12v-60l-12 -36h-4l-8 20l4 16l-4 12l-4 -4h-8zM907 188v4l8 8l4 -4v-4l-8 -8zM919 972v20l8 8l4 -4v-20l-8 -8zM919 1264h12v60h-4l-8 -8v-52zM919 1336h12v12h-4l-8 -8v-4zM927 1040v28l8 8l4 -4v-28l-8 -8zM955 884 v136l8 12v8l-8 12l8 12v48l8 8l4 -4v-92l-8 -12v-108l-4 -20h-8z" />
<glyph unicode="V" horiz-adv-x="1152" d="M85 1628l4 4h40q13 0 28 12l12 -12h128q18 0 64 56l4 -4q16 -49 28 -52q44 0 44 -16q16 -128 24 -136v-4l-12 -24q24 0 52 -256q8 0 8 -40q36 -176 100 -632q12 -56 12 -108l8 -8v-20h4q8 0 8 12l4 88q8 0 8 12l4 84l8 8v4q0 64 12 76q0 88 20 88h4v8l-12 16l56 368 l68 428q7 52 20 52h140q6 0 16 32l4 4h4l20 -32h8q2 16 12 16h4q1 -20 12 -20h8l20 16q13 0 32 -16l12 4q44 -4 44 -16v-24q0 -8 -20 -8l-4 -4v-4l24 -32l-20 -20h-8l-12 8l-8 -8l8 -12l12 4l4 -4v-4l-8 -12v-8l28 -36v-4q0 -7 -36 -12q-28 -97 -160 -696q-24 -85 -44 -196 l-4 -4l-4 -124v-8l-8 -12v-60q-52 -40 -52 -88q-8 -8 -24 -108l-8 -24l-4 -120q-27 -21 -76 -28l-4 -4h-20q-36 15 -36 40l-4 4h-228q-16 7 -16 28v4q0 8 12 8q18 0 36 -12q7 8 40 8l8 12v12l-12 12h-8q-15 -12 -56 -12q-8 0 -8 12l-4 -4h-8q-12 0 -40 136l-4 28l-4 4 q-10 73 -32 96q-16 141 -24 148v16l8 12q-21 13 -36 96q-28 0 -72 148q-37 47 -92 60q-28 17 -40 36l-8 20v68l12 12h20q18 -6 56 -60l8 8v8l-28 160v160l-8 12v24q0 76 -16 76h-36l-8 8v4q36 38 36 52q-24 140 -36 140v16zM141 1444h8v12h-8v-12zM153 1500h20v4l-8 8h-4 l-8 -8v-4zM197 1192h4v12h-4v-12zM257 1504h12v12h-12v-12zM305 1084h4v12h-4v-12zM317 900h4v12h-4v-12zM317 1516h16v12h-16v-12zM365 1236h12v4l-8 8h-4v-12zM377 772h16q0 19 32 32h4q7 0 20 -32v-4l-8 -8h-48l-8 -8q5 -20 12 -20l20 16h40l4 -4l16 4v4l-12 16v80l-8 8 h-12q-38 -60 -68 -60v-24zM389 1612l4 -12h8v8h4l-4 12zM425 1516h12l4 12h-16v-12zM425 1928l4 4h8l288 -248v-8q-17 0 -96 76q-171 140 -204 176zM461 308l20 -40l-8 -48v-12q13 0 32 68q56 18 56 28v8h-12l-36 -20h-4l-48 44v-28zM569 60h32l8 8l-8 8h-24l-8 -8v-8z M633 1428v4l8 8l8 -8v-4l-8 -8zM689 1352v4l4 4h4l4 -4v-4l-4 -4h-4zM693 12l12 -8l8 8v12h-8zM725 116q6 -28 16 -28l8 12l-8 8v16l12 16l-16 16q-12 -14 -12 -40zM741 504l8 -8h12q25 21 72 44v4h-8q-21 0 -60 -24h-24v-16zM753 1388v4l4 4h4l4 -4v-4l-4 -4h-4zM761 800 q0 -8 12 -8l12 4v8l-20 4l-4 -4v-4zM809 1432l12 -12h4v16l-8 8l-8 -8v-4zM881 1460l20 -20l8 8v4l-16 16h-12v-8zM917 800q0 -8 12 -8l12 4v8l-20 4l-4 -4v-4zM965 916l4 -4h4q30 23 32 52v24h-8q-8 0 -8 -32q-7 0 -24 -40zM989 1300h16l16 4l16 -4h4l8 16l-8 12v8l8 12 l-8 12v8q8 16 20 16v8l-8 12v8l8 12v4q-14 0 -16 36l-4 4v20q10 13 12 36l-4 4h-20l-4 -48l4 -32l-4 -4l4 -28v-36q0 -59 -40 -68v-12z" />
<glyph unicode="W" horiz-adv-x="1796" d="M47 1576l16 12h8q35 -19 68 -120h8v32l-16 160l44 48h56l160 -4q0 -8 12 -8q120 0 120 -44l4 -4v-12l-8 -12v-12l8 -8l4 -108v-88l8 -12l4 -88l8 -8v-12l4 -48l-16 -4v-12l4 4h8l16 -16l-4 -32l4 -68q6 0 16 -48l4 -4v-4l-8 -12v-24l8 -12l4 -100l8 -8l4 -120l8 -8 l4 -116l8 -8l4 -124l8 -8v-60h12l4 40v20q8 5 8 48l136 780q8 55 24 64l-4 24q29 224 48 224h220q8 0 8 -44l12 -12h4q0 12 8 12q28 -134 28 -168h-4q12 -21 16 -56q-4 -35 -12 -44v-124l-4 -28h4l24 20h12q9 0 16 -64l4 -4v-12l-8 -12v-4l4 -20l-20 -4l-8 12v24h-4 q-9 0 -16 -52l-4 -4v-40l12 -12h8v24q0 21 36 44q15 0 40 -236q9 0 20 -120l4 -48q12 0 12 -96l8 -8l4 -100l12 -8l8 16l4 108l8 8l4 100l8 8l4 100l8 8l4 100q8 0 8 12l4 92l8 8l4 92q8 0 8 12l4 84q8 0 8 12l4 84q8 0 8 12l4 84l24 8v20l-16 4l4 48v12l8 12v40l24 16v4 l-20 20v4q7 6 12 52l4 4h24l8 -8l-16 -4v-8q11 -10 24 -48l-8 -12v-120l16 -16l8 8l-12 20v32l12 40l-4 24v20q16 14 16 36l4 4h4l4 -4v-4l-4 -56v-4q0 -8 -12 -8v-12l4 4h4l8 -8q-4 -68 -12 -68v-56l12 -16q0 -8 -16 -8q0 -44 12 -60v-40q-8 -8 -20 -108l-12 -12v-24l8 -8 h4q0 16 8 16h4l8 -8v-12l-16 -24l-4 4h-4q-8 -9 -12 -44h-4q-20 0 -20 72q12 14 12 44l12 12l-16 12q-16 0 -20 -124l-8 -8v-48l-4 -36l12 -24v-84l-8 -12l-4 -164q-10 0 -16 -52l-4 -4l8 -8v-88l4 -20h8q3 20 12 20l4 -4v-32l-4 -20l16 -16v-24h12v36l8 12v24l-8 12v12 l8 12v72l4 84l-4 20q24 25 24 56l8 8l4 -4v-28l-8 -12l-4 -136l-8 -8v-108l24 -40l-4 -28v-88q-8 -4 -24 -128q-14 -72 -36 -100l8 -16l-4 -20v-44l-8 -8h-36l-4 4h-4q16 51 16 88l-4 20h-32l-4 -40l20 4l4 -4v-20q0 -12 -20 -12v-32l-8 -8l-8 8v20h-20q-9 0 -16 -28h-20 l-12 12l8 12v108l12 12q16 0 16 -72h12v40q12 14 12 72h-4l-28 -8l-4 4v24q12 16 12 64h-4l-16 -4v4l4 16l-4 4h-8l-8 -20v-44q0 -7 -24 -20q0 -15 -12 -32v-28l8 -12v-12l-24 -48v-60l-8 -8h-4l-8 8v24l8 12v12l-8 12v12l8 12v24l4 28h-8l-24 -68q-20 -13 -20 -56v-16 l-8 -8h-48q-12 0 -20 72l-24 140l-24 132q-56 30 -56 128l-32 188h-4q-9 0 -24 -112q-10 0 -24 -112q-12 -17 -12 -56q-96 -78 -96 -108v-44l-8 -12l-4 -156v-12l-8 -12v-40l-40 -32q-43 0 -72 36h-236q-12 0 -20 80l-4 4l8 12v4q-19 22 -32 152l-4 32q-7 0 -16 72l-28 28 l-4 104v16l-8 12l-28 196v28q-8 0 -8 12q-19 192 -44 192q-27 56 -60 216q-29 102 -84 128q-68 63 -68 136l-8 8v8zM183 1428l24 -20h8v20l24 28v12h-16q-36 -26 -40 -36v-4zM203 1496l8 -8l16 16l-12 12l-12 -16v-4zM267 1660l12 -4v12h-12v-8zM299 1044h8l8 8v8h-8l-8 -8 v-8zM299 1256l8 -8h24l16 16l-16 12h-24l-8 -8v-12zM299 1536q17 -12 56 -12l40 -20q0 -11 52 -24l12 -12l8 12v8q0 7 -52 28q-56 48 -100 48zM347 980l8 -8q19 18 64 28v8l-16 4l-20 -12l-16 12h-4q-16 -6 -16 -28v-4zM363 1608l12 -12h8v16l-12 12h-8v-16zM375 1308h8v12 h-8v-12zM375 1660l20 -4h4v24h-4zM431 1096h4l12 8l-4 12h-8zM447 1204h8v12h-8v-12zM447 1236h16l8 8l-8 8h-4l-12 -12v-4zM471 1084l20 -4h12l12 12v12l-12 12l-32 -24v-8zM483 300q4 -12 24 -12h4q53 40 68 40v12q-23 0 -52 -24h-12l-12 8h-8l-12 -12v-12zM495 96h20 l-12 12zM507 1008q11 -10 48 -12v8l-28 16h-8zM563 108h4v12h-4v-12zM707 396h12v4l-8 8h-4v-12zM711 108h16l8 8l-8 8h-4l-12 -12v-4zM735 816l8 -8q7 0 32 64l20 20v8h-4q-30 -11 -56 -72v-12zM755 1004l8 -8h28l16 16h-8l-24 -4l-20 4v-8zM815 1308h12v4h-12v-4zM819 564 h24v12h-16l-8 -8v-4zM867 1080h4l8 8v4h-4l-8 -8v-4zM887 1456q4 -17 20 -24h4q5 32 16 32l12 -8q20 14 20 28l4 4h4l4 -4v-16l-24 -44l20 -84l4 -4h4l8 12v12l-8 12v60l12 12l56 -4l12 16l-12 8h-12l-12 -8h-12l-8 8v36q24 20 24 60h-12q-27 -8 -44 -44q-80 0 -80 -60z M947 980l32 -220h8l8 20v120l-8 12l-4 92l-8 8v20l-4 40h-12v-28q-8 -5 -12 -64zM1023 1000h8v12h-8v-12zM1059 660l12 -20h8l4 20l-16 16h-8v-16zM1091 864h12v52l-8 8h-4v-60zM1091 1572h12v4l-8 8h-4v-12zM1103 1060h4q12 0 12 44v40h-12zM1103 1408h12l12 12h-24v-12z M1119 528l12 -8h32l40 -16l8 12v4q0 12 -28 12l-32 20h-8zM1119 1032l8 -8h4v12h-12v-4zM1155 1292v20l8 8l4 -4v-20l-8 -8zM1179 1008l8 -8h4v24h-12v-16zM1211 796h4l8 8v16l-8 8h-4v-32zM1287 112v28l8 8l4 -4v-28l-8 -8zM1295 172v56l12 12h4v-4q0 -68 -12 -68z M1343 424h4l8 8v4l-8 8h-4v-20zM1347 340l68 -60h4v8l-12 16q0 7 32 20v16l-60 80h-8l-12 -12v-20l20 -28q0 -10 -32 -16v-4zM1443 628v20l8 12v12l-8 12l16 28l4 -4v-20l-8 -12l8 -12v-28l-8 -16h-4zM1443 1380l8 -8h4v32h-4l-8 -8v-16zM1443 1524h16l8 8v16h-4l-20 -20v-4 zM1467 996v16l8 8h8l8 -8l-4 -20l4 -24v-4l-8 -8h-4q-4 30 -12 40zM1511 824v4l4 88q8 0 8 16l4 4h4l4 -4v-20l-8 -12v-56q0 -21 -12 -24zM1523 1172v4l4 4h4l4 -4v-4l-4 -4h-4zM1527 1016l4 4h12v-4l-8 -8zM1535 736v64l12 16v80l8 8q8 -68 16 -76v-20h4l12 8l12 -8 q-3 -52 -12 -52l-12 16v20h-4l-8 -8v-360l-16 -16l-8 8v148l8 12v52q-12 10 -12 108zM1547 1472v4q13 48 20 48l8 -24q0 -16 -24 -32zM1547 1572v4l8 8q8 0 8 20l4 4h4l4 -12q-2 -48 -12 -48zM1571 980v28l4 160q8 0 8 12q0 84 12 84l4 -4v-4l-4 -212l-8 -8v-48l-12 -12z M1587 904v4l4 4h4l4 -4v-4l-4 -4h-4zM1591 1424l8 132q8 0 8 28l16 12q-5 46 -12 52l8 8h4q10 0 12 -32q24 0 24 -8v-4q-13 0 -24 -12l4 -4q0 -18 -16 -36v-8l8 -12v-16q-12 -13 -12 -88l-8 -8v-52l-8 -8l-4 4v32q0 20 -8 20zM1595 1288v24l8 8l4 -4v-24l-8 -8zM1623 1408v4 l4 4h4l4 -4v-4l-4 -4h-4zM1643 1368q6 16 12 16l4 -4v-16l-8 -8q-8 0 -8 12zM1647 1660v4l8 8l4 -4v-4l-8 -8zM1671 1564v8h4v-8h-4zM1687 1516v4l8 32v104q0 8 12 8q36 -11 36 -16l-16 -24q0 -12 12 -12v-24l4 -28l-12 -12v-24l12 -16l-24 -16q-11 0 -16 32h-4zM1715 1444 v12l8 8l16 -20v-4l-8 -8h-4z" />
<glyph unicode="X" horiz-adv-x="1162" d="M-16 576v4l4 4h4l4 -4v-4l-4 -4h-4zM92 80v4l28 24l36 92l-60 84l8 8h84q18 2 56 128l100 272l52 136l-136 376l-24 72l4 16q-18 0 -36 60h-88l-8 8l48 68v8h-40l-8 8q36 39 36 64v24l8 12q0 10 -44 64v4l12 12h8l16 -12h32l64 16q9 23 44 60q16 -5 16 -36h8l48 60h4 q8 0 24 -64q8 0 8 -20q52 0 52 -44l20 -44v-16l-20 4h-4l-12 -8q0 -12 24 -12v-4l4 4h12q13 -9 28 -80q52 -150 104 -352h12v20q20 55 128 472l16 48l12 8h104q12 0 20 60h8q24 -24 24 -32h12q0 12 8 12l4 -4v-4l-12 -20v-8l20 -4h8l16 28h12l32 -28h36q8 0 8 -12 q0 -18 -12 -36v-8l12 -16v-16l-36 -28v-12l32 -48v-4l-8 -8h-44q-13 0 -56 -136q-72 -187 -84 -200l4 -4q-22 -97 -48 -128q-52 -133 -52 -160l268 -684l68 -116q-23 -44 -76 -44l-4 -4h-24q-23 8 -36 44h-112q-13 0 -28 12q-15 -12 -28 -12h-36q-9 0 -44 116 q-40 102 -128 384q-11 0 -16 40l-4 4v32h-12q-34 -176 -52 -176h-8l12 -16l-4 -44q10 0 52 100h8q0 -64 48 -104l24 -48v-24q-29 -76 -48 -84h-8q-28 13 -28 60v24l-12 12h-8l-32 -100q-20 -78 -76 -176q-56 -40 -56 -68q-9 -28 -16 -28l-60 84l-40 12h-80q-33 40 -64 40 l-12 -12l-8 8l12 16v12q-16 0 -16 12zM96 16l8 8h4l40 -24l-8 -8h-8zM104 860v4l8 8l4 -4v-4l-8 -8zM176 864l8 8l8 -8l-8 -8zM180 772l12 12l12 -12v-4l-8 -8h-4zM204 1484h8l4 12h-12v-12zM264 1492h44v4l-8 8h-28l-8 -8v-4zM272 1436h4v12h-4v-12zM288 1172h8v12h-8v-12z M308 4v-12h88l-12 12h-76zM308 40q76 0 76 44l12 12v12l-8 8q-11 0 -52 -28q-28 -7 -28 -36v-12zM320 1184h4l8 8v4h-12v-12zM380 1508l4 -12h12l8 8v4h-24zM428 1076h4l8 8v4h-12v-12zM440 892h4v12h-4v-12zM452 488h4l8 8v16h-12v-24zM464 680h12q7 12 52 12q16 24 32 24 l72 -4q48 3 48 16l-8 8l-12 -8h-36l-8 8q8 46 20 68q-12 12 -12 56q-15 12 -28 12h-4q-8 0 -12 -32q-20 -5 -20 -12l8 -12q0 -8 -12 -8l-20 4l-28 -28l-20 4q-24 -32 -24 -72l12 -12l-12 -16v-8zM480 916h8v12h-8v-12zM492 892h12v12h-4l-8 -8v-4zM500 1228h4v12h-4v-12z M504 740q29 48 44 48l16 8h12l8 -8l-8 -12v-12q24 0 24 -8v-12l-28 -16h-28l-12 8l-12 -8h-4zM668 1012l16 -8l8 12l-12 8h-12v-12zM692 316h12q22 0 36 24v4q-33 0 -48 -20v-8zM716 772l16 16h-8l-8 -8v-8zM720 712h12v12h-12v-12zM828 476l12 -12h8l24 24l-12 8h-20 l-12 -12v-8zM848 112q4 -36 16 -36l8 12l-8 12v12q12 15 12 28l-12 8q-16 -5 -16 -36zM884 1460h4v12h-4v-12zM924 164l8 8v4h-8v-12zM932 1428l20 -20l8 8q-8 18 -16 20h-4zM972 44l20 -4h8q9 0 20 40v20h-12q-21 -48 -36 -48v-8zM984 1628l12 -4v12h-12v-8zM996 1460h12 v12l-12 -4v-8z" />
<glyph unicode="Y" horiz-adv-x="1083" d="M27 1636l12 12h52l32 36q12 0 12 -32l20 -4h60l68 88h4q8 -1 32 -84q56 0 56 -60q8 0 36 -120q36 -140 96 -252l20 -60v-12l4 -44q-3 -28 -24 -28v-4q21 0 28 -52l20 -88h12v32l28 128l92 384q12 52 24 52t12 8l-12 16v24q8 10 16 56l16 16h96q9 3 28 68l4 4h4l28 -48h12 q0 24 8 24h4q32 -33 32 -44h16q0 24 12 24l24 -24q0 9 20 12l24 -24l4 -28l-12 -12v-4l12 -24q-28 -5 -28 -12q0 -12 28 -48v-4l-28 -12l28 -40v-4l-8 -8h-52q-18 0 -44 -88l-60 -168q-28 -46 -48 -212l-4 -4v-8q0 -100 -24 -100l-60 -52h-4v12l-20 -4v-12q12 0 12 -8v-4 q-19 -69 -32 -72l-4 12h-12v-8h-4q0 -12 20 -12q-7 -43 -16 -52v-464q12 -17 12 -56q9 0 12 -44l20 -44v-8q-12 -27 -40 -48l-28 28h-136l-112 4l-40 -4l-4 4v76l8 8l12 -4q18 7 32 28v8h-24l-12 -8h-4l-12 12v432l-8 12v44q-32 26 -76 112q-36 36 -108 36q-36 18 -36 96 q15 12 28 12q16 0 60 -40h8v36q-21 32 -40 120l-4 4v4l-4 84l4 12q-12 13 -20 76l-64 172h-40q-6 8 -44 8l-4 4v4l52 84v4q-19 88 -52 88v4l12 20v8zM131 1520l24 -24v-4l-20 -20v-4h8q22 0 32 20l20 -4h24l8 8v4l-8 8l-12 -8l-64 32h-8v-8h-4zM179 1344l4 -32h8q16 0 28 64 q17 0 36 28l-4 4v4q-33 0 -72 -68zM243 1348h20l8 8v4l-12 4l-16 -4v-12zM275 1820v4l8 8l4 -4v-4l-8 -8zM315 1544h8l40 -4l4 4v4q0 16 -28 28h-12l-12 -12v-20zM335 956l4 -4h20q58 28 76 28t24 16l-8 8l-28 -12h-12l-16 12h-4l-32 -28h-20zM339 1860v4l4 4h4l4 -4v-4 l-4 -4h-4zM347 1244l12 -4q36 4 36 16l-16 12h-16q-16 -8 -16 -24zM351 1036h4l8 8v8h-12v-16zM423 1300h8v4l-8 8v-12zM471 124l12 -12l8 12v4l-8 8zM479 1088h4l8 8v4h-12v-12zM495 292l40 -12h4q28 21 60 32l16 20l-12 8q0 -13 -60 -32l-12 8h-12q0 -12 -24 -12v-12z M543 92l20 -4v4l-12 12l-8 -8v-4zM587 996l8 -8h20v8l-8 8h-12zM603 104l12 -4l4 4v4l-8 8l-8 -8v-4zM707 1220l24 -4l4 4v4l-8 8h-20v-12zM723 1028q0 -6 40 -24h8l8 8l-32 24h-24v-8zM747 1404l8 -8l4 4l28 -4q36 0 72 40h20q0 24 28 24q11 28 32 52v8q-43 0 -132 -60 q0 -22 -24 -36h-4l-16 12l-16 -16v-16zM795 1216h12v12h-12v-12zM863 1300h12v4h-12v-4zM879 1592l8 8v4h-8v-12zM1011 1504h12v4h-12v-4z" />
<glyph unicode="Z" horiz-adv-x="1213" d="M30 1560v4h8l8 -8l-4 -4h-4zM102 1580v4h8v-4h-8zM138 1500v4l8 8l8 -8v-4l-8 -8zM226 108v36q8 40 28 40q22 0 44 80q21 32 108 240l4 4l-4 28v12q0 27 28 120v24q0 24 -40 84l-8 16v36q30 50 48 64h16q20 -14 20 -44v-40l12 -12l100 188l68 84q0 14 48 84l80 180v16 h-140l-20 -4l-24 4h-272l-8 8v252l16 20l-4 12l4 4h32l16 -8l84 -4l8 -8h52q14 -16 28 -16q0 16 44 16l4 4v4l128 4h60q13 -16 36 -16h24l20 4l24 -4h44l20 4l24 -4h84q15 -12 36 -12h4l28 8l8 -12v-216l-12 -44q-14 0 -80 -168q-6 -1 -60 -132l-96 -216l-140 -308 q-20 0 -20 -8l4 -36l-88 -196l4 -12h336l12 8h16l12 -8h20l12 8h4l12 -8h52l12 -12v-244l-12 -12h-152q-21 0 -36 12q-14 -12 -48 -12h-612q-12 0 -12 24q-40 34 -40 84zM278 68l8 -8l64 68v16h-8q-62 -27 -64 -36v-4l8 -12v-12zM370 328q40 0 40 -24h12q54 36 72 36h24 q13 0 28 -12h8l12 12l-32 24h-40l-4 -4h-4q-3 23 -20 36l100 140l20 32l-12 12q-27 0 -56 -84q-52 -28 -52 -64q-30 -52 -64 -52q-27 0 -32 -52zM382 1056v8h8v-8h-8zM518 1540h8l16 12q7 -5 16 -68l4 -4v-12l4 -60l20 -4h4l-16 116l4 4h28l184 -40q26 -16 48 -16 q12 -7 12 -28q10 -12 24 -12h28v16q-16 0 -16 24q0 12 -120 36q-18 0 -32 24l-32 -4q-81 0 -140 48h-32l-12 -20v-12zM578 76l20 -4l4 4v4q0 8 -12 8l-12 -4v-8zM586 436l16 -12q31 12 36 24v8l-12 12h-12q-28 -12 -28 -32zM610 168q9 -36 60 -36q0 -5 36 -16l28 -28h20 l12 8q0 -8 12 -8l4 -4v-16q0 -8 -12 -8v-8l20 -4q22 0 32 20q-36 45 -36 60l4 4h4l120 -56q29 -28 68 -28l4 4v8q-5 17 -104 52q-60 52 -100 52v8l24 24v12h-8q-20 0 -56 -24q-24 0 -24 -12l4 -12h24l8 -8l-12 -8q-28 0 -132 28v-4zM614 360l12 -8l24 24v4l-8 8zM614 916h12 l16 16v4h-16l-12 -12v-8zM686 444h8l12 12v4l-20 -4v-12zM710 544l20 -4q0 12 28 12v24h-36l-12 -24v-8zM746 768l12 -8h12v20h-12zM802 804h48l16 16v4q0 8 -12 8l-20 -12h-32v-16zM818 1072l8 8v4h-8v-12zM982 1328l4 -4h4l8 12l-12 8zM1022 204h4l8 8v4h-12v-12z M1042 1460l8 -12l-4 -16q12 0 12 -12l-4 -28h4l12 4l8 -12v-8q-12 -15 -12 -56h12q16 42 16 76l8 8l-24 28l4 80l-16 12h-8l-12 -12v-8q20 -3 20 -12v-4q-11 -20 -24 -20v-8z" />
<glyph unicode="[" horiz-adv-x="569" />
<glyph unicode="\" horiz-adv-x="569" />
<glyph unicode="]" horiz-adv-x="569" />
<glyph unicode="^" horiz-adv-x="961" />
<glyph unicode="_" />
<glyph unicode="`" horiz-adv-x="682" />
<glyph unicode="a" horiz-adv-x="1265" d="M35 112q0 32 28 60h8q37 0 52 -72h8q22 48 32 116q39 84 64 120q0 18 24 72l120 556q13 12 24 12q0 8 -16 8l-4 4v4q10 0 12 52q9 0 24 112v16l-4 16l12 28v48l-8 12v40l56 72l48 236q0 12 8 12h324l8 -8q-16 -5 -24 -20v-8l8 -8h4q32 13 32 40l4 4h8q15 0 40 -160 l16 -84q6 0 8 -44q29 -11 52 -48l4 -4v-4l-20 -32v-8q17 0 36 -72l8 -8v-8l-36 -32l148 -768l48 -232q20 0 20 -8l-12 -16v-16l12 -16l-8 -12v-16l8 -12v-12l-12 -12h-36l-12 -8h-8l-12 8h-4l-16 -12h-12l-16 12h-168q-14 0 -32 120q-36 220 -80 220q0 19 -20 32h-228 l-12 -12l-4 -96q-12 0 -12 -60q-30 -49 -52 -200l-4 -4h-72q-20 -12 -20 -32l-4 -4h-8l-28 24h-4q0 -20 -8 -20q0 9 -28 28v4l-12 -8l4 -4v-8q0 -14 -96 -24l-20 -16h-8q-84 101 -120 124q-12 15 -12 36zM127 1160v8l8 -8h-8zM171 136l20 -4l4 24l-4 12q-8 0 -8 -20z M183 204l12 -12h12v12l-12 12h-4l-8 -8v-4zM219 184l12 -12h32l16 16v4l-12 12h-16q-32 -13 -32 -20zM227 1092v4l8 8l4 -4v-8h-12zM291 448l20 -4q24 0 40 20v8q-47 0 -60 -24zM323 184h24v12h-24v-12zM435 1228h8l24 24l-8 8l-24 -24v-8zM459 240q10 -12 16 -52l12 -8l8 8 v4q0 34 -12 48v4l12 16v24l-8 8h-4q-7 0 -24 -48v-4zM459 624l12 -12h16q15 16 32 16q24 16 24 32h-12q-24 -18 -68 -24l-4 -4v-8zM467 860h4l8 8h-12v-8zM483 1048h8l12 12h-20v-12zM495 436l8 -8h4v8h-12zM527 1416q0 -14 12 -24l60 28h28q13 0 28 -12l8 8l-32 28h-4 l-28 -4l-20 28v4q48 67 48 76v4q-29 0 -60 -60q0 -13 -40 -52v-24zM575 924l16 -4v4l-12 12h-4v-12zM591 640l12 -12h196l4 4h4l-64 396l-48 28h-8l-12 -12v-20q0 -34 -12 -48v-56q0 -39 -40 -140v-8l12 -16l-28 -16l-16 -52v-48zM603 1284q11 -24 40 -24h16v4 q-16 24 -48 24h-8v-4zM675 1084h12q0 29 36 56v20l-24 148h-4q-8 0 -8 -36l-4 -36l-8 -8v-144zM687 1528l12 -4q48 4 48 36l-12 12h-16q-32 -13 -32 -20v-24zM723 1456h20q0 12 12 12v12h-16l-16 -16v-8zM783 1540h8v-4q12 3 16 16h8v8l-12 12l-20 -24v-8zM795 1132 q21 0 32 -28h36l12 -12v-12l-56 -68l-4 -4v-24l4 -20h64l12 8q0 -8 20 -8l12 -24l-16 -60l4 -4h4l16 20v36q0 8 24 8l4 20q-36 9 -36 28h-4q-34 0 -48 -12h-32l-12 12v4l80 92l-32 44l4 4h4q13 0 28 -12h8l4 20q-11 20 -36 20l-12 12l20 20l-8 8h-16l-36 -24h-4l-4 4h-4 l-8 -12q32 -4 32 -12v-4l-8 -8h-12l-12 8h-16l-8 -8v-12zM855 1444h12v12h-12v-12zM879 1548l12 -8l8 12l-12 8zM951 400h8l96 84l-12 12h-32l-12 -12l8 -12q-16 -28 -48 -28v-20l-8 -12v-12zM975 1084h8v12h-8v-12z" />
<glyph unicode="b" horiz-adv-x="1104" d="M77 1324v24q7 24 28 24q8 0 8 20v172q8 6 8 44l24 12h12l4 -4h4q0 8 48 12l4 4h44l16 -16v-76h12v88l8 8h4l12 -12v-36h12v40l8 8h36l12 8h44l12 -12v-32h32v32l12 12h16l12 -8h8l12 8h8l24 -16q0 20 32 24l4 4h44l20 4l4 -24h12q0 24 8 24h8l8 -8v-36q0 -8 -20 -8l-4 -4 v-4l12 -4l4 4l4 -4v-32l-24 -40v-48l-8 -12v-8q20 -23 20 -40q24 0 24 -8l-12 -16v-12q28 0 28 -12q-12 -48 -20 -48l-20 4v-12q10 0 40 -28q-3 -35 -12 -44v-12l20 -8l4 4v40l12 12h4l16 -20v-4l-8 -12v-12l16 -8l12 16l4 -4v-16l-24 -44l4 -20l-12 -32v-16l4 -16 q-16 -21 -16 -64l-8 -20q-32 -4 -44 -16l-12 8l-24 -28l4 -28l-4 -44l4 -32l-4 -48v-8q-8 0 -12 -68l-8 -8v-20l12 -16v-16l-8 -8l-28 36l8 8v4l-12 12l-20 -20h-4l-48 20h-104l-12 -12v-104q0 -61 -16 -112v-8h12q3 20 12 20l24 -16v-8q0 -8 -32 -12l-4 4l4 -28v-216l28 4 h16l28 -4q0 16 72 36q79 0 100 32l16 20v8q-32 60 -56 60l-4 4v4l8 8l28 -16l36 24l8 -8q29 13 44 40l-4 24q0 8 12 8v24l-8 12v16l16 12l4 4v52h-12q0 -16 -8 -16l-12 16v4l16 16l8 -8q0 6 16 12q27 -9 40 -28l12 8q0 92 28 136l-4 28v24l-8 12v36h8v-36h16q0 20 8 20h4 l16 -20q73 -39 120 -140q26 -42 36 -116l4 -4v-20l4 -44l-4 -52v-32q-12 -17 -12 -64q-6 -1 -20 -48q-12 -11 -12 -32q-25 0 -28 -44q-25 -35 -72 -72q-28 -52 -204 -112h-40l-28 -4l-4 4v4l4 24l-4 60v8l-12 12h-8l8 -12v-60q-8 -5 -8 -48l-4 -4h-4l-4 4h-4q4 35 12 44v36 q-8 9 -8 28l-28 -4v-24l-8 -12v-20q20 -1 20 -12q-16 -48 -24 -48h-8q-11 0 -12 20h-4q-8 0 -8 -20l-4 -4h-4l-4 4h-4l4 56l-4 136h-12q0 -24 -16 -24h-4l-4 -60v-28l4 -16q-16 -38 -16 -60l-4 -4h-8l-8 8v28h-8q-16 -8 -36 -36l-4 4v64q0 31 -16 36l-8 -12v-8l8 -12v-4 l-28 -28l-8 8v24h-12q0 -25 -28 -48h-4q-12 0 -12 24h-12q0 -12 -8 -12l-4 12h-16q0 -20 -8 -20h-4q-8 0 -8 40l-4 4h-4l-16 -12q-12 0 -12 24q-16 -6 -16 -28v-12q28 -9 28 -16v-16l-12 -12h-16l-12 8h-40l-16 28v448q0 8 20 8l4 208v40q0 34 -12 48v8l8 12v4l-20 36v272 l-4 144l4 32h-12l-12 -4v4zM113 692v32l8 8l4 -4v-32l-8 -8zM125 148h12v48l8 12v20l-8 24h-4l-8 -24v-80zM125 1096l8 -8l4 4v12h-4zM133 1060q0 -56 20 -56l12 40l4 4v56l-12 16q2 23 12 36v36h-12v-28q-12 -15 -12 -36l4 -40q-16 -6 -16 -12v-16zM137 904l12 -12v20h-4z M137 1216h12v12h-12v-12zM149 820l8 -8h4v8h-12zM161 88h8q12 5 24 36v24l-8 8h-4v-20l-20 -28v-20zM169 252h12l4 48h-4l-12 -12v-36zM169 452l4 -28h8l4 20v60h-4q-12 -4 -12 -24v-28zM185 700h12v24l8 12v24l-4 20l4 4h-8l-12 -12v-72zM193 792h12v4q18 116 24 116v4 l-12 16v16l12 16v48h-16q-9 0 -20 -108v-112zM197 324l4 -4h4l64 80q0 14 36 64v12l-8 8q-7 0 -28 -40l-16 -12h-8q-18 16 -36 16l-4 -4v-16q0 -8 20 -8q0 -8 16 -8l4 -4v-8q-37 -45 -48 -76zM197 588l32 -16v-40h12v24l8 8l4 -4v-28h12l4 28v24l8 12v104l-8 12v16l20 32 l-8 8v44l-12 16v64h-12q0 -16 -12 -28v-32q0 -21 -12 -36v-32l12 -16l-4 -28v-44l-8 -12v-48q0 -12 -24 -12zM205 1156h12q0 11 24 40q11 49 28 56h4q24 0 48 -20l8 12v16l-12 12h-12l-12 -8l-16 16v4q16 24 28 24v12h-36q-23 -8 -36 -44v-12l4 -16q-19 -47 -32 -60v-32z M217 1564l8 -8l4 4v16l-8 8h-4v-20zM241 8l8 8q20 -5 20 -12l-4 -4h-16zM241 604l8 8l4 -4v-12h-4zM241 1000l8 -8l4 4v4l-8 8h-4v-8zM281 88h12v24h-12v-24zM301 8l4 4h12l8 -8l-4 -4h-12zM301 180h12v52h-12v-52zM305 724h12v36h-12v-36zM317 856l8 -8l4 4v12h-4zM325 360 h12q0 16 12 28v8l-8 12v20l8 12v140l-8 24h-12v-24zM325 1060q14 0 16 -32h4l4 4v12l-8 24h-16v-8zM325 1120h12v12l-8 8h-4v-20zM329 1516h8q13 12 24 12v12q-32 -2 -32 -12v-12zM337 888l8 -8l20 16v8h-12zM337 1368h4v12h-4v-12zM341 244h12v12h-12v-12zM345 4v8h12v-8 h-12zM361 436l12 -4q16 0 16 48h-4q-8 0 -8 -24l-16 -8v-12zM365 776l8 -12v-8q0 -47 8 -64l-8 -32v-16q0 -28 12 -28v-4l-8 -12v-40l8 -12v-56h12l4 12l-8 68l4 16v28h-12l16 64v16q0 13 -12 28v48l8 12q-8 7 -12 60h-12l-8 -16v-52zM365 1072l12 -12q0 7 32 20v28l-8 8z M373 292h12l4 20h-4l-12 -12v-8zM377 48l4 4h4l4 -4v-8h-4zM377 124q12 0 12 -12h12v96h-12v-24l-12 -16v-44zM377 1192h8q16 0 16 64q-2 40 -12 40h-4v-48l-8 -12v-44zM401 264h12v24h-4l-8 -8v-16zM421 112h12v12h-12v-12zM421 764h4l8 8h-12v-8zM421 928l8 -8l4 4v16 l-8 8h-4v-20zM425 88l12 -12l8 12l-12 12h-8v-12zM425 976l12 -12h76q8 8 32 8q16 12 52 76l12 4q16 0 16 -28h12v28l16 72l-4 64q27 0 48 28v8l-8 12v4q12 17 12 32q-17 5 -48 72q-60 48 -60 56l-16 24v4q0 8 28 32v16l-16 16l4 60v32h-4q-9 0 -12 -36l-24 -8v-36l-8 -12 v-44l-12 -16l4 -4v-4l4 4h8l16 -16v-8h-88l-8 8v8q0 8 12 8v4l-8 12v24l8 12l-8 8h-4q-12 -81 -28 -92q-16 -2 -16 -12v-84q10 0 24 -20q-24 -8 -24 -16v-288zM437 160h12v32h-4l-8 -8v-24zM449 880h12v12h-12v-12zM473 760q0 -12 44 -16l4 4v8q0 9 -28 16l-8 44h-4l-8 -20 v-36zM473 856l8 -8l4 4v24h-4l-8 -8v-12zM493 8v24l8 8l4 -4v-24l-8 -8zM509 1552l8 -8l4 4v36h-4l-8 -8v-24zM533 144h12v16h-12v-16zM533 856l16 -20l8 12v24l-16 16l-8 -8v-24zM565 1184l4 4h4l8 -8l-4 -4h-4zM593 856q10 0 28 -16l28 100l4 12h-12q0 -16 -8 -16 q-28 0 -28 24h-4l-8 -8v-96zM593 1176l4 4h12l8 -8l-4 -4h-12zM601 988h12v12l-8 8h-4v-20zM605 888v8l8 8l4 -4v-12h-12zM625 1612h24l-12 12h-4l-8 -8v-4zM637 204h4l12 -8h8q0 15 48 32q13 -11 16 -56h8l4 12l-4 32l16 12l-4 4v8q15 56 36 56l4 16v4q-31 0 -56 -56 q-9 -32 -56 -32l-4 -4l-20 20q-12 -17 -12 -40zM661 720l12 24l4 84l8 8v80l-8 12v4l8 8l12 -8q10 56 40 56h4q9 0 12 -20l-16 -16l12 -16q0 -32 -16 -32v-64q0 -14 16 -28v-60l-28 -24v-4l4 -16l-4 -28v-44l4 -40l-4 -4h-12l-36 40v56zM677 1452v16q12 10 12 20h8v-20 l-16 -16h-4zM689 760l8 -8l4 4v12h-4zM701 312h12v16h-12v-16zM709 400l4 -28h20v16l-12 12h-12zM709 1164l4 -20h12l12 36h-28v-16zM713 928h8v-4l12 4v12l-8 8h-4zM721 288h12v16h-12v-16zM721 1316q18 55 28 64l-4 32l4 120l4 4h8l24 -16v-36l-12 -16v-8q12 -13 12 -68 v-24q0 -8 -12 -8v-60l-12 -12q-40 20 -40 28zM749 400h12v12h-12v-12zM749 828v8q14 44 20 44q12 -30 20 -88q8 0 8 -20q-2 -37 -12 -48v-24l8 -8l28 104h4l4 -4v-92l-8 -24l-4 -24l-4 -4h-28l-12 12v156q-21 0 -24 12zM749 1564v48q7 6 12 52l40 28l4 -4v-20 q-12 -14 -12 -48v-12h-12v28h-12v-88h-12zM793 956v4l8 8l4 -4v-4l-8 -8zM797 1000v24q12 13 12 68l-12 12v20l8 12l4 84q8 0 8 44l12 12l4 136l8 8v44q0 32 16 72l-12 12v4l8 12v36l8 8q19 -9 28 -28v-64l-8 -12l-4 -160l-8 -8l-4 -100q-8 0 -8 -12l-4 -4h-4l-4 4h-4 q-12 -10 -12 -108v-56q-12 -14 -12 -48v-16l-8 -8zM805 556h12l4 36h-8l-8 -8v-28zM817 972q12 0 12 48l4 4h4l16 -20l-20 -28v-64h-12v12zM817 1556v12l8 8l4 -4v-12l-8 -8zM821 864v8l8 8l12 -12v-4l-8 -8h-4zM841 1112v4l4 76l8 8l12 -32q-9 -9 -16 -60h-4zM845 1672 l8 12v12l-8 12l12 12h8q22 0 28 -16v-56l-12 -12h-12zM865 972v40l8 8l4 -4v-44h-12zM877 136h4v12h-4v-12zM893 972v8l8 12l4 136v4l8 12v48l4 140q8 0 12 48l8 8v80l-8 12v4q8 5 8 48l4 4h4q36 -61 36 -112q8 0 8 -20v-40l-12 -16v-12q24 0 24 -28v-32l8 -12v-60l-8 -12 v-4q0 -61 -40 -148q0 -32 -24 -32q-26 -42 -36 -44zM901 1560v8l8 8l4 -4v-12h-12zM937 244h12v24h-12v-24zM949 360h12v16h-12v-16zM965 396h12v12h-4l-8 -8v-4zM989 388h12v36h-12v-36zM1033 516h12v28h-12v-28zM1061 728l4 4h8l8 -8l-4 -4h-8z" />
<glyph unicode="c" horiz-adv-x="1075" d="M-206 932v4l8 8l4 -4v-8h-12zM-154 1196v8h4l12 -12l-4 -4h-4zM-78 1192v4l4 4h4l4 -4v-4l-4 -4h-4zM-58 1120l8 8h4l8 -8l-8 -8h-4zM90 792v44l4 140q8 0 8 12q0 77 52 240l36 84q117 206 280 280h8v-8l-20 -24l-8 8l-12 -12l4 -12l-4 -64v-24l16 -20v-32l-4 -40l4 -16 l-4 -64l4 -48q-5 -24 -12 -24l-12 8q-13 0 -16 -60l-24 -24v-8l8 -8l48 80q20 -23 20 -36v-4q0 -33 -28 -140q0 -36 -8 -36l-4 -128v-76l4 -120l8 -8v-404q-12 -16 -44 -28l-24 -44v-8l24 -24h8l12 8h20l-4 -20v-20l8 -12v-28h4l8 8v48l8 8h4l4 -20v-64l-24 -16h-24 q-77 36 -108 36h-12q-40 -16 -64 -16h-40q-25 13 -52 72l24 24h16l48 -20h8l8 8q0 8 -68 96l-24 72v48q-12 35 -28 140q-8 0 -8 28q-12 35 -20 108h-4zM174 1148q84 65 84 72l-12 12h-24l-12 -12l4 -20q-40 -20 -40 -32v-20zM222 416h16v12h-16v-12zM370 804h8v-4 q24 8 24 16l-12 12h-12l-8 -16v-8zM382 936h12v12h-12v-12zM382 1464l8 -8l4 4v12h-4zM406 1412h4l8 8v4h-4l-8 -8v-4zM462 268v4q4 40 12 48v12l-12 16l4 120l16 12l16 -32v-40l-8 -16l-4 -112l-20 -16zM462 1252l8 8l8 -8v-8h-8zM498 72v16l8 8l4 -4v-16l-8 -8zM498 1572 v28q7 11 48 28l4 -4l4 4h8l8 -8l-32 -48v-48l8 -12v-24q-12 -10 -12 -108v-20l12 -16v-72l-32 -36l-4 4v4l4 164q0 23 -12 40v4q12 12 12 96l8 8q0 8 -24 16zM534 28v12l8 8l8 -8v-12l-8 -8zM534 192v28l8 8l8 -24v-16l-8 -8zM534 324v12l8 8l4 -4v-12l-8 -8zM562 1372v8h4 v-8h-4zM562 1392v8l8 8l8 -8l-12 -12zM586 1572v4l12 16l-4 20v16l12 12l4 -12l-4 -36l4 -24l-12 -8zM606 268v48l8 8q14 -16 76 -32l20 -8l4 -4v-28h4l16 32h12q94 0 160 60l48 -40v-4q-12 -36 -28 -44q-8 0 -8 12l-4 4h-20l-8 -8v-24q24 0 24 -52l12 -12v-16l-4 -28 l12 -12v-4l-8 -12v-4l8 -12v-8q-20 -14 -20 -36q0 -12 -8 -12l-8 8v24l4 28l-4 4h-8q-5 -76 -28 -84h-8l-12 12v36h-12q-3 -52 -16 -52h-8l-12 12v68l-4 68h-12l-8 -16v-16q0 -52 -12 -52q-8 0 -8 12l4 12h-8q-16 -6 -16 -28v-12q36 -11 36 -20v-16l-20 -20h-64 q-12 0 -24 88l-4 4h-4l-4 -20v-52l-12 -12h-12l-8 8v16l12 32l-12 20v48l8 12l-8 8v28l12 12h4l8 -8v-44h12q10 40 16 40l8 -28h12v24l20 24v4l-20 56h-4q-11 -56 -24 -56h-8q-32 20 -32 56zM610 1364v16q0 8 24 16q12 20 56 20l8 8h56l28 -16l8 12v28l-12 12h-4l-44 -20 l-4 4v4l4 16l-12 8q-10 0 -16 -32h-8q-11 5 -40 64l-12 8l4 48v4q0 14 -16 28v8q0 8 12 8v12l-8 12v4l20 16h12l4 -4h4l8 8h28q8 0 8 -24q36 0 36 -28l-12 -20q20 -11 20 -24h12v8q0 84 12 84h4q13 0 24 -132v-68h12v40l8 8l-4 4v4l4 4v4l-8 8v20l8 12v52q0 44 12 44l12 -16 v-112l8 -8q0 6 40 16v16h-4l-28 -4l-4 4v8q0 84 12 84h4l8 -8v-24h12q0 24 8 24h8q44 -13 44 -24l-8 -12l16 -20l4 4h4l20 -16l-48 -32v-4l24 -24q-32 -12 -44 -28l20 -20q-24 0 -24 -48q-9 0 -16 -48l-12 -8q-73 28 -148 28q-60 0 -124 -36h-4zM706 92h8q7 0 24 28v48l-8 8 h-4v-32l-20 -28v-24zM762 192h28v8l-4 4v4l-24 -4v-12zM826 96h12v24h-12v-24zM838 208l16 -32h8v4q0 68 -12 68h-4v-20l-8 -12v-8zM922 56l4 4h4l4 -4v-8h-4z" />
<glyph unicode="d" horiz-adv-x="1167" d="M75 1348q7 24 28 24q16 0 16 12v220l32 16h8l4 -4h4q0 8 48 12l4 4h36l4 -4h4l8 8h76l12 8h40l4 -4h4l8 8h28l140 -4l8 -8h8l24 20h100l4 -4h4q79 64 88 64h24q56 -37 56 -44v-16q0 -21 -64 -24h-20v-12q3 -9 84 -64q44 -55 56 -108q87 -160 108 -252q16 -54 24 -116 l4 -4l4 -104l8 -8v-244q-8 -8 -12 -48l4 -12q-16 -134 -60 -272q-12 -10 -28 -64q-43 -79 -112 -160q-133 -109 -220 -124q-59 -23 -132 -32v-4l-128 -4h-60l-168 4l-8 8h-32q-21 0 -28 16v1200l-40 116zM215 1116l8 -8h4l96 68h12v12l-12 12h-8q-100 -32 -100 -84zM219 648 q14 0 60 -44v4l-4 20q10 10 52 20v32l-8 8q-8 0 -8 -20l-4 -4h-4q-16 0 -16 40q-29 16 -64 16l-4 -4v-4l16 -20v-4h-16v-40zM315 192l28 -20h8l12 8q-11 31 -24 36zM323 1576l12 -8l12 16v28l-12 12q-8 -8 -12 -48zM327 100l20 -4v4l-8 12l-12 -4v-8zM327 532l8 -8l4 4v4 h-12zM407 1164l8 -8h4l4 12l-4 12h-4l-8 -8v-8zM435 268h8v-4l40 4h48q9 9 52 12l28 16q66 45 96 136v4q-20 17 -20 68l-88 52v16l16 16h4q38 -12 60 -36h12l32 68q48 25 48 112v72l8 12v72l-8 12v8l-4 140q-7 0 -16 68q-28 113 -56 148q-26 53 -100 104q-28 13 -84 20l-4 4 h-28q-8 -8 -36 -8l-8 -12v-800q19 -39 44 -64q0 -10 -40 -20l-4 -4v-216zM447 12h8v4l-8 8v-12zM447 1460q8 -9 8 -28l20 -4l-8 -20l4 -4h4l16 12h28q49 0 68 28l-8 8h-12q-25 -24 -60 -24l-52 52h-8v-20zM687 208h12q6 8 44 8q7 12 28 12q36 16 36 40q13 28 60 76q8 0 8 28 q6 0 24 40l-8 8l-36 -36q-39 16 -84 16v-12q42 -14 72 -36v-4l-36 -48q-13 0 -20 -40q-14 -21 -100 -40v-12zM687 1576l24 -24h8q8 0 16 24h8q0 6 -28 20h-8zM735 1204l16 -20l8 44l-4 12h-12l-8 -16v-20zM755 1400l8 -8h4v4l-8 8h-4v-4zM767 444h4v12h-4v-12zM783 628h8v12 h-8v-12zM791 808h12l12 12l-12 8l-12 -12v-8zM803 728h4l12 12v8l-16 -16v-4zM851 1096h4q60 67 60 108l32 24q-18 36 -24 36h-8q-16 -8 -16 -24l4 -48q-18 -13 -48 -72l-4 -4v-20zM867 820h12v8h-12v-8zM911 912q0 -24 24 -24l16 28v8h-28zM923 588l8 -8l20 16v8h-12z M987 1264l8 -8l4 4v4h-12zM1059 888l4 -4q20 5 20 12l-8 8z" />
<glyph unicode="e" horiz-adv-x="827" d="M60 4v200l4 40l-4 56v448l4 36l-4 40v440l8 8l12 -12h4l4 12l-12 12l-4 -4h-4l-8 8v40l24 28v4l-24 28v224l8 8h688l12 -12v-252l-12 -12h-76l-44 -4l-16 4l-4 -4l-28 4h-200l-12 -12v-356l8 -8h20l128 4q3 7 140 36q29 0 32 -40q40 0 40 -16v-232l-12 -12h-344l-12 -12 v-204l8 -12v-20l-8 -12q27 -30 32 -52h4q23 24 44 24q76 0 76 -24q0 -38 -52 -56l-8 -8v-4q0 -8 32 -8l8 -8h52l12 8h8l12 -8h8q108 -5 128 -32v-8h24l40 4l8 -12v-12q-12 -15 -12 -56v-24l4 -20l-4 -24v-60l4 -4v-4q-13 -12 -24 -12v-12l20 -20v-8l-12 -16v-8l8 -12l-8 -8 h-108l-56 16q0 8 -32 8l-8 8h-20q-34 0 -48 12q-4 -12 -24 -12h-252l-12 -8l-12 8h-140zM88 1180l8 -8h32l20 20l-8 8l-4 -4h-4l-28 12l-16 -20v-8zM100 144l12 -12h8l16 16l-8 8h-16zM112 900h12v12h-12v-12zM120 524h12v4l-8 8h-4v-12zM132 968h12v4l-8 8h-4v-12zM144 400 l8 -8h12q20 28 60 28l44 -4v4l-4 12h-44l-12 8q-19 -18 -64 -32v-8zM168 -212l4 4h4l4 -4v-4l-4 -4h-4l-4 4v4zM172 1076h8v4l-8 8v-12zM184 528h12v8h-12v-8zM196 168l20 -4q64 16 64 28v8l-12 12q0 -17 -72 -32v-12zM208 1344q0 -13 44 -20l4 -4h12q30 25 116 68l4 4v12 h-24l-52 -36h-28l-12 8h-20l-24 -20h-20v-12zM216 836q1 -15 36 -28l28 16h88q22 -6 64 -48l16 -8l8 12q-52 32 -52 56l-120 4h-28l-20 -4l-8 12l4 16h-12zM232 -172l8 8l12 -12l-12 -8l-8 8v4zM252 1580l8 -8h4l4 12l-4 4h-4zM264 1004l8 -8h4l12 12l-12 12h-4l-8 -8v-8z M280 1056h8v12h-8v-12zM324 88l8 -8l8 8l-8 8zM356 316l4 -4h4v12zM376 280l8 -8h72v4l-8 8h-4l-56 4l-12 -4v-4zM384 328l32 -32h4v28l-8 12v36h-8q-9 0 -20 -40v-4zM412 72h12v12h-12v-12zM444 -296l4 4h4l4 -4v-4l-4 -4h-4l-4 4v4zM484 1440l8 -8l28 24v4l-12 4 q-24 -8 -24 -16v-8zM564 24h16v12h-8l-8 -8v-4zM568 216q72 -27 100 -48h8l12 12l-72 36q0 12 -28 12h-20v-12zM612 1580l8 -8h28l12 8h12l4 -4h4l4 4v4l-8 8h-64v-12zM708 1580l16 -8l8 8v4l-8 8h-16v-12zM720 1464h4q12 0 12 44v28h-12v-4z" />
<glyph unicode="f" horiz-adv-x="989" d="M75 1300q0 26 36 36l4 4v280l12 12h288l24 20h204l4 -4h4l8 8h52v-4l-8 -12v-8h84l24 24l-8 8h-40v4l8 8h24l4 -4h4l8 8h12q96 -103 128 -104l20 -24v-20q0 -56 -16 -56h-24q-27 17 -44 56h-4q-12 -2 -12 -32v-92q-8 -8 -12 -52l-32 -28h-4l-80 16q-42 12 -100 12h-204 l-12 -12v-156q-14 -24 -48 -24l-4 -4v-4q0 -7 28 -12v-4l-12 -4q-34 0 -96 24l-4 -16q74 -28 88 -40q0 -16 8 -16l32 4l8 -12v-8l-24 -16q0 -24 -48 -72v-28h16l16 12h4l36 -12q0 -12 40 -12l4 -4l-8 -52h8q10 0 20 52l4 4h68l36 -20h8l16 32h160l16 -32v-240l-12 -12h-36 l-12 8h-4l-12 -8h-164q-123 -5 -128 -24l-4 -4v-532l4 -24l-4 -20l4 -20q-4 -40 -12 -40h-196l-12 -8h-4l-12 8h-72l-8 8v4l20 40v76l-20 24v752l8 12v4l-8 12v156q0 113 -40 204zM127 688l8 -8q21 0 24 12l-4 4h-8l-20 -4v-4zM135 1548h4l44 48l-8 8h-4l-36 -36v-20z M151 1376q8 -8 56 -12l8 -8l8 12q-19 21 -52 24q-18 -8 -20 -16zM219 1176h8v8h-8v-8zM223 728l12 -8q0 8 12 8l4 4v4l-8 8q-18 -8 -20 -16zM223 1536l12 -12q28 14 28 20l-12 12h-16l-12 -12v-8zM247 1456l8 -8l24 24l-4 4h-4q-17 -4 -24 -20zM319 1544l12 -8l8 12l-8 8z M367 1604l12 -8l16 16l-8 8q-18 -8 -20 -16zM379 1440h16v4l-8 8l-8 -8v-4zM387 988l32 36h8v-36l-8 -8h-24zM443 1108h4l140 -140l-8 -8h-4q-13 3 -128 124zM451 1476l8 8v4h-8v-12zM487 1148v8h12v-8h-12zM503 1620l8 -8v8h-8zM523 1548h8l-8 8v-8zM571 1440h12v8h-12v-8z M571 1516l12 -12l24 32l-8 8l-28 -24v-4zM647 1604l20 -20l12 16v8l-8 8h-16l-8 -8v-4zM707 716h8v12l-8 -8v-4zM719 1116v4h8v-4h-8zM731 1372l4 -4h8v12h-4zM759 728l12 -12h8l8 8v4l-20 12z" />
<glyph unicode="g" horiz-adv-x="1259" d="M32 1456l4 4h8l8 -8l-4 -4h-8zM180 228l24 20l40 -20l32 -28h16v4q0 11 -68 132l-24 88l-4 236l-8 8l-4 124l4 132v12l8 16q0 111 72 304l12 12l8 -8l8 8l-8 24q26 76 140 192l4 4h4q3 -21 24 -36v-72l-8 -12v-4l8 -12v-28l-8 -12v-56l-8 -8h-16l-12 8h-4l-12 -12v-8 q48 0 48 -28l8 -20q0 -13 -16 -32v-8l32 -28l-20 -40v-24q12 -15 12 -28v-4q0 -8 -20 -8l-4 -4v-68l8 -12v-20q12 0 12 -8v-28l-20 -24v-656l-4 -84l4 -28l-4 -4h-4q-38 22 -68 28l-28 -4h-52q-72 0 -104 124zM208 924l4 -36v-4h12q9 0 32 44l4 4l-12 12q0 -8 -32 -8z M220 608l4 -20h4q23 13 32 28l-4 4v4q-36 -5 -36 -16zM220 728l12 -8h4l-4 20zM260 504q25 -60 32 -60h8l16 16l-4 20q33 29 56 88v4l-12 12h-4q-18 -47 -52 -68l-12 -16q-10 0 -12 16h-4zM292 756l12 12h-12v-12zM332 1632v4l8 8h8l8 -8v-8l-8 -8h-4zM336 1764v8l8 8v-8z M344 372l8 -8h4v8h-12zM352 896l12 -8l16 16l-8 8h-4zM360 400l8 -8l8 8l-8 8zM368 448l36 -8v12l-12 12h-4zM380 308l12 -8h8l12 12v12h-4q-28 -5 -28 -16zM400 788h8v4l-8 8v-12zM400 1728v4l8 8h4l12 -12l-12 -12zM420 516h8v8h-8v-8zM452 80v44l12 12l8 -16v-44l-8 -8z M460 212v4l16 16l8 -8v-20l-16 -16zM464 264v4q8 6 12 64l-8 20l4 24l-4 12q8 46 8 156v56l12 16q-4 59 -12 64v28l8 12v12l-4 16l4 12h4q12 0 12 -84l8 -8v-28l-8 -12q9 0 16 -48l4 -4v-56l8 -8l16 12l4 -4v-4q-39 0 -52 -156v-12l-8 -12v-80l-8 -8zM484 876l16 152v4l8 12 v20l-12 16q0 49 16 64l-8 12l4 20v32l12 12h4l16 -8v-8h-8v-60l4 -36l-4 -40v-44q-12 -15 -12 -28v-56l-8 -16l-4 -100h-12q-12 26 -12 52zM500 60v28l8 8l4 -4v-28l-8 -8zM508 1440l4 28v24l8 12v32q0 22 16 28h8v-4l4 -60q-3 -64 -12 -64h-20l-4 4h-4zM512 228v4l8 8l4 -4 v-4l-8 -8zM512 336v8h4v-8h-4zM512 1248v64l8 12v76l8 8l8 -8v-36l12 -16v-92l-24 -16h-4zM536 192v36l8 8l12 -24v-24l-8 -8zM536 328v8l8 8l4 -4v-8l-8 -8zM544 40l8 8v-8h-8zM564 1368q3 40 12 40l8 -8q0 -21 -20 -32zM576 1168v8h4v-8h-4zM580 364v4l4 4h4l4 -4v-4 l-4 -4h-4zM592 1572v12l16 16l8 -8v-20l-12 -12zM608 272v100l8 8q36 -46 100 -88q0 -40 8 -40h4q1 32 16 32h4q15 -12 56 -12h40q31 0 36 16v48q14 54 28 68q34 0 36 104v4l-4 56l4 52l-4 28l16 40v16q0 14 -16 32v124l-16 28h-4l-4 -20v-60q0 -44 16 -108l-12 -24v-32 l8 -12v-36l4 -20l-12 -12v-4q12 -15 12 -68l-16 -4v-4l12 -16v-24l-12 -12h-12l-8 8v192q-17 40 -44 40q-24 0 -32 56l12 24l4 84q-16 0 -16 8v12l4 32l-4 32l12 12h124l12 -8h8l12 8h136l8 -8q-20 -5 -20 -12v-4q24 0 24 -32q14 -40 28 -40l8 -20l-4 -28v-40 q-24 -17 -24 -68l-8 -8v-52l8 -12v-40l-8 -12v-60l-24 -16v-4q24 0 24 -116q8 -5 8 -48l4 -4h4l8 8l-4 24q4 53 12 60v56l8 8l32 -156v-8q-8 -40 -40 -40v-96q0 -16 -44 -28q0 -27 -16 -44v-4q0 -7 28 -12v-16q-5 -12 -36 -24h-20l-8 8v136l-8 12v44h-4q-8 0 -8 -28 q-17 -4 -24 -20v-128q-12 -10 -12 -36l-4 -4h-4l-8 8v20h-8l-36 -28l-4 4v32l12 12h12l12 -8h8l20 16q0 8 -12 8l-12 -4l-4 4v4l4 16l-4 4h-8q-9 0 -16 -28h-4q-7 0 -12 20l8 16l-4 40v60l-8 8h-4v-24q-11 -10 -16 -56l-4 -4l12 -16l-4 -20l4 -24v-4q0 -8 -16 -8v-24 l-12 -36h-4l-4 4h-4l4 28v40h-4q-8 0 -16 -76l-4 -4h-16l-12 12v48h-12l-12 -56l-4 -4h-8l-12 12v104l-12 40h-4l-8 -8v-40l-12 -40h-4q-6 35 -16 48v40q0 8 20 8l4 4v4q-12 15 -12 40l-4 4h-8l-36 -24h-4l-8 8v32l-4 28q-12 -2 -12 -32v-24l-12 -16l-20 4h-4q0 -24 -12 -24 l-8 8v80zM616 92v40l8 8h8l12 -8l24 28l12 -8h8q0 24 12 24h12l12 -12v-20q-12 -15 -12 -44q15 -48 32 -48l16 -4l4 -4v-28q0 -8 -12 -8q-72 0 -72 12l8 8v8q-24 0 -24 32q0 24 -12 24l-8 -12v-44l-12 -12l-12 12v16l8 12q-12 15 -12 28zM616 1240v56l4 16l-4 16v4 q0 71 24 108q0 85 12 96v20l-20 40q14 20 40 32l4 -4h4l32 16h4l16 -16l4 4h8l16 -20l-12 -24l24 -24h4v48l12 40h4q14 0 24 -88l4 -4h4l-4 -40v-64h12l4 12l-4 20l4 156q8 0 8 12l4 4h4l8 -8v-96l-8 -12q10 -28 16 -28h4q0 12 36 20v16h-24l-12 12v40q7 6 12 52l4 4h4 q4 -48 12 -48h4q8 48 20 48h24l8 -8l4 4h12l12 -12v-56q0 -13 -48 -20v-12l12 -12q8 8 36 8q0 6 36 20l4 -4h4q0 8 24 12q5 -24 12 -24l8 56h-16q-13 0 -28 -12h-4l-12 12v24l12 12h8l8 -8l4 4h12l32 -16l4 4h4l44 -24l4 4h4l8 -8l4 4h4l20 -16l4 4h4l12 -12l-56 -32 q-13 36 -20 36q-12 -12 -12 -28h-4l-20 4v-68l-8 -12v-16l20 -28v-16q-7 -5 -16 -68l-12 -12q-60 13 -60 48l-4 4v36l8 8l12 -8h4v12l-16 8l4 40v20h-4q-10 0 -24 -112v-24l-4 -4v-4l-20 4h-44l-12 8l-8 -8h-8l-12 8l-12 -8h-8q-105 0 -200 -76h-8q0 24 -8 24l-16 -24l4 -24 l-24 -32zM648 1372q11 -17 36 -28l8 8v8q0 9 -40 20l-4 -4v-4zM692 1608l8 -8h4l8 8l-12 12zM728 852v64l8 8l4 -4v-64l-8 -8zM732 832v8h4v-8h-4zM748 708v32l4 20l-4 28l24 88v44l12 12h12l12 -12v-16l-12 -16v-48l-20 -36q12 -15 12 -28v-44q0 -64 -12 -64q-8 0 -8 12 l4 12h-4q-18 8 -20 16zM832 96h12v24l-8 8h-4v-32zM832 884h8v4l-8 8v-12zM848 188l12 -12h8v24l-8 12v36h-4l-8 -8v-52zM856 732h12v36h-12v-36zM856 1488h12v16h-4l-8 -8v-8zM860 836h8l12 20v8l-8 8h-4q0 -19 -8 -28v-8zM872 896l8 -20l16 8v8l-8 8h-16v-4zM892 144l8 8 l-4 4h-4v-12zM892 252h12v12l-8 8h-4v-20zM928 48v4l8 8l4 -4v-4l-8 -8zM928 908l12 -8l12 12l-12 8zM952 272h12v16l-8 8h-4v-24zM956 552q8 -5 8 -48q16 0 16 68h-4l-20 -8v-12zM968 128l8 -8h4v20h-4l-8 -8v-4zM968 776l8 -8h4v24l-12 -12v-4zM976 248h12v4l-8 8h-4v-12z M988 168h12v36h-12v-36zM988 308h12q0 23 12 40v24l-8 8h-4q-12 -38 -12 -72zM1000 520q16 -52 24 -52h4v16q0 56 -24 56v-4zM1000 888h12v12h-12v-12zM1024 560h12v16h-12v-16zM1024 620h12v48l-12 -12v-36zM1024 780l4 -28h12v36l-4 28h-8l-4 -20v-16zM1024 852h8 q8 0 8 12q-2 32 -12 32h-4v-44zM1036 248h12v4l-8 8h-4v-12zM1036 436q6 -16 12 -16h4l24 52l-12 16v20l8 12l4 144l-4 32h-12v-24l-8 -12v-40l12 -16v-8l-12 -16v-16l8 -12v-4l-8 -8l-12 8h-4v-16l12 -16v-12q-12 -15 -12 -68zM1040 40v8l8 8l12 -12l-12 -12zM1060 296h12 v4l4 60h-12l-4 -60v-4zM1060 816l4 -4h4l8 8v20h-12zM1084 152h12v16h-12v-16zM1084 856l16 -16l8 12v32l-16 16h-8v-44zM1140 1496l12 16q16 -6 16 -12l-16 -12h-4z" />
<glyph unicode="h" horiz-adv-x="1409" d="M79 1584v36l12 12q16 -15 16 -76l12 -12l-4 -40v-56h-12v24q-8 10 -24 112zM107 48l8 12v8l-8 12l8 8v32l-8 12v4l8 12v328l4 128l8 8v60q-8 9 -12 44l12 24l4 84l-16 16v380l16 20v12l-16 20v104l-8 12v40l20 16l4 180l12 8h4l8 -8v-116l-4 -20h12q0 25 36 28l8 -12l4 4 h4q8 -8 36 -8q47 -22 56 -36v-4q0 -8 -20 -8v-8h-4q4 -30 12 -40v-72q3 -24 12 -24h4l8 24v44l-8 12l24 4v60l-4 60l-12 4l-20 -4h-12q-15 12 -56 12h-16l-20 12l-20 -4l-8 12v44q8 8 8 36l12 8q5 -36 12 -36h4q0 24 20 36h48l12 -12v-48h8l20 8v40l12 12h68l16 -12l8 8h4 l8 -8v-48l-16 -28h-8l-12 4v-12h4q-4 -53 -12 -60v-24l32 -36l-8 -12v-28l20 -24v-332q0 -13 12 -28v-60q-8 -8 -8 -32l-32 -16h-8l-12 4v-4q0 -24 -36 -24h-4q-8 0 -8 20l-4 4h-8l-12 -40v-4l12 -12h8l36 20h8l24 -20q8 8 8 36l24 12q14 -52 40 -52h8v4q0 26 20 104h4 l12 -36v-44l-8 -12v-60l-16 -56l4 -36l-4 -4h-12l-12 12v4l4 28l-4 4h-4q-13 0 -20 -40q-12 -4 -12 -24v-136l-8 -8l-12 4l-4 -4v-4q0 -20 24 -40v-220l-8 -12v-12l8 -12l-20 -24q20 -14 20 -36l4 -24q-16 -21 -16 -64l12 -28v-16l-16 -24h-12l-16 12l-12 -8l-4 4v60l4 16 l-4 16l24 8v40h-12v-20l-8 -8q-5 46 -12 52v16q0 31 -12 64h-4q-12 -12 -44 -16l-4 -4h-8l-12 8h-4v-20q0 -11 -44 -20q-11 -26 -40 -60v-24l4 -4v-4l20 4h8l8 -8l-4 -20l4 -24v-4q0 -8 -16 -8v-24l-16 -24l-4 4v52l8 12v4h-12q-14 -72 -24 -72h-16l-8 8v32h-12 q0 -16 -8 -16zM127 84h12v24h-12v-24zM143 176l12 -12h8v24l-8 12v36h-4l-8 -8v-52zM151 720l8 -8l4 4v40l-8 8h-4v-44zM163 840h12v12l-8 8h-4v-20zM167 344l20 4l4 140v116l-8 8h-8v-84l-8 -12v-4l8 -12v-32l-8 -12v-112zM167 1056q12 0 12 -8v-20h12l-4 40h-4 q-16 -6 -16 -12zM167 1124l8 -8h4v20h-4l-8 -8v-4zM179 236l8 -8h4l8 16v8l-8 8h-4zM211 796q0 -41 16 -112l-12 -12v-40l8 -12v-56l4 -4v-4l-12 -4q12 -15 12 -72l-4 -52h12l4 60v36l-4 32l4 32l-4 60q16 5 16 36v8q0 14 -16 32v124l-16 28h-4l-4 -20v-60zM211 924l8 -8 l4 4v4l-8 8h-4v-8zM211 1056h8l8 8v16h-12l-4 -20v-4zM215 1448h8v8h-8v-8zM223 36v4l8 8l4 -4v-4l-8 -8zM223 1116l8 -8q24 35 40 80v24h-12q-8 -16 -8 -48l-28 -40v-8zM223 1184l4 -4h4l16 36v56l-8 24h-12zM243 88l8 20l-4 36v4l24 16h4l12 -8h8v28l8 8h16l4 -4h4l-4 -20 v-108q-14 -52 -20 -52l-8 8v20h-8l-36 -28l-4 4v60zM247 260h12v16l-8 8h-4v-24zM247 1044h12v12h-12v-12zM259 500h12v28h-12v-28zM263 84l12 -12h8l4 20l-4 4h-8zM263 116l8 -8h4v20h-4l-8 -8v-4zM263 548h12v12h-4l-8 -8v-4zM263 764l8 -8h4v20h-4l-8 -8v-4zM263 920 l8 -8h4v36h-12v-28zM283 296h12q0 23 12 40v24l-8 8h-4q-12 -38 -12 -72zM287 1148l8 -8h4v28l8 12v28l-12 12q0 -24 -8 -32v-40zM295 504q13 -13 16 -44l4 -4h8v16q0 56 -24 56l-4 -4v-20zM295 876h12v12h-12v-12zM307 1020l8 -8l4 4v16h-12v-12zM319 548h12v16h-12v-16z M319 608h12v48l-12 -12v-36zM319 768l4 -28h12v24l-4 40h-8l-4 -28v-8zM319 1200h12v12l-8 8h-4v-20zM331 196v16l8 8l8 -8v-16l-8 -8zM331 424q6 -16 12 -16h4l24 56l-12 12v20l8 12l4 144l-4 32h-12l-12 -52v-8q0 -14 16 -32v-4l-12 -16v-12l8 -12v-12l-8 -8l-12 8h-4v-20 q12 0 12 -8v-16q-8 0 -12 -68zM335 16v20l8 8l12 -12v-16l-8 -8h-4zM355 284h12v4l4 60h-12l-4 -60v-4zM355 804l4 -4h4l8 8v20h-12zM355 1548l8 -8l4 4v40h-12v-36zM359 968l8 -8h4q0 24 8 24h24v8l4 76q-3 35 -12 44v4q8 6 12 64l-4 68q-7 0 -16 64l-4 4h-4l-8 -8v-4 l8 -12l4 -84q-16 -116 -24 -128v-4l8 -12v-20l4 -48l-12 -12v-16zM379 1036v20l8 8l4 -4v-20l-8 -8zM451 948v24l8 12l4 -4h20l28 4l4 -12q0 -28 -8 -28h-8l-12 4v-4q0 -20 -8 -20zM511 712l12 52l4 84l8 8v92l-8 12v4q12 15 12 36l40 16h4l12 -12v-104l-12 -24l4 -24 q0 -36 -16 -36v-80l24 -28v-4l-20 -20h-48q-10 0 -16 28zM535 756l8 -8l4 4v16h-12v-12zM559 932l4 -20h4l8 8v24h-4zM587 744q12 11 12 32q8 0 8 12l4 4h4q10 -76 40 -76v-4q-11 -1 -16 -20l-16 -4v24l-4 4l-20 8zM635 892v8q12 14 12 48v24h8l12 -12v-48l-8 -12l8 -12v-8 h-8v8h-4v-12h-8v8q-12 0 -12 8zM647 1052v32q8 7 8 40l4 4h4l16 -16v-80l-8 -8h-4zM671 752v112l8 8h4l8 -8v-48l12 8l4 -4v-104h-8l-8 8v20q-20 0 -20 8zM679 948v12l8 8l4 -4v-28q12 0 12 -8v-4l-8 -16h-12zM683 788l8 -8h4v24h-12v-16zM707 692v24q24 0 24 16 q24 122 24 176l8 8l4 124l8 8v20l-8 12l8 12v28l4 156l-4 12l12 4v40l16 52v4l-4 12l4 20v36l-8 8l-16 -4v4q20 55 24 104l-4 44q-20 0 -20 8l8 8l20 -4l8 8h248l12 -12v-52q-9 -20 -20 -20v-4l20 -20v-1296l4 -24l-4 -20v-164l-12 -12h-108l-12 -8q-6 8 -44 8l-4 4v72l-8 8 h-4q-12 -33 -12 -64v-12l-8 -8l-12 12v16l16 68l4 4q0 13 12 28v4l-32 40v32l-4 40h-12l-8 -16v-108l-8 -8l-28 44h-4v-28l24 -28v-16q-32 -8 -32 -32q-3 -48 -12 -48l-4 4v52l12 16v56q-12 15 -12 56v72q0 8 12 8v20q-12 15 -12 28v80l4 16l-4 28v224q0 12 -52 16z M715 1272v4l4 20h8v-20l-8 -8zM719 908v32l8 8l12 -16v-36l-8 -8zM727 1340v4l8 8l4 -4v-8h-12zM771 1360v8h4v-8h-4zM775 420h4v12h-4v-12zM775 1436v4l8 8l4 -4v-8h-12zM779 236h12q0 19 8 28v8l-12 12l-8 -8v-40zM787 16l24 24v52h4q8 0 12 -40l8 -8v-24l-12 -12h-28z M791 356h12v16h-12v-16zM811 392h12v4l-8 8h-4v-12zM811 644h20l40 24q5 -44 16 -44h8v8l-8 12v48h-4l-72 -36v-12zM815 480l8 -8h4v8h-12zM827 1424l12 -12q14 0 32 16h36l20 -4l4 4v4q-61 22 -68 40l44 56v8l-8 8q-36 -33 -36 -44q0 -12 -36 -48v-28zM835 368h12v52l-8 8 h-4v-60zM847 828l8 -8l4 4v28h-12v-24zM851 920h8v8h-8v-8zM863 1116l8 -8l4 4v28q20 3 20 12h-20q0 -12 -12 -12v-24zM871 1164h12v24h-12v-24zM875 500h12v20l8 12v4l-12 12l-8 -12v-36zM875 852l8 -8l4 4v48h-4l-8 -8v-36zM883 1008h12v48l-8 8h-4v-56zM919 1248 q0 -14 68 -32l20 -20v32q0 8 -32 8q0 8 -48 16l-4 4h-4v-8zM955 1528l16 -16l8 8l4 -4h4l28 16l4 4v32h-32q-32 -16 -32 -24v-16zM971 728l12 -8q0 8 12 8v12h-12zM995 1460l12 -8h4l16 16l-8 8q-24 -8 -24 -16zM1015 908h4q24 0 24 24l-4 12l12 4v12l-8 8q-28 -16 -28 -48 v-12zM1051 1296h12l-8 8h-4v-8zM1231 1032v4l8 8h4l16 -16l-8 -8h-8zM1275 940l8 8h4l8 -8l-8 -8h-4zM1351 968l4 4h4l8 -8l-4 -4h-4zM1363 1292v4l12 12l4 -4v-4l-8 -8h-8z" />
<glyph unicode="i" horiz-adv-x="569" d="M67 1620v4l44 40q13 -32 20 -32h256l8 -8l-72 -28h-40l-8 -16v-8l32 -32q36 37 88 56l16 32h8l8 -8v-472q0 -21 20 -24l32 -84l92 -40l4 -4v-4q0 -48 -16 -48h-20q-17 0 -52 36l-12 -12v-68q-36 -80 -36 -100l-12 -36v-744l-12 -12h-228l-12 -8l-12 8h-44l-12 12v472 l24 20v16l-20 -4l-4 4v600q0 8 20 8l4 4v16q0 8 -20 8l-4 4v340q0 44 -40 112zM143 320l8 -8h12v12h-20v-4zM143 1404h28l40 24q0 10 -16 12l-52 -28v-8zM167 1148l12 -8h4l8 8l-12 12zM179 68l8 -8h24l48 16q0 8 28 8l8 8q10 0 16 -36h20q0 28 28 28v8l-12 16v4 q12 14 12 76h-12q-9 -8 -28 -8l16 -20v-4q-33 -56 -60 -56l-36 -4q0 -9 -60 -24v-4zM187 724l16 -16h4q32 11 52 32h40l12 -8h12v8l-24 24h-16l-12 -8q-12 0 -12 24q-12 0 -12 8v8q100 125 100 148v36h-4q-8 0 -8 -24q-25 -29 -44 -76l-40 -36q0 -30 -44 -68h-20v-52z M227 188h12v12h-4l-8 -8v-4zM283 540q12 -24 96 -40v16q0 12 -80 28l-4 4h-12v-8zM311 1200q10 -13 12 -36h8l4 20l-4 24q16 4 16 24l-16 12q-7 0 -20 -32v-12zM347 440h20v16h-8l-12 -12v-4zM359 792h20l24 24l-12 12h-16l-16 -16v-20zM383 720h20l12 24l-12 8l-20 -24v-8z M391 1260h12l-8 8h-4v-8zM587 312v4l4 4h4l4 -4v-4l-4 -4h-4z" />
<glyph unicode="j" horiz-adv-x="887" d="M31 88l44 32l-24 24l28 28v4l-4 48l12 4v32q3 24 12 24h28l12 -8h100q74 28 92 72q20 31 28 96l4 4v772q-22 63 -44 100q7 16 44 32v284l8 8h136l12 8l8 -8h144l8 -8v-160l8 -12l-8 -12q40 -36 40 -80q8 0 8 -28l28 -20l4 4h4q62 -26 68 -44v-24q-17 -28 -24 -28h-8 q-17 0 -56 40h-4l-12 -12v-56q0 -42 -36 -120q0 -28 -12 -44v-488l-4 -160q-12 0 -12 -72q-7 0 -24 -84l-52 -92q-65 -95 -204 -132q-58 -4 -64 -12h-180q-8 8 -36 8l-40 16l4 20v20l-4 4zM91 152l12 -8h8l4 12l-12 8zM139 72l20 -4h40l12 -8h4l28 12l-12 12h-80zM303 96 l4 -12h24v8l-12 12h-4zM355 320l8 -12l12 4v12l-8 8zM363 44h12q16 45 16 88v8q0 21 -12 24h-4v-24l-8 -16zM379 1304l16 -16l4 4h4l12 -8h8l4 20l-24 12h-12zM391 1380l20 -20h4q12 3 12 32l-12 8h-12l-12 -12v-8zM399 1176h12l72 24l16 16v8h-8l-28 -4l-16 16l-24 -4 l-24 4v-4l4 -4v-4l-4 -44v-4zM403 804h8v-4l12 4v8l-12 12l-8 -12v-8zM411 272l12 4l-8 8h-4v-12zM423 420q0 -16 52 -16h8q0 32 40 32q0 7 20 8h56l8 8l-12 12h-44l-4 4q-41 -24 -92 -32l-4 -4q-13 0 -28 -12zM427 900q13 -26 40 -36h48q14 12 52 12l4 -4h4l16 4h16v12 l-16 8h-80l-12 -8h-16l-20 16q7 0 12 20h8v12h-20q-36 -22 -36 -28v-8zM447 160l8 -8h12l16 16v12h-28l-8 -8v-12zM447 732l4 -12h4l8 8l-8 8l-4 -4h-4zM463 548h20v4l-8 8h-4l-8 -8v-4zM475 984h16l8 8l-4 16h-8l-12 -12v-12zM511 1100l12 -8h20v8l-12 12h-8zM531 192 q2 -16 32 -16q15 14 40 16q0 11 12 24l-8 8q-15 -12 -28 -12h-32q-16 -8 -16 -20zM535 552l12 -12l8 12v8l-12 12l-8 -12v-8zM535 1356q39 -13 40 -20l4 4h12l4 -4h4q0 8 48 36l4 4v4l-12 8l-12 -8q-14 12 -48 12q0 -10 -40 -20l-4 -4v-12zM559 1200h12v12h-12v-12z M603 1616l4 -20h8l4 20h-16zM615 1040l4 -20h20v20l-12 12h-12v-12zM627 1080h8l8 8l-8 8l-8 -8v-8zM631 1176l12 -12v12h-12zM843 532v4l4 4h4l4 -4v-4l-4 -4h-4z" />
<glyph unicode="k" horiz-adv-x="1152" d="M71 1268q15 39 24 40l4 -4h4l8 12v284l12 12h36l8 -8v-4l-8 -12q12 0 12 -12h8q13 36 20 36h12l16 -24l-8 -12l12 -20l-4 -84l8 -8l8 8v128l12 12h4l8 -8v-76h12v72l12 12h92l12 -12v-36h20l8 -8v-52l8 -12l-16 -72q-7 0 -8 -68v-28q0 -22 24 -48v-88q32 0 32 -60l16 -40 v-20l-8 -8l-4 12h-12q-10 -40 -16 -40q-20 0 -20 -44h12v20l12 12l24 -24l4 4h4l8 -8v-20l20 4v-4l12 4v56l4 24l-12 36v8l8 12v44q0 15 36 60q0 16 28 48l36 76q9 48 44 48l4 -4v-8l-28 -16v-16l16 -8h8l12 8l4 -4v-4q-2 -37 -12 -48v-12h12q13 59 32 84v8l-8 12v68l8 12 l-8 8v24l12 28l-4 48q6 16 12 16l4 -4v-76l4 -4v-4l4 4h4l8 -8v-52l-8 -12v-28l8 -12v-20l-8 -12v-20q20 0 20 -8l-24 -4v-48l-12 -24l4 -12l-4 -4h-8q-24 14 -24 24q-28 -17 -28 -24q0 -8 12 -8q7 -22 20 -32q5 20 12 20q18 -8 20 -16v-20h12q0 12 8 12l4 -4v-40 q0 -8 -16 -8l-8 -20l8 -12v-4q-12 -15 -12 -36v-16l4 -28l-16 -16v-60q-7 -24 -28 -24l-8 -12v-12h16q0 12 8 12l4 -12l-4 -20h4l12 4v-4q-16 -32 -16 -56l-12 -12v-44q0 -20 24 -28v-64q0 -8 -32 -24v-24l8 -12v-40l-8 -12v-64l-12 -16v-28l-4 -176l12 -24h12l4 20v16 q-16 0 -16 8v20q28 26 28 44l-4 4v4l4 4h4l16 -4v24l-20 40l20 16l4 24v44h-12q0 -24 -8 -24l-8 12v24l8 8q8 0 8 -12h4q8 0 8 32l8 8v164q0 8 -24 16v4q3 64 20 64q8 -66 28 -80v-72l-12 -16v-36h12q17 84 24 84l4 -4v-40l8 -12v-16l-20 -48v-32l-4 -16l4 -16v-4 q0 -13 -12 -28v-24h12l28 164l4 24l4 4h4q29 -56 100 -240l16 -56q12 0 12 -16l36 -84l12 -8h84l8 -8l-48 -68q0 -8 44 -8l4 -4v-4l-36 -48v-12q0 -14 36 -96l-8 -8h-56l-8 8v80h-12l-16 -84l-4 -4h-4l-8 8v28l16 68q8 0 8 20v24q-24 0 -24 8v40q0 44 -12 44h-4l-8 -24v-112 l8 -12v-124l-20 -24h-4q-18 0 -24 68q15 2 24 24v40l-8 8h-4q0 -12 -16 -12q-8 -22 -8 -80l-4 -4h-4l-12 12h-4l-8 -20v-56l-8 -8q-21 23 -44 76l-12 8h-52q-15 16 -88 232l-76 216q7 64 28 64v8h8v-12h16v16l-4 68l4 64l-4 52q4 49 12 56l4 112l8 8v32q-12 17 -12 32l12 4 v32l-12 12l-12 -16v-52l-16 -24l-4 4v8l8 12v12h-12q0 -20 -8 -20h-4l-24 20v24h-12v-128l20 -16h4q13 0 16 56l12 16l4 4h4l12 -28v-24l-8 -12v-36l-16 -92l12 -24v-16q-17 -20 -28 -52h-8l-8 8v4l8 12v48l4 28l-4 4h-4q-7 0 -28 -40l-12 -12v-4q20 0 20 -8v-16l-8 -12v-20 l8 -12v-40l-8 -8q-37 108 -48 116l-12 -8q-5 20 -12 20h-4v-24l-8 -12v-32l-40 -80l-12 -12l16 -60v-84q0 -8 -16 -8l-12 -68h12q4 32 12 32l4 -4v-24q0 -29 -32 -56h-8v-12q25 0 40 -48v-40l8 -12v-4l-8 -12v-20l8 -12v-4l-8 -12v-56l-8 -8l-8 8v20h-8l-36 -24l-4 4v64 l-8 12v4l12 12l-4 28v68h-12l-12 -40q0 -28 -8 -36v-8q12 0 12 -8l-4 -20l4 -24v-4q0 -8 -16 -8v-24l-16 -20l-4 4v40l8 12v4h-8q-9 0 -20 -60l-4 -4h-20l-8 8v32h-12q-10 -40 -16 -40h-12l-8 8v92l-12 36h-4l-8 -8v-40l-12 -40h-4l-8 28h-4l-16 -24v-16q36 -10 36 -16v-12 l-8 -8h-40l-12 12v48q0 8 24 16q12 15 12 36v44h-4q-6 0 -16 -52l-4 -4h-4l-8 8v32l-4 16l4 28v204q0 8 20 8q0 16 12 16v72l-8 8h-4l-8 -20v-40l-8 -8l-4 4v560q8 8 8 32l4 32l8 8v20q-12 15 -12 32q0 46 12 60q-8 0 -8 20h-12v-40l-8 -8q-8 16 -8 44v8q16 15 16 32h-12 q0 -16 -8 -16q-9 0 -20 68zM123 220h12q0 19 8 28v16l-12 12l-8 -12v-44zM131 180q0 -28 36 -28l4 -4h20l24 20v4l-12 12q-18 0 -36 -12h-12l-16 12h-8v-4zM135 1528h4l8 8v4h-12v-12zM143 672l4 -4h4l8 28l-4 28v24q0 30 24 96v60l-8 12v12l12 16v56h-12q-16 0 -16 -104 q-8 0 -8 -12zM171 300q24 0 24 40q6 32 32 32q37 8 40 20v8h-4l-56 -16l-24 24h-4l-8 -8q12 -15 12 -28v-32l-12 -16v-24zM171 1156h12v24h-12v-24zM171 1540l8 -8l4 4v16h-12v-12zM179 496l4 -4h12q0 24 8 24l4 -24h12l8 20l4 104v4l8 12v8q-8 5 -12 68l12 4v32l4 40 q-16 5 -16 36v84h-12v-40l-12 -16v-44l-12 -24l4 -68l-4 -116l4 -16h-12v-56zM195 576v4h4l8 -8v-4h-4zM195 976l12 -12q0 12 44 12h4l-4 32q15 20 20 60q23 0 32 28q24 10 24 32v4q-76 -14 -76 -88q-10 0 -12 -36q-21 -21 -40 -24l-4 -4v-4zM195 1240l8 -8h4v8h-12z M195 1324q17 -44 28 -44l4 4v12l-12 16v8q0 13 44 20l4 4h40l28 -16l4 4v36l-12 12h-8q-18 -12 -36 -12l-4 4v4l4 4v4l-4 4h-4l-24 -20h-4l-36 52h-12v-96zM239 64h12v24h-12v-24zM255 148l20 -4q0 11 12 24v4q-20 0 -20 12v24h-12v-60zM263 712l8 -8l4 4v28h-12v-24z M275 832l8 -8l4 4v4l-8 8h-4v-8zM279 340l12 -12l8 8l4 148v60q0 44 -12 44h-4v-144l-8 -12v-92zM279 1036q14 0 16 -32h4l4 4v4q-2 32 -12 32h-4zM287 1492h12q0 12 16 12v12l-28 -4v-20zM299 228h12v4l-8 8h-4v-12zM323 808l4 -108l8 -8v-32l-8 -12v-52l12 -44l-4 -16 l4 -88h12v68l-4 32l4 32l-4 44l12 20v40q-12 15 -12 28v96l-8 12v20h-4l-12 -12v-20zM323 1048l4 -12h8l4 20v4h-8q-8 0 -8 -12zM335 16v4l8 8l4 -4v-4l-8 -8zM335 420h12v16h-12v-16zM335 1168h12q2 23 12 36v44l-8 24h-4l-8 -8zM359 240h12v16l-8 8h-4v-24zM371 472h12v36 h-12v-36zM375 64l12 -12h8l4 20l-4 4h-8zM375 88h12v20h-4l-8 -8v-12zM375 528h12v12h-4l-8 -8v-4zM375 736h12v20h-4l-8 -8v-12zM375 904l8 -8l4 4v28h-12v-24zM395 136h12v24l-8 8h-4v-32zM395 596l16 -16h4q32 13 32 32l-4 16h-12q0 -15 -36 -24v-8zM399 1120h12v36l8 12 v20l-12 12q0 -28 -8 -36v-44zM407 864l4 -20h8v24h-12v-4zM423 772q8 -8 12 -48h12v20q0 26 -12 52h-12v-24zM431 820l8 -8l4 4v40h-12v-36zM467 784l4 -4h4l8 8v20h-12zM491 824l8 -8h16v36l-12 12h-12v-40zM491 1020v16l8 8l4 -4v-20h-12zM519 900h8v8h-8v-8zM555 976h12 v32h-4l-8 -8v-24zM563 860v12l8 8l4 -4v-12l-8 -8zM567 1020q12 0 12 -12l4 -4h4q4 28 24 72v32l-8 12v20q0 72 -12 72h-4v-36l-8 -12v-40l8 -12v-16l-16 -48l-4 -4v-24zM599 424l4 -28h8q12 0 12 16l4 68h-4l-24 -8v-12q16 0 16 -8q-16 -6 -16 -12v-16zM627 1156h8v-4l12 4 l-8 8h-4zM647 712l12 -8l4 4v4q-2 32 -12 32h-4v-4l4 -16zM719 1472h4l8 8h-12v-8zM735 1580v20l8 8l4 -4v-20l-8 -8zM743 1296v8l8 8l4 -4v-12h-12zM755 948q3 45 16 56v16q0 22 -16 28l4 28v32q6 6 16 84l8 28q8 0 8 12l4 172q9 0 12 20l-4 20l4 64v32l8 12v16l4 76l-8 56 q5 19 24 32q9 0 20 -40v-48l-4 -180l-8 -8v-52l-4 -16l4 -4l-4 -20v-44l-8 -12v-28l8 -12l-12 -12v-68l-8 -24h-12v12h-4q-12 0 -12 -52v-44l-8 -12l8 -8v-16l-8 -12v-16l8 -12q-12 0 -12 -36q-8 0 -8 -16l-4 -4h-12zM779 1536v20l8 8l4 -4v-24h-12zM803 1056v4l4 88l4 4h4 l12 -32q-12 -14 -12 -48v-16h-12zM863 12h12v16l-8 8h-4v-24zM863 352l4 -4h4q16 28 28 28l-12 12h-8q-11 0 -16 -36zM867 64l20 -4v60l-12 12l-8 -8v-60zM879 1232v20l8 12v24l-8 12v4q0 8 12 8v24q12 15 12 36v72l-16 4l16 88l-4 48l28 8v8h-8v8q42 0 60 44l4 4h4 q23 -44 48 -44q24 0 24 -8l-4 -4l4 -12l-4 -32l20 -48l-4 -4h-12l-12 8h-12q-13 0 -28 -48v-16q64 -95 64 -112l-4 -4l-48 4h-36l-12 8h-24q-13 0 -60 -116h-4zM891 216h12v48h-4l-8 -8v-40zM903 336h12v16h-12v-16zM983 1496l12 -12l24 32l-12 8l-24 -24v-4zM1079 1168l8 8 l8 -12l-8 -8zM1079 1264v4l8 8h4l12 -12l-12 -12zM1151 1160l8 8l8 -8v-8h-8zM1311 1436v4l4 4h4l4 -4v-4l-4 -4h-4z" />
<glyph unicode="l" horiz-adv-x="872" d="M71 1304q15 28 44 28v284l12 12h84l36 4l4 -4h4l16 4l32 -4h8v4l28 -4h80l12 -12v-204q40 -40 40 -92l4 -4q0 -43 88 -68l20 -24v-24q-13 -36 -20 -36h-20q-17 3 -48 48l-16 -16v-52q0 -68 -36 -144q0 -39 -12 -52v-664l12 -12h112l20 4l24 -4h68l12 -8h12l12 8h108l28 4 l8 -12v-252l-4 -4v-4l-20 4h-236l-12 -8l-8 8h-116l-12 -8l-12 8h-252l-12 -8q-6 8 -44 8l-4 4v1180zM151 1604q7 -8 40 -8l8 -12l-4 -12l4 -4h8q8 0 8 32l8 8l-12 8h-48zM167 1544l8 -8h4v20h-4l-8 -8v-4zM175 1496h4q24 0 24 24h-12l-16 -16v-8zM199 92h12v12zM215 932 l12 -12l20 4v8l-20 44q9 19 28 28h8l12 -8h44l4 20l-4 4l-28 -4h-28q-32 20 -32 56l-4 4v8l8 12l-4 4q4 42 16 52v8h-12l-20 -20v-208zM223 164h12v12h-12v-12zM223 1416h12v4l-8 8h-4v-12zM235 1516l8 -8h4v12h-12v-4zM251 260l24 -24h8v8l-8 12q0 20 80 20l12 -12h12 l12 12v12h-4l-20 -4l-12 24l-28 -12l-4 16h-8q-8 0 -8 -12l-4 -4h-4l-32 44l-4 4h-4l-8 -12v-72zM255 1384l8 -8l8 8l-8 8zM283 1400h8v4l-8 8v-12zM287 1592h20v12h-12l-8 -8v-4zM307 48l12 -12q0 15 36 24q0 28 60 72v8l-12 12q0 -12 -36 -12q-60 -52 -60 -72v-20z M595 372v4l4 4h4l4 -4v-4l-4 -4h-4zM607 180q2 -15 84 -36l40 -36h16l12 8h4l12 -8l4 20v64q0 21 -12 24q-17 -16 -40 -16h-12v-8q0 -12 28 -12l8 -12l-4 -4h-4q-59 0 -112 24h-24v-8zM635 316v4h8v-4h-8zM655 88l8 -8l8 8l-8 8zM719 520v4h8v-4h-8z" />
<glyph unicode="m" horiz-adv-x="1516" d="M76 20v16l8 16l4 156l8 8v4l-8 12v8l8 12v160l-8 12v104l8 12v232l4 148q8 0 8 12l4 96l8 8v8q0 100 24 100q16 14 16 28v40l8 12l4 164q8 0 8 12l4 156l8 8v52l12 12h108l12 -12v-48h12v48l12 12h64l20 -20h4q0 13 24 24l28 -4h32q17 0 36 -136v-12l-28 -16l-4 -4v-4 l8 -12v-20h4l28 12h4q8 0 48 -208q0 -14 68 -76v-4q0 -94 36 -200v-52l4 -20q-16 -6 -16 -28v-8l4 -44l-4 -4l4 -16q20 0 20 -8v-4l-8 -12l12 -12l8 8v48l8 8q8 -65 16 -72v-60h8l12 8l4 -20h12q25 129 36 144q28 84 28 132v52q7 9 20 100l68 300q25 123 36 124h4v12l-8 12 v4l20 76q15 12 40 12v4l28 -4h72l20 4l24 -4h44l40 4l8 -12v-132h12v68q12 10 12 36l8 28l12 8h4q16 0 16 -76v-52l8 -12v-72q-20 -47 -36 -64l4 -32q-3 -40 -12 -40l-4 4v24h-12v-48q24 0 24 -12v-52l-8 -12l4 -16l-4 -12h-4l-12 8h-8v-28l8 -12v-8l-20 -40q12 -17 12 -32 l-12 -24q4 -15 32 -20v-48l-8 -8l-4 4v44h-12v-128h12v28l8 8l4 -4v-68l-8 -12l8 -12v-80l-8 -8l-12 12v16l8 12l-8 12l8 12v20l-8 12v36q-24 0 -24 24q-12 0 -12 8l-4 64l4 100l-4 84l-8 8v44q-16 16 -16 64l4 16q-12 0 -12 8v4h12v52l-8 8h-8l4 -40v-20h-16v-100l-8 -8 l-12 12l8 12v32l-12 12q-12 -33 -12 -84v-32l4 -32l-4 -44v-188l-8 -12l-4 -104l-8 -8v-24l8 -24l20 4l8 -32l-4 -12q6 -16 12 -16l4 20v40q8 6 8 44l12 12h4l8 -8q-11 -10 -16 -56l-4 -4v-16l8 -12v-24q-8 -7 -12 -60q-8 0 -12 -28q0 -52 32 -80l16 24v48l4 104l-4 16 l20 40q16 -6 16 -12v-36q-12 -15 -12 -56v-64q-12 -15 -12 -28v-104q16 0 16 -8l-12 -4q0 -98 -12 -108v-56l-8 -8l4 -20v-4q-16 -32 -24 -32h-4l-12 8h-8v-8q0 -29 24 -48h4q0 20 8 20l12 -12v-32l-20 -36l8 -12v-4l-12 -12h-44l-12 12l-4 160l-8 8v8q0 76 -28 196 q-14 0 -36 -80l-4 -4h-12l-4 4h-4l4 20v48l8 12v16h-8l-16 -12l-12 12v32h-12q-32 -89 -80 -300l-12 -8l-16 56h-12v-20l-8 -12v-12q0 -7 36 -32q-22 -89 -60 -112h-16q-12 12 -76 12q-7 9 -68 12l-28 -4l-32 12l4 28v16q0 8 -12 8l-4 4v28q-20 0 -20 16h-4l-20 -4l-4 4 q5 41 12 48v40q-8 7 -44 176q-60 232 -124 552h-12v-64l-8 -16l-4 -140q-8 0 -8 -12l-4 -100q-8 0 -8 -12l-4 -84l-8 -8l-4 -108l-8 -8v-84l-4 -44l4 -4l-4 -28v-60l-8 -12v-68q0 -88 -20 -88l-20 -8h-4l-12 8h-40l-12 -8l-8 8h-64l-12 -8l-8 8h-64zM112 56q0 -7 28 -12 l20 12l-4 12h-20l-24 -8v-4zM144 212h12q0 52 28 52q44 15 44 24v8h-12q-15 -12 -44 -12l-16 4l-12 -32l4 -24v-12l-4 -4v-4zM184 752q0 -7 36 -12q44 5 44 16v8h-40l-8 8q0 28 12 44v16q-8 7 -8 40l-20 12l-8 -12v-68l8 -32zM184 1016l24 -8l8 12l-12 8h-8zM220 56h12v12 h-4l-8 -8v-4zM228 784q0 -8 12 -8l12 4v12h-16zM240 716h12v12h-12v-12zM328 1052l8 -8l12 12v56h-12v-20l-8 -12v-28zM336 480l12 -12l12 12v12h-16l-8 -8v-4zM348 996h12v12h-12v-12zM364 1412l12 -8l8 12v8h-8zM372 1012l4 -20h12v28l16 20l4 -20h12v16l-8 12l8 12v20h12 v12h-12v-12h-12q-8 0 -8 12h-16l-8 -24v-12zM372 1176h12q0 11 16 20q0 24 8 32v16q-6 16 -24 20l4 48v20h-12l-4 -60v-96zM384 1100h8v4l-8 8v-12zM388 1436l8 -8h4v24l8 12h-20v-28zM396 1500h12v24h-12v-24zM408 980h12v24h-12v-24zM408 1320l16 -16l8 8l-16 20h-8v-12z M408 1376l24 -20l16 16v12q0 7 -24 12v20h-12zM420 1448h12v16h-12v-16zM444 1068l4 -4h4l8 8v36l-8 8h-4v-20zM456 1428l12 -12h4v16l-8 8l-8 -8v-4zM460 872l8 -8h4v20h-4l-8 -8v-4zM460 1236l12 -12h8v20l4 28h-8l-16 -24v-12zM472 1320q8 -9 8 -28h12v12l4 44l-8 20h-8 l-8 -16v-32zM480 1560l12 -12l12 12q-9 0 -12 20l-12 -12v-8zM508 1148l8 -8h4v20h-4l-8 -8v-4zM532 1268l12 -16v-20h12q0 19 8 28v12l-16 8h-4zM540 1344h12q0 12 12 12v16l-4 20h-4l-16 -16v-32zM568 404h12v4h-12v-4zM628 48v12l8 8l4 -4v-12l-8 -8zM684 936h12v12h-4 l-8 -8v-4zM696 56h12v16h-12v-16zM720 200q12 0 12 -12h16q-3 12 -16 16v8zM760 528l8 -12v-28h12q16 85 16 132h-4l-32 -80v-12zM856 68h8q13 0 16 52l-4 36h-12v-40l-8 -12v-36zM924 696h12v8h4l-4 12l-12 -12v-8zM928 248l8 -12v-20h12v56l4 48h-4q-9 0 -16 -68zM960 420 h12q0 12 8 12h20v64l8 12v44q0 13 12 28v28l-20 -12zM1032 512h12v12h-12v-12zM1056 1152h24l12 12v8h-24l-12 -12v-8zM1072 636q27 -72 32 -72q13 12 24 12v116l-8 12l-4 336v24h-12q0 -30 -20 -32v-4l12 -12l-4 -28q0 -28 12 -44v-48l-8 -16l-16 -164l-8 -8v-72zM1092 548 q4 -66 20 -116h8v68q0 29 -16 60zM1096 1316l8 -8h4v20h-4l-8 -8v-4zM1108 1256l8 -8h4v12h-12v-4zM1116 1356h12l4 68h-4q-9 0 -12 -68zM1164 784v4l4 4h4l4 -4v-4l-4 -4h-4zM1168 1556l12 -12h8v12l-12 12zM1180 1048v60l8 8l4 -4v-60l-8 -8zM1192 852v72q8 8 8 36l12 8 q8 0 8 -12l-8 -24v-36q-8 -6 -8 -44l-4 -4h-4zM1204 760v8l8 8h4v-12l-8 -8zM1204 792v8h12v-4l-8 -8zM1204 988v4l4 4h4l4 -4v-4l-4 -4h-4zM1216 440q8 -8 8 -32l12 12q-8 0 -8 24h-12v-4zM1220 252h8v8h-8v-8zM1224 800h4l20 4l4 -4v-16l-8 -8h-4q-16 8 -16 24zM1224 1592 l12 -8l12 12l-12 8zM1236 1532h4v12h-4v-12zM1240 124v12l8 8l12 -28v-8h-12zM1252 20v4l28 36l4 -16h12l4 28v24q9 20 20 20v24l4 60q-16 6 -16 12v12h4l12 -8h8l4 184l8 8v4q0 64 12 76v16q-12 0 -12 8q0 47 12 64v16q-12 14 -12 60q0 23 12 40v408h-8l-12 -8l-4 4l4 48 v12l8 12v88q0 20 20 36l4 -4v-4l4 -188l8 -8l4 -192l8 -8l4 -188l8 -8v-52l4 -60q-4 -48 -12 -56v-156l-16 -104v-28h12v12q16 53 16 108l4 4h4l4 -4v-44l8 -16l4 -172l8 -8v-96l-12 -12h-80l-12 -8q0 8 -44 12l-4 12h-12q0 -16 -8 -16h-4zM1252 64v20l8 8h4v-24l-8 -8z M1264 212v8q0 8 12 8v8l-4 20l4 4h4l4 -4v-20l-4 -16l8 -24l-4 -4h-4zM1272 288l4 100q12 3 12 32v68l8 12l4 156v12l16 16l8 -24v-72l8 -12v-4l-12 -16v-64l-8 -12l-4 -116l-20 -4v-28l8 -12q0 -8 -12 -8v-28l-8 -8zM1272 760v4l8 8h4v-8l-8 -8zM1284 120l4 28v24h8v-56h-4 l-4 4h-4zM1284 1424l12 -8l24 12v8h-8v4q-28 -7 -28 -16zM1288 228v4h8v-4h-8zM1300 232h8v-8zM1312 1520l8 -8h12v12h-20v-4zM1324 884v16l8 8l4 -4v-28h-4zM1332 984v60l8 8l4 -4v-56l-8 -8h-4zM1348 1360v4l4 4h4l4 -4v-4l-4 -4h-4zM1404 164q3 -32 12 -32h4v12l-4 20 h-12z" />
<glyph unicode="n" horiz-adv-x="1267" d="M56 1180l4 96l20 16h16q24 -14 44 -96h12l4 40v44l8 12l-8 12v92l8 12v12q0 86 32 196q36 28 64 28l124 -16h120q9 0 12 -52q6 -1 128 -316q132 -323 252 -664q16 -29 16 -52l4 -4h8l-4 140v4l-8 12l-4 216l-4 4h-4l-4 400v300l12 12h160l16 -12l28 12h52l8 -8v-952 q0 -98 12 -108v-24q-12 -15 -12 -36v-120l-8 -12v-8l8 -12v-116l4 -20l-4 -24v-112l4 -24q-5 -44 -16 -44h-68l-12 -8l-8 8h-20l-12 -8l-12 8h-140q-19 15 -88 204l-84 196q-49 19 -76 92q-40 67 -72 176q-50 71 -84 196h-8l4 -148v-148l8 -12v-216q0 -84 32 -236l4 -4v-40 q-11 -28 -32 -36l-8 -20l-4 -4h-260l-8 8v664l-8 12v108q-32 43 -32 104l-4 4v12q0 141 -64 176q-48 38 -48 84zM228 104h8q44 29 48 40v8l-12 12h-20l-20 -12l4 -20l-8 -12v-16zM228 1472q0 -11 44 -16l4 -4h8l16 16v4l-12 12h-4q-18 -12 -36 -12l-8 12v20l32 68l-8 12 q-20 0 -36 -24v-88zM260 628l16 -16l8 12v8l-16 16h-8v-20zM296 500q39 -1 84 -20h16v4q-16 32 -52 32v8h-8q-40 -18 -40 -24zM308 1380h16v12h-16v-12zM360 1424h32v16h-32v-16zM368 1556h4q14 0 28 16h4v12h-16l-20 -20v-8zM392 1048l24 -16h12v12l-20 8h-16v-4zM408 56h8 q22 0 32 84l4 4h-20v-12q0 -19 -24 -72v-4zM432 1304h24v16h-12l-12 -12v-4zM452 348h4v12h-4v-12zM452 1596l12 -12h24l12 12l-12 8h-36v-8zM548 1236q18 0 24 -16v-8l-8 -12v-4h4l20 4l8 -12v-12l-8 -12v-68l-24 -16v-4l24 -20l-4 -40q15 -44 24 -44h12v8h4q-5 29 -16 40 v16q6 20 52 20v12q-29 0 -52 36l4 12l-4 32l4 48q-13 5 -36 48v4l8 12l-12 12h-8q0 -12 -16 -28v-8zM764 336h4l8 8v12h-8zM852 128l8 -8h4q36 16 36 44h-12q-36 -13 -36 -20v-16zM896 388q0 -8 44 -12l8 -8h16l20 16h20l28 -4v8l-16 16h-8l-12 -8l-16 32l60 76l-12 12 q-14 -30 -48 -64q0 -42 -76 -52zM992 936h8l24 -4l4 4h4l32 -12h4l12 12q-17 24 -56 24l-16 8h-4l-12 -12v-20zM996 1544l4 -4l20 -8l8 -24l-8 -12l8 -12v-32q0 -48 16 -48h8l4 16l-12 28v4l-4 60l12 8h4q14 -12 48 -12v16q-57 12 -76 32h-20zM1056 188q0 -20 72 -36l8 12 q0 14 -80 28v-4zM1128 92l12 -12l8 12l-12 12zM1136 448l8 -8h4l12 12v4l-8 8h-4l-12 -12v-4z" />
<glyph unicode="o" horiz-adv-x="1178" d="M43 812v52l4 24l-4 4l4 28v48l8 16q0 81 44 232q32 95 80 180q96 158 240 208q55 24 120 24h4l12 8h52l28 -12l-4 -20v-136l-8 -12v-8q8 -9 8 -28h4l8 16v68q12 10 12 36l4 4h4l4 -4v-32l4 -52q-5 -41 -12 -48v-60l8 -12l-12 -12h-8l-60 40q-109 0 -160 -144 q-48 -124 -48 -264v-4l-8 -12v-32l8 -12v-28l-8 -12q40 -22 44 -36q-15 -24 -40 -24l-4 -4v-100q8 -8 8 -36q44 -18 44 -56q0 -14 108 -32l8 -12v-8l-24 -24h-28l-32 20l-16 -12l4 -48v-12q0 -34 -12 -48v-28l-4 -24q28 -75 76 -100q11 0 44 -24h40q84 42 84 80 q48 69 48 124q8 0 16 68l16 24l4 92h8q2 -40 12 -40h4v44q7 16 24 16v68q12 15 12 28v96l8 12v48l-12 12l4 108v60l8 16l4 92l8 8l4 184v12q0 37 -16 52v96l8 8q84 -69 104 -112q71 -105 76 -172q8 0 8 -44q8 0 12 -28l-4 -4l4 -28v-124l-4 -24l4 -4l-4 -28v-48l-8 -16 l-4 -92l-8 -8v-4l8 -12v-12q-12 -16 -12 -52q2 -52 16 -52l16 12q8 0 8 -32l8 -8v-12l-8 -12v-12q24 -16 24 -52l20 -28v-28l-20 -36l-4 -68h4l16 -24q20 0 20 -8v-4l-12 -16l24 -24q-3 -36 -12 -36q-13 13 -16 44l-4 4h-4q-14 0 -36 -72q-22 -63 -100 -116q-8 0 -8 20l-4 4 h-12l4 -40v-4l-64 -68h-4q-8 0 -8 12h-8q-3 -52 -32 -52q-4 -12 -24 -12l8 52v60l8 12v4l-20 36q-58 -4 -64 -12l-20 20v4q13 24 36 24v12l-16 8q-26 -10 -28 -28l-32 -24v-44q-10 -27 -44 -56v-16l8 -8q9 8 28 8l24 68q7 0 12 20h8q84 -19 84 -24l-12 -20l4 -24l-4 -52 l4 -28q-16 -16 -64 -24q0 -6 -52 -20l-92 -4l-8 12v16q8 8 8 32l4 28l8 8v4q-6 17 -32 32h-4l-8 -20v-16l20 4l4 -4v-8q0 -23 -16 -40v-36l-8 -8h-4q-12 0 -12 40l-4 4h-8q-10 0 -16 -36h-24l-8 8v100h16v56h8l12 -68h12q0 64 12 76v12l-8 8l-12 -8h-4l-8 8v28q-20 0 -20 20 h-8l-8 -24v-92l8 -12v-4h-12l-8 8v36l-8 8q-10 0 -28 -40l20 -44v-4l-28 -48q-11 36 -16 36l-20 -20h-8q-161 90 -240 336q-48 161 -48 264l-4 4h-4zM127 -176l4 4h8v-4l-8 -8l-4 4v4zM151 -104l8 8l8 -8v-4l-8 -8l-8 8v4zM151 736h92l8 8v8l-4 -4h-20l-12 12v24l12 20 l-12 20v24l-16 8q-23 -20 -32 -48q-16 -2 -16 -12v-8h4l12 8h8q6 0 24 -36l-8 -12l-28 4h-4l-8 -8v-8zM167 308l20 -24h4q50 18 60 28v8q-20 0 -44 -16q-13 0 -32 16h-8v-12zM227 1000h8v12h-8v-12zM235 -120l12 12h4l8 -8l-12 -12h-4zM235 832h4l8 16h-12v-16zM239 1036 l8 -8h4l8 20v40l-8 8h-4v-24l-8 -12v-24zM259 980h4l8 8v4h-12v-12zM271 764h4v12h-4v-12zM275 700h8v12h-8v-12zM275 1144h8l36 28v68l-12 12l-8 -8l-4 4v4l4 64v12h-12l-4 -40v-80l-8 -12v-52zM275 1400l12 -12l8 12l-8 8h-4zM283 1004q5 -24 12 -24h4v32l8 12v52h-12 l-8 -24v-24zM299 1420l8 -8h4v32h-4l-8 -8v-16zM307 1484h12v24h-12v-24zM319 964h12v16h-12v-16zM319 1316l4 -28h8l12 12l-16 16h-8zM319 1364l24 -24l16 16q0 22 -24 24v16h-4l-12 -12v-20zM331 1064h4l8 8v4h-12v-12zM331 1432h12v16h-12v-16zM347 760l8 -8h4v24h-12 v-16zM355 1076l4 -28h4l8 8v20l-4 20h-8zM367 460h8l8 8l-8 8h-8v-16zM371 1216l12 -12h8v12l4 40h-8l-16 -24v-16zM383 1304l8 -12v-24h4q12 0 12 84v20h-4l-20 -24v-44zM391 1544l12 -12l12 12q-8 0 -8 12h-8l-8 -8v-4zM427 32v36l8 8l4 -4v-36l-8 -8zM431 1456 q0 -6 16 -12l-4 -20v-16h12q0 12 8 12h4l36 -24h8v12q-12 20 -32 20v52h-4q-8 0 -8 -20l-4 -4h-4l-24 4h-4v-4zM439 -312l4 4h4l4 -4v-4l-4 -4h-4l-4 4v4zM451 1324h12q0 18 16 24q-7 28 -16 28l-12 -20v-32zM523 1388h4q9 0 12 36l-4 36h-12v-72zM527 1520l12 -12v32h-4 l-8 -8v-12zM539 1588l8 -8h4l8 16l-12 8l-8 -12v-4zM547 1444l36 -32h4v8q0 31 -16 36h-12zM551 1388l8 -16h12l4 28l-12 8l-12 -12v-8zM607 20h4l8 8v28h-12v-36zM683 1496q0 8 20 8v28l8 8l4 -4v-28l-12 -36h-4zM691 1412v28l8 8l16 -16l-20 -24zM719 376l8 -8l24 20v4h-8 q-24 -2 -24 -12v-4zM719 1160v12l8 12v36l8 8l4 -4v-52l-16 -16zM731 1280v4l4 4h4l4 -4v-4l-4 -4h-4zM739 1416v8l4 56l-4 16l16 20l-4 28v32l-8 12v4l8 8h4q8 0 8 -32l4 -4q0 -12 16 -12l4 -4v-12h-4l-4 4h-4l-8 -12l8 -12v-8l-20 -28l8 -12v-20l-12 -40h-4zM755 740v84 l8 12v20l4 60l-12 12l4 4h4q0 -9 28 -16l12 -40l-4 -60q0 -8 -16 -8l-4 -4v-20q0 -26 -12 -52h-4zM775 1304v4l4 4h4l4 -4v-4l-4 -4h-4zM791 960v24h8v-24h-8zM839 188l8 -16h12l4 32l-4 60v8l8 8l8 -8l8 8v4q-20 0 -20 12v12l8 12v24h-12l-20 -88v-68zM863 692 q0 -10 40 -20l4 -20h12q0 12 8 12h36l8 8v12q0 8 -12 8l-12 -4l-4 4v4q17 6 24 20h-8q-11 0 -44 -24l-20 -4h-8l-16 12zM899 308l12 -4l20 4l28 -28l-4 -20v-20l8 -8h12l8 8v12l-16 20v8q0 13 12 28l4 104l-4 12h-8q-4 -32 -16 -32l-12 8h-8v-4l8 -12v-8q-16 -52 -28 -52 q0 -8 -16 -8v-8zM899 400h12v36h-4l-8 -8v-28zM899 1096h20q9 -9 60 -12v12l-12 12l-8 -8h-24l-12 8h-16l-8 -8v-4zM943 484h12l4 40l-4 20h-8l-4 -28v-32zM971 536h12v8h-12v-8zM995 1000l8 -8h4v36h-12v-28zM1003 500h4l12 8l-4 4v36h-12v-48zM1027 500h4v12h-4v-12z M1031 824v4l8 8l4 -4v-4l-8 -8zM1063 780v4l4 96l4 4h4l4 -4v-4l-4 -84v-4l-8 -8h-4zM1075 440v4l4 4h4l4 -4v-4l-4 -4h-4zM1075 908v36l8 8l4 -4v-36l-8 -8zM1091 840v48l8 8l12 -24v-12l-16 -24zM1115 292v4q8 9 16 64l4 20l4 4h4l8 -8v-80l-16 -16h-8z" />
<glyph unicode="p" horiz-adv-x="1046" d="M69 1336v8q21 21 40 24v228q0 17 112 28l4 4l136 4h20l12 8h92l12 -8h40l12 8h48q17 16 40 16h68l12 -12v-48q-12 -18 -12 -36l4 -4h12l8 16v88l60 52l8 -8h8q1 20 12 20h4l16 -16v-4l-8 -12v-28h12q7 48 20 48l36 -40v-4q0 -28 -80 -28h-4v-4q0 -36 28 -36l4 -4 q32 0 32 -48h8l12 8h4q6 0 36 -60q-4 -40 -12 -48v-24h12q0 12 8 12q28 -28 40 -84q10 0 12 -36q8 0 8 -24l8 -32h4l4 -112l-4 -112q-7 0 -24 -96q-8 0 -8 -20q-36 -95 -128 -188q-164 -124 -360 -124h-56l-12 -12v-576l-12 -12h-80l-12 -8h-4l-12 8h-16l-12 -8h-16l-12 8 h-8l-12 -8l-8 8h-44l-12 -8h-4q-6 7 -52 12l-4 4v1156q0 64 -40 164zM121 324l12 -12l36 20l8 12h-8v4q-30 0 -48 -24zM141 1536l16 -24h4l16 8v4l-24 20h-12v-8zM193 1200h20l-12 12h-8v-12zM225 368l12 -8l24 20v4h-20zM225 772l8 -8q34 0 48 72q18 7 28 24v4l-8 8 q-20 -9 -44 -48q-16 -2 -16 -12l8 -12l-24 -24v-4zM225 1008q0 -12 52 -28h8v4q0 9 -48 24h-12zM237 84l12 -12h16v16l-8 8h-20v-12zM273 1388l28 4h24q25 6 72 60q24 -4 24 -12v-8l-4 -4l4 -12h8l12 24l28 -4h12l20 4l-12 12h-4l-28 -4l-4 4v8q0 17 24 64l-12 8 q-42 -44 -88 -52q-12 -15 -44 -28q-9 -29 -24 -36h-4l-12 16l-4 4h-16l4 -28zM285 1196h4v12h-4v-12zM357 536h28v12h-28v-12zM393 1052h4v12h-4v-12zM409 1280h8v4l-8 8v-12zM421 1284l8 -12v-104l28 -28q-28 -7 -28 -16v-252h8l16 12h36q8 -8 52 -12q57 0 128 88l12 24v12 q-52 61 -100 64l-4 4q-12 0 -12 8l4 4h12l68 -24q12 28 40 28l20 28l-4 96l-24 72q-61 104 -176 104h-4q-72 0 -72 -20v-64zM585 640l8 -8h8v20l-8 8h-8v-20zM637 1380h8v12h-8v-12zM693 1424h16v16h-16v-16zM709 836h12v64h-12v-64zM721 1028h12l8 24v64h-12v-24l-8 -12 v-52zM741 996h4l8 8v4h-12v-12zM757 1160h8l36 28v68l-12 12l-8 -8l-4 4v28l12 16v12l-8 24h-12l-4 -28v-68l-8 -12l8 -12l-8 -12v-52zM757 1412l12 -8l8 12l-8 8zM765 980h12l16 96l-4 20v8h-12q-12 -42 -12 -100v-24zM781 1428h12v32h-4l-8 -8v-24zM789 1500h4l8 8v16h-12 v-24zM793 1116q20 -14 20 -36h4l16 12q4 -40 12 -40t8 12l4 4h4l4 -4v-8l-4 -40h12q7 0 24 48q16 7 16 28v4q-16 14 -20 48l-4 4v60q12 14 12 48l-4 4h-4l-12 -4l-4 4v20q12 12 12 88v20h-4l-20 -24v-44l8 -12v-24l-8 -8h-4l-8 8v32h-4l-20 -20q0 25 -20 36l-8 -8 q13 -44 20 -44l16 4l12 -28l-12 -16v-8q16 0 28 -12l-4 -20q4 -53 12 -60v-12l-16 -20q-7 0 -12 28h-8q0 -20 -8 -20h-12l-12 8h-4zM801 972h4l8 8v16l-8 8h-4v-32zM801 1380l16 -24h8l16 16v12l-8 8l-12 -4l-4 24h-4l-12 -12v-20zM805 1064h12v4h-12v-4zM813 1448h12v16 h-12v-16zM829 768h12v32h-4l-8 -8v-24zM853 860h12l8 16l-8 8h-4l-8 -8v-16zM901 1140h8l12 12v12h-20v-24zM909 1200h4l8 8v4h-12v-12zM921 1264q16 -10 16 -32h12l8 16v24l-8 8h-16l-12 -12v-4zM933 1340h12q0 18 16 24q-7 28 -16 28l-12 -20v-32z" />
<glyph unicode="q" horiz-adv-x="1183" d="M-223 784v4l4 4h4l4 -4v-4l-4 -4h-4zM-203 1028v4l4 4h4l4 -4v-4l-4 -4h-4zM-99 968v12h12v-12h-12zM73 752q0 23 36 56l4 -4l-4 -16l4 -116l-4 -116l-4 -4h-4q-16 53 -16 116l-8 8v52zM73 892v88l8 8l4 -4v-88l-8 -8zM113 1080v100l8 12v60l8 8l4 -4v-108l12 -16 q-12 -16 -12 -60l-4 -4h-4zM145 672v12q16 39 16 84v48q8 8 8 36l24 28q19 0 60 44h16q9 -9 44 -12l4 4v4q-21 27 -24 56h-12q0 -33 -56 -40q-11 -36 -44 -36h-12l-8 8v160l8 12v12l-8 12v4l8 12v12l-8 12v48l8 12v112l-8 56q6 0 16 32q8 0 16 36q10 12 36 12l4 4v4l-12 20 q61 108 100 128q93 72 228 92l4 4h124l80 -20q81 -41 116 -68q72 -65 72 -76q97 -116 140 -352q12 -35 12 -104l4 -4h4l4 -168v-24l-4 -200l-8 -8q0 -156 -88 -364l-56 -84q-25 -31 -52 -48q-14 -16 -32 -16v-20l132 -44v-4l108 -4h36l20 -20v-16l-8 -12l24 -24 q-85 -198 -104 -216h-40q-192 81 -348 176l-100 52h-20l-32 -20h-100q-26 0 -92 -48l-24 -4h-24q-29 17 -56 56v16l16 16h12l60 -4v12q-29 35 -76 68q0 28 -8 28l4 4v8h-8v-12h-4q-22 0 -44 112q-11 9 -40 100l-4 4q12 15 12 28v56l24 44v8h-4l-20 -4l-4 12l4 104l-4 44 q-12 0 -12 8zM185 1396l12 -12h12v8l-16 16zM217 1060h4l12 12v8h-12zM221 592l12 -24h12q12 0 12 16q0 31 -20 56h-4l-12 -12v-36zM241 772h4l8 8v16h-12v-24zM257 1484l8 -12v-40q24 0 24 -12v-16l-20 -52l12 -28h8l16 16v12l-12 16q9 9 16 60l4 4v12q-24 25 -24 44h4 l-4 4v4l4 28h-12q0 -11 -24 -36v-4zM301 616h4l8 8v4h-12v-12zM305 328h12l12 12l-12 8l-12 -12v-8zM305 1192q12 0 12 -12l12 -4l-4 -28v-16h4q11 0 16 40l4 4q-11 28 -44 28v-12zM341 1428h12v12h-12v-12zM349 608l8 -8l8 8l-8 8zM349 1540h4l12 12l-12 8h-4v-20zM361 880 l12 12h-12v-12zM377 1344h12v12zM397 856l4 -172q8 0 8 -12q0 -137 56 -244q14 -7 24 -52q48 -64 116 -64q93 0 144 204l20 88l4 112l8 8v72l-36 76v4l36 24v100l-20 44q-16 0 -16 16q-6 0 -16 32q0 13 -100 24l-12 16v12l20 20h28l36 -20q12 0 12 16l-4 56l16 60v32 q-14 63 -80 108q-30 4 -40 12h-20q-58 -18 -88 -60q-88 -153 -88 -328q-8 0 -8 -12zM409 1504l4 -12h8l12 12l-12 8h-8v-8h-4zM413 1548q19 0 28 -8h4l16 16v8h-36l-12 -12v-4zM521 1552h20l12 12l-12 8h-20v-20zM529 148l28 -12h20q12 12 28 12q13 32 20 32l8 -8h4l16 16 l-4 16l4 4h4l20 -16h4q16 0 32 92q84 22 84 36l-4 4v4q-32 -4 -68 -24h-4l-20 20v4l8 12l-8 8h-12l4 -16l-8 -20l4 -32q0 -48 -36 -48q-46 0 -72 -36q-52 -6 -52 -48zM577 1584q0 -24 32 -24h4l8 8l-16 16h-28zM617 48l12 -8h8l12 12l-12 8h-8zM661 1652l8 -8l8 8v12l-8 8 l-8 -8v-12zM689 124q0 -8 48 -24h32l12 12v8l-12 12h-4l-28 -12l-28 16l-20 -4v-8zM697 1576l4 -12h12q32 16 32 24l-28 36h-8v-4l4 -28q-16 -4 -16 -16zM713 1492l12 -4l8 12v4l-12 12l-8 -12v-12zM809 1068l12 -8h8l12 12l-12 8h-8zM817 784l4 -12l56 -4l40 16v12h-64 l-8 8v24l20 48v4q-12 14 -12 40l12 28v4h-44v-56l-4 -24l12 -40v-24zM841 116l8 -8h20v12l-24 4l-4 -4v-4zM865 828h8l8 8l-8 8l-8 -8v-8zM953 820l12 -12l8 12h-20zM973 60h12v4l-8 8h-4v-12zM973 544l16 -16h8l48 24l4 4v12q-76 -14 -76 -20v-4zM997 -116v-12l4 -12 q66 57 100 128l12 36l-20 12h-8q-22 -76 -48 -76q0 -33 -24 -56q0 -10 -16 -20zM1037 844h12l8 8v4h-20v-12z" />
<glyph unicode="r" horiz-adv-x="1104" d="M71 1332q6 36 36 36l4 4v232q0 21 120 24l8 8l136 4h20l12 8h32l28 -12l24 12h8l12 -8h64q15 12 28 12q23 -12 80 -20l4 -4h12l16 12h28q35 0 140 -36h4l56 16l4 4h44q32 -9 52 -36l36 -64v-12l-16 -16h-16l-64 36h-12v-4l64 -124q12 -25 12 -80v-8q0 -55 -12 -68v-16 q0 -38 -24 -144q0 -40 -64 -160q-56 -76 -116 -112q0 -6 -28 -16q-12 -10 -12 -24q120 -82 160 -240l52 -264l16 -4h28l20 -16l-32 -48v-4q32 -4 32 -12q-8 0 -8 -16q-8 0 -16 -24h-8v-32q12 -16 12 -44l-4 -4h-4l-8 8l-12 -16v-32q16 0 36 24l12 -28l-8 -8h-20l-20 4 l-24 -4h-32q-8 0 -44 -60l-12 -12q-8 0 -8 16h-20q0 -12 -24 -40h-4q-13 8 -28 84l-16 12h-60q-32 0 -88 384q-39 208 -72 208q0 22 -56 44l-40 12h-56l-12 -12v-512l8 -12l-8 -8v-12l8 -12l-8 -8v-64l-8 -8h-64l-12 -8l-12 8h-72l-12 -8h-4l-12 8h-104l-12 12v56l-4 16 l4 28v932l20 24v16q-20 0 -20 16l-4 92q-7 0 -16 56q-20 50 -20 68zM135 644h8q32 11 40 28l-8 8l-40 -16v-20zM159 1444h8q26 0 52 24h16l12 -8h4l24 8v16l-28 -4l-44 24h-32v-12q24 0 24 -12v-4q-12 -20 -32 -20l-4 -4v-8zM167 264l8 -8l8 8v44h-12l-4 -40v-4zM171 1256 l12 -12h8q32 9 64 108q18 0 32 24v12h-16q-42 -27 -44 -52q-13 0 -36 -20q16 -24 16 -36l-4 -4h-24l-8 -16v-4zM179 880l4 -24v-8h36q23 8 40 36q0 9 80 24l12 16v12l-16 16q-7 -24 -28 -24l-76 -36q-18 0 -36 12h-12zM195 512h8q112 46 112 88l8 8l-12 8q-24 -49 -52 -60 q-64 -30 -64 -36v-8zM255 64l12 -8h12v8l-12 12zM255 140q12 0 12 -8v-28h8l12 8q12 -10 12 -32l8 -32l4 -4h4q8 8 8 32q18 12 52 12l12 16v28l-16 16h-8q0 -12 -8 -12h-12l-16 12q-4 -32 -12 -32l-44 48h-16v-24zM263 724h12l8 8l-8 8h-4l-8 -8v-8zM291 1336h24v12h-24v-12 zM339 208q14 -12 48 -12v8l-16 16h-20zM359 292l4 -20h12l12 12v16l-8 8h-12l-8 -8v-8zM387 1232l20 -4l16 12l32 -20q-32 -6 -32 -16v-272l12 -12h24l12 8h64l12 -8h20q34 11 68 84l48 60v8q-47 48 -104 48l-20 4l-4 4v4l4 4h4l76 -16q16 23 48 36l12 20q0 114 -76 184 q-68 40 -124 40l-64 -8l-12 -16v-116l-4 -4v-4l-20 4l-12 -4v-20zM395 1032l8 -8h8v16h-8zM459 1584l16 -20l8 8v16l-16 16h-8v-20zM471 1424h12v12h-12v-12zM483 1480q57 0 184 -80l4 -4v-12l-12 -28l4 -4h4l20 24l20 -4h24q15 0 84 52v12l-32 32q0 -8 -32 -16 q-22 -41 -44 -56q-17 28 -36 28q-41 36 -76 36q-42 48 -100 48l-12 -24v-4zM627 1564l72 -24q0 -24 12 -24q36 5 36 16q-23 27 -92 36l-20 8zM647 976h16v12h-12zM683 316h8q44 22 44 28l-12 8q0 -8 -24 -8q-16 -7 -16 -24v-4zM755 712h20l20 20l-8 8h-12l-20 -20v-8z M755 1208l24 -4l4 4v4l-8 8h-20v-12zM771 1016q53 -28 84 -28h8l12 12v4h-4l-24 -4q-18 4 -44 24l-20 4l-12 -4v-8zM803 376h8l8 8l-8 8l-8 -8v-8zM815 88h12v4l-8 8h-4v-12zM815 840l8 -8h4l76 76v4q0 8 -12 8q-48 -29 -48 -52q0 -12 -8 -12h-20v-16zM843 1204h8l8 8v4h-16 v-12zM887 -4l4 -4h12l8 16l-12 8h-8zM903 544l12 -8l12 12l-12 8zM907 1292l4 -4h12l-12 12l-4 -4v-4zM959 1068l8 -8h8v12h-16v-4zM979 1288h8v12l-8 -8v-4zM1091 888v8l8 8l8 -8v-8l-8 -8zM1111 552l8 8h4l8 -8l-8 -8h-4zM1171 476v4h8v-4h-8zM1235 516l4 4h4l4 -4v-8h-4z " />
<glyph unicode="s" horiz-adv-x="994" d="M-110 1556l4 4h8l8 -8l-4 -4h-8zM94 92v36l12 44l24 20v12h-8l-4 -4h-4l-4 4l24 140l4 4q0 12 8 12q56 -36 224 -60l12 -4l36 4h24q9 9 60 12q0 6 48 24q0 9 28 24q48 59 48 112l4 4v24q-8 7 -8 40q-21 60 -52 60q-69 48 -84 48h-20q-20 0 -80 -36h-28l-48 48v8l24 24h56 l8 8q-24 31 -84 68q-69 70 -80 124q-32 28 -92 152q-28 67 -28 132v56q0 158 108 292q112 111 220 132q68 15 68 20l124 4q152 0 280 -76q44 -14 44 -24v-4q-16 -15 -60 -28l-20 -16q35 -16 36 -24v-4l-64 -32q-19 -113 -32 -120q-27 23 -112 44l-4 4h-20l-12 -8h-12l-16 12 h-12q-110 0 -156 -52q-34 -22 -48 -84v-56q0 -111 252 -248q102 -71 140 -124q85 -101 100 -188l12 -52l4 -4v-156q-8 -5 -12 -64q-6 0 -28 -72q-60 -127 -168 -188q0 -12 -120 -60q-74 -24 -132 -24h-8l-12 -8h-52q-59 0 -128 -24h-12q-20 11 -32 44q-121 28 -136 48z M138 1824v4l8 8l8 -8v-4l-8 -8zM154 304l12 -20q27 0 48 28v4q0 8 -48 20zM154 1696v4l8 8l8 -8v-4l-8 -8zM198 1780l8 8l8 -8l-8 -8zM214 996l24 -36h8l12 8h16l28 -24h4q42 0 76 44l-8 8h-12l-20 -16h-8q-9 0 -16 28h-48l-12 8h-44v-20zM238 1428l16 -28h16v16 q-8 6 -16 80l-4 12h-12v-80zM298 964v4h8v-4h-8zM346 124l8 -8l12 12v4h-12zM358 200q12 -12 92 -40l16 -20h36l12 -12v-8l-8 -12l4 -4h4q21 0 36 12l-32 48v8l4 4h4q52 -36 76 -36h4l8 8q-66 54 -100 56v4q15 20 24 20v4l-8 8q-25 0 -52 -24h-24v-12q28 -4 28 -12l-4 -4h-8 q-38 0 -100 24zM374 1256h8v12l-8 -8v-4zM406 1564q0 -6 104 -24q136 -31 136 -44q1 -32 16 -32h32l8 8v4l-40 44q-136 27 -136 48l-12 -8h-28q-15 12 -56 12h-24v-8zM446 932l8 -8v12h-8v-4zM518 812l12 -8l4 4v8l-8 8zM610 824q24 0 36 -20v-4l-12 -24l12 -8q13 30 56 72 l-12 8h-8q-15 -12 -28 -12l-4 4h-4q-36 -6 -36 -16zM658 944h4l8 8v4h-12v-12zM706 468l12 -12h12q0 19 8 28l-4 4h-4l-24 -16v-4zM778 584q12 0 12 -20h12l12 12v4q-11 35 -24 40q-12 -18 -12 -36zM790 248h4l8 8v4h-12v-12zM794 1528q21 0 24 -52l-4 -16h8q16 8 16 20 l4 100q-4 16 -24 16h-4l-8 -8v-4q0 -8 24 -16v-8q0 -7 -28 -20zM862 324l12 -12l12 12h-24zM862 600l8 8v4h-8v-12zM906 592l8 -8l8 8l-8 8z" />
<glyph unicode="t" horiz-adv-x="942" d="M38 1352v272q12 44 44 44h36q18 12 36 12q0 12 12 12q36 92 60 92h24q35 -11 40 -24v-8q0 -26 -52 -56l16 -16h88l4 -4h4l-4 -16l4 -56v-24l8 -8h4v88l16 16q0 -6 48 -16l28 -16h16l104 -16h64l20 4l4 -4v-4l-4 -24v-4h12q3 32 12 32h40q12 0 12 -16l-12 -20l12 -12 l-4 -60v-60h12l4 60v56q20 22 20 40l4 4h4l4 -4v-36l-8 -12q9 -9 12 -44q-4 -44 -12 -52l-4 -76l12 -20l-24 -36h-32l-12 12v28h-12v-32q0 -8 -44 -8l-8 -12v-732l-20 -20v-4q20 -1 20 -12v-540l-8 -8l-12 32l-4 -4h-4l-4 4h-4l-12 -36h-20l-12 12v4l8 12v48q0 13 12 28 l-8 12v48l8 8l12 -12v-44q3 -64 24 -64v8l-8 12v40q12 12 12 76v4h-4l-16 -12l-8 8v44l8 8h20v20l-24 24l8 12v16h-8l-12 -8l-4 32q-7 0 -20 -32v-52l8 -12v-8q-8 -7 -8 -40l-12 -8l-4 4v4l4 44v8h-12q0 -21 -12 -36v-4l4 -24q0 -12 -32 -32h-4q-28 36 -56 36h-44l-12 -12 v-16l32 -32q0 9 44 16l4 -4v-4q-14 -29 -68 -84l12 -8h8l32 16v-4l8 -40v-8l-4 -4v-4l-20 4h-4l-12 -8h-4l-12 8h-64l-12 12v308l8 12v4l-8 12v508q0 63 -36 136v12q0 19 32 20l4 20v268l-4 20h-272zM62 1436l16 -24h16v24q-12 0 -12 12h-8zM130 1412l12 -8h4l-4 20z M134 1460l32 -32l12 12v4q-17 28 -24 28h-12l-8 -8v-4zM302 1388l12 -12h4q10 16 32 16v20q-20 0 -20 12l8 24q-16 22 -16 48q0 66 12 80v4l-12 12h-8l-12 -12v-140l8 -12v-28zM334 956h8v4l-8 8v-12zM338 1064q20 0 20 -8v-28h12l4 40v52l-8 8q-14 -2 -28 -48v-16zM346 836 h8l4 4h4l-4 28v28h-12v-60zM374 1004l8 -8h4v12h-12v-4zM374 1520l12 -8h20v8l-12 12h-8zM386 1412l12 -12h4l8 8v16h-12zM394 1160h8q32 18 32 36v64q-24 0 -24 8v20l8 12v44h-12l-8 -16v-44l-4 -24l4 -4v-4l-4 -76v-16zM398 992l12 -12l8 8l4 104v12h-12q-3 -43 -12 -52 v-60zM406 708q0 -14 68 -28l4 -4v-8l-8 -12v-12l8 -8q20 12 20 32h60l8 8v24l-8 8l-32 -12h-4l-8 8q52 23 52 48l-4 4h-4q-41 -37 -88 -60h-16q-33 24 -48 24v-12zM406 1572l12 -12q0 8 12 8l4 4v4l-8 8h-12l-8 -8v-4zM418 1428h12v36h-12v-36zM422 1508l8 -8h4v24h-12v-16z M434 980l8 -8h4v32h-4l-8 -8v-16zM434 1320l8 -16h8q8 0 8 12q-6 16 -12 16zM434 1380l24 -24h8v8l12 8q0 20 -8 20l-12 -4q-8 24 -16 24l-8 -12v-20zM442 1064h12v4h-12v-4zM446 932h12v12h-4l-8 -8v-4zM446 1088l8 -8h4v20h-4l-8 -8v-4zM446 1448h12v16h-12v-16zM454 1608 h12v20h-12v-20zM458 1124l12 -16v-44l12 -12l8 8v40l4 4v4l20 -4h36l28 -24l8 12v32l-12 12l-12 -12l-64 4h-8l-12 8h-8zM466 768h12v32h-12v-32zM470 320l12 -12h12q26 0 56 44l24 8v20q-12 0 -12 12h-12l-36 -12v-4l4 -16q0 -24 -40 -28zM482 116l28 24h8l8 -8 q-12 -15 -12 -28v-56l-12 -12l-8 8v40l8 12zM490 860h12l4 24h-16v-24zM490 1236q3 -24 12 -24h4v36q8 8 8 36l4 32l8 8v56h-8q-16 -8 -16 -20l4 -76l-16 -40v-8zM494 12v4l8 8l4 -4v-4l-8 -8zM506 1560l12 -12h4l8 8l-4 16h-8zM538 1140h12l4 20v4h-16v-24zM542 112v8l8 8 l4 -4v-8l-8 -8zM542 1208l8 -8h4v12h-12v-4zM562 908h8v4l-8 8v-12zM562 1256q12 0 12 -24h12l4 28v20h-28v-24zM562 1424h12q0 12 12 12l16 44l-4 16h-12q0 -22 -16 -32q-7 0 -8 -28v-12zM562 1516l8 -8h20l20 4v20h-24zM566 1340h12l20 28q-8 0 -8 20l-4 4h-4l-16 -16v-36 zM598 396h12v20h-12v-20zM598 1204l8 -8l8 8l-8 8h-8v-8zM602 528l12 -12l4 4v4l-4 4h-12zM610 612h12v4l-8 8h-4v-12zM634 1452q3 -48 12 -48h4v72h-12zM646 1532h12v24h-12v-24zM674 1388h12l8 20v8h-8l-12 -12v-16zM802 1456v4q3 64 12 64l16 -20v-4q0 -29 -24 -48z M806 1560v12q12 0 12 40l4 4h4l4 -4v-16q0 -52 -12 -52zM850 1416l4 104l8 8v40q16 9 16 56l4 4h4l16 -12l16 4l4 -4v-4q-24 -5 -24 -12v-4l4 -20l-16 -4v-20l4 -20q-16 -68 -16 -132l-12 -12q-9 0 -12 28zM902 1352v4l12 12l8 -8v-12l-8 -8z" />
<glyph unicode="u" horiz-adv-x="1117" d="M63 1616q0 32 40 60h4l16 -28h228l12 -12v-8l-8 -12l-4 -204h12v88q0 9 20 12l4 -4v-84l-8 -12v-52l8 -12l-12 -12q4 -63 12 -68v-4q-20 -57 -24 -116l4 -4q12 0 12 -8v-12l-8 -8l-4 4h-4l-8 -12v-112l-8 -8l-8 24h-8l-12 -12l8 -12v-68l-8 -16l-4 -112q-9 0 -12 -48 l4 -80h12q0 12 8 12l4 -4v-36l-4 -4v-4l12 -8h4q0 12 16 20h4q12 -5 24 -36v-20l-8 -12v-40l8 -8h12v196l4 24l-12 36v84q12 15 12 36v24l8 8l12 -40v-8l-8 -12v-4h12q0 12 8 12h4l8 -8v-32l-8 -8q-12 0 -12 24h-4l-8 -8v-268h12v76l16 32l4 -4v-40h12q0 71 16 88l8 8h8 q80 -48 80 -92q0 -88 -24 -88h-8q-39 25 -52 72h-12l-4 -28v-4l4 -168l8 -8v-4q0 -108 44 -108l28 -28v-24l4 -40h12q0 19 8 28v8l-8 12v4q0 11 68 24l24 20l4 -12h16l8 8l-12 16v4q32 61 48 160l-4 4l4 28v228q0 11 20 12v20q-12 0 -20 16v448q9 20 20 20v12q-20 0 -20 8 v40l8 12v8l-8 12v188l8 12v8l-8 12v52l16 16h100l24 4l20 -4l20 4l8 -12v-24h12v20q0 11 40 16l24 -4h44q8 0 8 -12l-4 -12l8 -8v-988q-24 -17 -24 -132v-104l-36 -112l-20 -40h-4l4 160v36q9 9 12 52l-4 40l4 88l-4 4v4l4 4v4l-4 64l12 20v408q-12 0 -12 8l-4 -4h-8l-8 16 q12 0 12 52v36l8 12v40q0 85 12 96v8l-8 12v24l8 12v12h-12q0 -15 -24 -44v-4l4 -28q-2 -23 -12 -36v-120l-4 -40h-8v16h-4q0 -12 -12 -12v-4l4 -20q-2 -23 -12 -36v-12l8 -12v-24l-8 -12v-12l8 -12v-8q-12 -40 -32 -40h-4l-8 12v20l8 12v80l-8 12l-4 100q-11 0 -16 40l4 4 l-8 8v44l8 12v40l-12 12l-8 -8v-24q0 -34 -24 -64q0 -9 -24 -32l-4 -64l4 -164v-64l8 -12l-12 -16v-8h4l-4 -28v-44q-8 -5 -12 -64l4 -24l-12 -20v-12l12 -36q24 -2 24 -24l-4 -24l12 -8l12 12v24l-8 12v12l12 16v52l16 28l4 -4v-8l-8 -12l12 -16v-4q-16 -16 -16 -56l4 -32 l-4 -52v-20l-20 -28v-4l8 -64v-4q12 0 12 -20l12 -12v-36h12v8h4l-4 16l4 96v60l8 12v32l-8 12q20 31 20 44h4q12 0 12 -16q0 -71 -12 -84v-60q0 -13 -12 -28v-68l-4 -44q8 -20 24 -20v-12q0 -8 -12 -8v-40q-8 -7 -12 -60h-4l4 -20v-36l-12 -12l4 -4v-28q0 -8 -24 -12v16h-4 l-8 -24v-12l8 -24q28 0 28 -12v-4q-80 -60 -104 -60l-8 68h-12v-36l-8 -12v-16l8 -12q-2 -9 -68 -32l-12 16v20l8 12v40l-16 76l-16 4v-4q8 0 12 -76q-5 -92 -36 -92q-28 0 -36 -8h-28l-12 8h-20q-72 6 -72 24v24h-4q-8 0 -8 -20l-4 -4h-8q-84 32 -84 48v28h-12 q0 -20 -8 -20q-28 9 -28 44q0 24 -32 24l-16 -4q0 12 -12 12l-4 4v16l4 28l-4 4h-4l-20 -4q-84 153 -84 316l-8 8v404q8 16 20 16v12l-4 -4h-8l-8 8v28l8 12v8l-8 12v264l20 24l-8 8v28l-4 56l4 12l-16 16v48q-7 5 -16 68zM111 1580h12v12h-4l-8 -8v-4zM135 1160h12v12h-12 v-12zM163 1280q8 -9 8 -28h12v28l-12 12zM163 1384l8 -8q12 0 16 32l-4 4h-12l-8 -16v-12zM163 1456l8 -8h12l12 28v16h-12l-20 -24v-12zM175 1300h8v12l-8 -8v-4zM195 424h12v4h-12v-4zM199 1448l16 -16h8q0 12 8 12q14 0 24 -72h12v36l-8 12v4q0 12 56 12v8l-12 12l-8 -8 h-4l-12 12l16 44l-4 12h-8q-20 -21 -52 -32q-32 -18 -32 -24v-12zM211 508l8 -8l12 8h16l12 -12l-4 -44h12v28q0 16 36 16l4 4v20h-4l-16 -12h-12l-16 16q-48 -3 -48 -12v-4zM255 1616h12l4 20h-16v-20zM295 1372h12v16h-12v-16zM307 124h16l40 36v12l-20 4q-24 0 -24 -28 l-12 -12v-12zM319 728v36l8 8l4 -4v-36l-8 -8zM355 672v84l8 12v28l-8 12v16l20 44v44l8 8l4 -4v-44l-8 -12l-4 -136l-8 -8v-40l-8 -8zM375 964l12 12l4 -4v-24l-8 -8zM375 1524v4l4 4h4l4 -4v-4l-4 -4h-4zM387 1044v4l8 8h4v-8l-8 -8zM403 1424v4l4 4h4l4 -4v-4l-4 -4h-4z M403 1484v4h8v-4h-8zM403 1604v24l8 8l4 -4v-24l-8 -8zM427 748v28l8 8l16 -16v-12l-16 -16zM435 404h12q0 12 16 12v12l-28 -4v-20zM483 72l8 -8q23 0 40 60l4 32v4h-4q-8 0 -8 -20l-4 -20l-4 -4h-4l-4 4v52l-8 24h-4l-8 -8l-4 -104v-12zM547 4h12v36l8 12v72l-12 12 l-8 -12v-120zM551 1156v4l8 8h8l12 -12l-12 -12h-4zM579 92h12v24h-12v-24zM715 172h12v24h-4l-8 -8v-16zM739 1384l20 4v8l-12 12l-8 -12v-12zM747 1420h12v4h-12v-4zM747 1520h12v12h-12v-12zM759 112h12v4h-12v-4zM759 280l28 -20h8v4l-8 12l44 16q12 0 12 -24h12v40h-24 l-12 8l-16 -12l-16 24h-4l-16 -28l-8 -8v-12zM767 1620l8 -20h12l8 20v8h-20zM787 788v12l8 8q5 -20 12 -20l8 8l4 -4v-8l-8 -8h-4q0 8 -16 8zM799 768l8 8v-8h-8zM799 1220q12 9 12 40l4 4h4l4 -4v-48l-8 -8zM807 1092v44l8 8l4 -4v-44l-8 -8zM811 896v24l8 12v24 q0 34 12 48l-8 12l8 12v36l8 8l4 -4v-80q-12 -11 -12 -100l-4 -4h-4zM819 820v4l8 8h12v-4l-12 -16zM855 832l4 4h8l12 -12v-16q-8 -7 -8 -40l-4 -4h-4zM859 728v16l8 8l4 -4v-28h-4zM867 140v4l4 4h4l4 -4v-4l-4 -4h-4zM871 956v4l16 20h12l8 -8v-84l-8 -8q-8 0 -8 16 q-12 0 -12 8v40zM891 212v12l8 8l4 -4v-12l-8 -8zM895 252v4l8 12v12l-8 12v48l8 12v24l12 40l4 136l8 8v28l4 56l-4 40q6 28 16 28q9 0 12 -48l-4 -32l4 -4v-4l-4 -16l4 -20q-4 -48 -12 -56v-48q0 -55 -12 -68v-28q0 -24 -16 -24l4 -68q0 -27 -20 -48zM895 788q0 8 20 8 l4 4v4l-4 28l4 80v12l8 8l12 -16v-36l-8 -12v-24l8 -12v-60l-12 -36h-4l-8 20l4 16l-4 12l-4 -4h-8zM907 188v4l8 8l4 -4v-4l-8 -8zM919 972v20l8 8l4 -4v-20l-8 -8zM919 1264h12v60h-4l-8 -8v-52zM919 1336h12v12h-4l-8 -8v-4zM927 1040v28l8 8l4 -4v-28l-8 -8zM955 884 v136l8 12v8l-8 12l8 12v48l8 8l4 -4v-92l-8 -12v-108l-4 -20h-8z" />
<glyph unicode="v" horiz-adv-x="1152" d="M85 1628l4 4h40q13 0 28 12l12 -12h128q18 0 64 56l4 -4q16 -49 28 -52q44 0 44 -16q16 -128 24 -136v-4l-12 -24q24 0 52 -256q8 0 8 -40q36 -176 100 -632q12 -56 12 -108l8 -8v-20h4q8 0 8 12l4 88q8 0 8 12l4 84l8 8v4q0 64 12 76q0 88 20 88h4v8l-12 16l56 368 l68 428q7 52 20 52h140q6 0 16 32l4 4h4l20 -32h8q2 16 12 16h4q1 -20 12 -20h8l20 16q13 0 32 -16l12 4q44 -4 44 -16v-24q0 -8 -20 -8l-4 -4v-4l24 -32l-20 -20h-8l-12 8l-8 -8l8 -12l12 4l4 -4v-4l-8 -12v-8l28 -36v-4q0 -7 -36 -12q-28 -97 -160 -696q-24 -85 -44 -196 l-4 -4l-4 -124v-8l-8 -12v-60q-52 -40 -52 -88q-8 -8 -24 -108l-8 -24l-4 -120q-27 -21 -76 -28l-4 -4h-20q-36 15 -36 40l-4 4h-228q-16 7 -16 28v4q0 8 12 8q18 0 36 -12q7 8 40 8l8 12v12l-12 12h-8q-15 -12 -56 -12q-8 0 -8 12l-4 -4h-8q-12 0 -40 136l-4 28l-4 4 q-10 73 -32 96q-16 141 -24 148v16l8 12q-21 13 -36 96q-28 0 -72 148q-37 47 -92 60q-28 17 -40 36l-8 20v68l12 12h20q18 -6 56 -60l8 8v8l-28 160v160l-8 12v24q0 76 -16 76h-36l-8 8v4q36 38 36 52q-24 140 -36 140v16zM141 1444h8v12h-8v-12zM153 1500h20v4l-8 8h-4 l-8 -8v-4zM197 1192h4v12h-4v-12zM257 1504h12v12h-12v-12zM305 1084h4v12h-4v-12zM317 900h4v12h-4v-12zM317 1516h16v12h-16v-12zM365 1236h12v4l-8 8h-4v-12zM377 772h16q0 19 32 32h4q7 0 20 -32v-4l-8 -8h-48l-8 -8q5 -20 12 -20l20 16h40l4 -4l16 4v4l-12 16v80l-8 8 h-12q-38 -60 -68 -60v-24zM389 1612l4 -12h8v8h4l-4 12zM425 1516h12l4 12h-16v-12zM425 1928l4 4h8l288 -248v-8q-17 0 -96 76q-171 140 -204 176zM461 308l20 -40l-8 -48v-12q13 0 32 68q56 18 56 28v8h-12l-36 -20h-4l-48 44v-28zM569 60h32l8 8l-8 8h-24l-8 -8v-8z M633 1428v4l8 8l8 -8v-4l-8 -8zM689 1352v4l4 4h4l4 -4v-4l-4 -4h-4zM693 12l12 -8l8 8v12h-8zM725 116q6 -28 16 -28l8 12l-8 8v16l12 16l-16 16q-12 -14 -12 -40zM741 504l8 -8h12q25 21 72 44v4h-8q-21 0 -60 -24h-24v-16zM753 1388v4l4 4h4l4 -4v-4l-4 -4h-4zM761 800 q0 -8 12 -8l12 4v8l-20 4l-4 -4v-4zM809 1432l12 -12h4v16l-8 8l-8 -8v-4zM881 1460l20 -20l8 8v4l-16 16h-12v-8zM917 800q0 -8 12 -8l12 4v8l-20 4l-4 -4v-4zM965 916l4 -4h4q30 23 32 52v24h-8q-8 0 -8 -32q-7 0 -24 -40zM989 1300h16l16 4l16 -4h4l8 16l-8 12v8l8 12 l-8 12v8q8 16 20 16v8l-8 12v8l8 12v4q-14 0 -16 36l-4 4v20q10 13 12 36l-4 4h-20l-4 -48l4 -32l-4 -4l4 -28v-36q0 -59 -40 -68v-12z" />
<glyph unicode="w" horiz-adv-x="1796" d="M47 1576l16 12h8q35 -19 68 -120h8v32l-16 160l44 48h56l160 -4q0 -8 12 -8q120 0 120 -44l4 -4v-12l-8 -12v-12l8 -8l4 -108v-88l8 -12l4 -88l8 -8v-12l4 -48l-16 -4v-12l4 4h8l16 -16l-4 -32l4 -68q6 0 16 -48l4 -4v-4l-8 -12v-24l8 -12l4 -100l8 -8l4 -120l8 -8 l4 -116l8 -8l4 -124l8 -8v-60h12l4 40v20q8 5 8 48l136 780q8 55 24 64l-4 24q29 224 48 224h220q8 0 8 -44l12 -12h4q0 12 8 12q28 -134 28 -168h-4q12 -21 16 -56q-4 -35 -12 -44v-124l-4 -28h4l24 20h12q9 0 16 -64l4 -4v-12l-8 -12v-4l4 -20l-20 -4l-8 12v24h-4 q-9 0 -16 -52l-4 -4v-40l12 -12h8v24q0 21 36 44q15 0 40 -236q9 0 20 -120l4 -48q12 0 12 -96l8 -8l4 -100l12 -8l8 16l4 108l8 8l4 100l8 8l4 100l8 8l4 100q8 0 8 12l4 92l8 8l4 92q8 0 8 12l4 84q8 0 8 12l4 84q8 0 8 12l4 84l24 8v20l-16 4l4 48v12l8 12v40l24 16v4 l-20 20v4q7 6 12 52l4 4h24l8 -8l-16 -4v-8q11 -10 24 -48l-8 -12v-120l16 -16l8 8l-12 20v32l12 40l-4 24v20q16 14 16 36l4 4h4l4 -4v-4l-4 -56v-4q0 -8 -12 -8v-12l4 4h4l8 -8q-4 -68 -12 -68v-56l12 -16q0 -8 -16 -8q0 -44 12 -60v-40q-8 -8 -20 -108l-12 -12v-24l8 -8 h4q0 16 8 16h4l8 -8v-12l-16 -24l-4 4h-4q-8 -9 -12 -44h-4q-20 0 -20 72q12 14 12 44l12 12l-16 12q-16 0 -20 -124l-8 -8v-48l-4 -36l12 -24v-84l-8 -12l-4 -164q-10 0 -16 -52l-4 -4l8 -8v-88l4 -20h8q3 20 12 20l4 -4v-32l-4 -20l16 -16v-24h12v36l8 12v24l-8 12v12 l8 12v72l4 84l-4 20q24 25 24 56l8 8l4 -4v-28l-8 -12l-4 -136l-8 -8v-108l24 -40l-4 -28v-88q-8 -4 -24 -128q-14 -72 -36 -100l8 -16l-4 -20v-44l-8 -8h-36l-4 4h-4q16 51 16 88l-4 20h-32l-4 -40l20 4l4 -4v-20q0 -12 -20 -12v-32l-8 -8l-8 8v20h-20q-9 0 -16 -28h-20 l-12 12l8 12v108l12 12q16 0 16 -72h12v40q12 14 12 72h-4l-28 -8l-4 4v24q12 16 12 64h-4l-16 -4v4l4 16l-4 4h-8l-8 -20v-44q0 -7 -24 -20q0 -15 -12 -32v-28l8 -12v-12l-24 -48v-60l-8 -8h-4l-8 8v24l8 12v12l-8 12v12l8 12v24l4 28h-8l-24 -68q-20 -13 -20 -56v-16 l-8 -8h-48q-12 0 -20 72l-24 140l-24 132q-56 30 -56 128l-32 188h-4q-9 0 -24 -112q-10 0 -24 -112q-12 -17 -12 -56q-96 -78 -96 -108v-44l-8 -12l-4 -156v-12l-8 -12v-40l-40 -32q-43 0 -72 36h-236q-12 0 -20 80l-4 4l8 12v4q-19 22 -32 152l-4 32q-7 0 -16 72l-28 28 l-4 104v16l-8 12l-28 196v28q-8 0 -8 12q-19 192 -44 192q-27 56 -60 216q-29 102 -84 128q-68 63 -68 136l-8 8v8zM183 1428l24 -20h8v20l24 28v12h-16q-36 -26 -40 -36v-4zM203 1496l8 -8l16 16l-12 12l-12 -16v-4zM267 1660l12 -4v12h-12v-8zM299 1044h8l8 8v8h-8l-8 -8 v-8zM299 1256l8 -8h24l16 16l-16 12h-24l-8 -8v-12zM299 1536q17 -12 56 -12l40 -20q0 -11 52 -24l12 -12l8 12v8q0 7 -52 28q-56 48 -100 48zM347 980l8 -8q19 18 64 28v8l-16 4l-20 -12l-16 12h-4q-16 -6 -16 -28v-4zM363 1608l12 -12h8v16l-12 12h-8v-16zM375 1308h8v12 h-8v-12zM375 1660l20 -4h4v24h-4zM431 1096h4l12 8l-4 12h-8zM447 1204h8v12h-8v-12zM447 1236h16l8 8l-8 8h-4l-12 -12v-4zM471 1084l20 -4h12l12 12v12l-12 12l-32 -24v-8zM483 300q4 -12 24 -12h4q53 40 68 40v12q-23 0 -52 -24h-12l-12 8h-8l-12 -12v-12zM495 96h20 l-12 12zM507 1008q11 -10 48 -12v8l-28 16h-8zM563 108h4v12h-4v-12zM707 396h12v4l-8 8h-4v-12zM711 108h16l8 8l-8 8h-4l-12 -12v-4zM735 816l8 -8q7 0 32 64l20 20v8h-4q-30 -11 -56 -72v-12zM755 1004l8 -8h28l16 16h-8l-24 -4l-20 4v-8zM815 1308h12v4h-12v-4zM819 564 h24v12h-16l-8 -8v-4zM867 1080h4l8 8v4h-4l-8 -8v-4zM887 1456q4 -17 20 -24h4q5 32 16 32l12 -8q20 14 20 28l4 4h4l4 -4v-16l-24 -44l20 -84l4 -4h4l8 12v12l-8 12v60l12 12l56 -4l12 16l-12 8h-12l-12 -8h-12l-8 8v36q24 20 24 60h-12q-27 -8 -44 -44q-80 0 -80 -60z M947 980l32 -220h8l8 20v120l-8 12l-4 92l-8 8v20l-4 40h-12v-28q-8 -5 -12 -64zM1023 1000h8v12h-8v-12zM1059 660l12 -20h8l4 20l-16 16h-8v-16zM1091 864h12v52l-8 8h-4v-60zM1091 1572h12v4l-8 8h-4v-12zM1103 1060h4q12 0 12 44v40h-12zM1103 1408h12l12 12h-24v-12z M1119 528l12 -8h32l40 -16l8 12v4q0 12 -28 12l-32 20h-8zM1119 1032l8 -8h4v12h-12v-4zM1155 1292v20l8 8l4 -4v-20l-8 -8zM1179 1008l8 -8h4v24h-12v-16zM1211 796h4l8 8v16l-8 8h-4v-32zM1287 112v28l8 8l4 -4v-28l-8 -8zM1295 172v56l12 12h4v-4q0 -68 -12 -68z M1343 424h4l8 8v4l-8 8h-4v-20zM1347 340l68 -60h4v8l-12 16q0 7 32 20v16l-60 80h-8l-12 -12v-20l20 -28q0 -10 -32 -16v-4zM1443 628v20l8 12v12l-8 12l16 28l4 -4v-20l-8 -12l8 -12v-28l-8 -16h-4zM1443 1380l8 -8h4v32h-4l-8 -8v-16zM1443 1524h16l8 8v16h-4l-20 -20v-4 zM1467 996v16l8 8h8l8 -8l-4 -20l4 -24v-4l-8 -8h-4q-4 30 -12 40zM1511 824v4l4 88q8 0 8 16l4 4h4l4 -4v-20l-8 -12v-56q0 -21 -12 -24zM1523 1172v4l4 4h4l4 -4v-4l-4 -4h-4zM1527 1016l4 4h12v-4l-8 -8zM1535 736v64l12 16v80l8 8q8 -68 16 -76v-20h4l12 8l12 -8 q-3 -52 -12 -52l-12 16v20h-4l-8 -8v-360l-16 -16l-8 8v148l8 12v52q-12 10 -12 108zM1547 1472v4q13 48 20 48l8 -24q0 -16 -24 -32zM1547 1572v4l8 8q8 0 8 20l4 4h4l4 -12q-2 -48 -12 -48zM1571 980v28l4 160q8 0 8 12q0 84 12 84l4 -4v-4l-4 -212l-8 -8v-48l-12 -12z M1587 904v4l4 4h4l4 -4v-4l-4 -4h-4zM1591 1424l8 132q8 0 8 28l16 12q-5 46 -12 52l8 8h4q10 0 12 -32q24 0 24 -8v-4q-13 0 -24 -12l4 -4q0 -18 -16 -36v-8l8 -12v-16q-12 -13 -12 -88l-8 -8v-52l-8 -8l-4 4v32q0 20 -8 20zM1595 1288v24l8 8l4 -4v-24l-8 -8zM1623 1408v4 l4 4h4l4 -4v-4l-4 -4h-4zM1643 1368q6 16 12 16l4 -4v-16l-8 -8q-8 0 -8 12zM1647 1660v4l8 8l4 -4v-4l-8 -8zM1671 1564v8h4v-8h-4zM1687 1516v4l8 32v104q0 8 12 8q36 -11 36 -16l-16 -24q0 -12 12 -12v-24l4 -28l-12 -12v-24l12 -16l-24 -16q-11 0 -16 32h-4zM1715 1444 v12l8 8l16 -20v-4l-8 -8h-4z" />
<glyph unicode="x" horiz-adv-x="1134" d="M-44 576v4l4 4h4l4 -4v-4l-4 -4h-4zM64 80v4l28 24l36 92l-60 84l8 8h84q18 2 56 128l100 272l52 136l-136 376l-24 72l4 16q-18 0 -36 60h-88l-8 8l48 68v8h-40l-8 8q36 39 36 64v24l8 12q0 10 -44 64v4l12 12h8l16 -12h32l64 16q9 23 44 60q16 -5 16 -36h8l48 60h4 q8 0 24 -64q8 0 8 -20q52 0 52 -44l20 -44v-16l-20 4h-4l-12 -8q0 -12 24 -12v-4l4 4h12q13 -9 28 -80q52 -150 104 -352h12v20q20 55 128 472l16 48l12 8h104q12 0 20 60h8q24 -24 24 -32h12q0 12 8 12l4 -4v-4l-12 -20v-8l20 -4h8l16 28h12l32 -28h36q8 0 8 -12 q0 -18 -12 -36v-8l12 -16v-16l-36 -28v-12l32 -48v-4l-8 -8h-44q-13 0 -56 -136q-72 -187 -84 -200l4 -4q-22 -97 -48 -128q-52 -133 -52 -160l268 -684l68 -116q-23 -44 -76 -44l-4 -4h-24q-23 8 -36 44h-112q-13 0 -28 12q-15 -12 -28 -12h-36q-9 0 -44 116 q-40 102 -128 384q-11 0 -16 40l-4 4v32h-12q-34 -176 -52 -176h-8l12 -16l-4 -44q10 0 52 100h8q0 -64 48 -104l24 -48v-24q-29 -76 -48 -84h-8q-28 13 -28 60v24l-12 12h-8l-32 -100q-20 -78 -76 -176q-56 -40 -56 -68q-9 -28 -16 -28l-60 84l-40 12h-80q-33 40 -64 40 l-12 -12l-8 8l12 16v12q-16 0 -16 12zM68 16l8 8h4l40 -24l-8 -8h-8zM76 860v4l8 8l4 -4v-4l-8 -8zM148 864l8 8l8 -8l-8 -8zM152 772l12 12l12 -12v-4l-8 -8h-4zM176 1484h8l4 12h-12v-12zM236 1492h44v4l-8 8h-28l-8 -8v-4zM244 1436h4v12h-4v-12zM260 1172h8v12h-8v-12z M280 4v-12h88l-12 12h-76zM280 40q76 0 76 44l12 12v12l-8 8q-11 0 -52 -28q-28 -7 -28 -36v-12zM292 1184h4l8 8v4h-12v-12zM352 1508l4 -12h12l8 8v4h-24zM400 1076h4l8 8v4h-12v-12zM412 892h4v12h-4v-12zM424 488h4l8 8v16h-12v-24zM436 680h12q7 12 52 12q16 24 32 24 l72 -4q48 3 48 16l-8 8l-12 -8h-36l-8 8q8 46 20 68q-12 12 -12 56q-15 12 -28 12h-4q-8 0 -12 -32q-20 -5 -20 -12l8 -12q0 -8 -12 -8l-20 4l-28 -28l-20 4q-24 -32 -24 -72l12 -12l-12 -16v-8zM452 916h8v12h-8v-12zM464 892h12v12h-4l-8 -8v-4zM472 1228h4v12h-4v-12z M476 740q29 48 44 48l16 8h12l8 -8l-8 -12v-12q24 0 24 -8v-12l-28 -16h-28l-12 8l-12 -8h-4zM640 1012l16 -8l8 12l-12 8h-12v-12zM664 316h12q22 0 36 24v4q-33 0 -48 -20v-8zM688 772l16 16h-8l-8 -8v-8zM692 712h12v12h-12v-12zM800 476l12 -12h8l24 24l-12 8h-20 l-12 -12v-8zM820 112q4 -36 16 -36l8 12l-8 12v12q12 15 12 28l-12 8q-16 -5 -16 -36zM856 1460h4v12h-4v-12zM896 164l8 8v4h-8v-12zM904 1428l20 -20l8 8q-8 18 -16 20h-4zM944 44l20 -4h8q9 0 20 40v20h-12q-21 -48 -36 -48v-8zM956 1628l12 -4v12h-12v-8zM968 1460h12 v12l-12 -4v-8z" />
<glyph unicode="y" horiz-adv-x="1083" d="M27 1636l12 12h52l32 36q12 0 12 -32l20 -4h60l68 88h4q8 -1 32 -84q56 0 56 -60q8 0 36 -120q36 -140 96 -252l20 -60v-12l4 -44q-3 -28 -24 -28v-4q21 0 28 -52l20 -88h12v32l28 128l92 384q12 52 24 52t12 8l-12 16v24q8 10 16 56l16 16h96q9 3 28 68l4 4h4l28 -48h12 q0 24 8 24h4q32 -33 32 -44h16q0 24 12 24l24 -24q0 9 20 12l24 -24l4 -28l-12 -12v-4l12 -24q-28 -5 -28 -12q0 -12 28 -48v-4l-28 -12l28 -40v-4l-8 -8h-52q-18 0 -44 -88l-60 -168q-28 -46 -48 -212l-4 -4v-8q0 -100 -24 -100l-60 -52h-4v12l-20 -4v-12q12 0 12 -8v-4 q-19 -69 -32 -72l-4 12h-12v-8h-4q0 -12 20 -12q-7 -43 -16 -52v-464q12 -17 12 -56q9 0 12 -44l20 -44v-8q-12 -27 -40 -48l-28 28h-136l-112 4l-40 -4l-4 4v76l8 8l12 -4q18 7 32 28v8h-24l-12 -8h-4l-12 12v432l-8 12v44q-32 26 -76 112q-36 36 -108 36q-36 18 -36 96 q15 12 28 12q16 0 60 -40h8v36q-21 32 -40 120l-4 4v4l-4 84l4 12q-12 13 -20 76l-64 172h-40q-6 8 -44 8l-4 4v4l52 84v4q-19 88 -52 88v4l12 20v8zM131 1520l24 -24v-4l-20 -20v-4h8q22 0 32 20l20 -4h24l8 8v4l-8 8l-12 -8l-64 32h-8v-8h-4zM179 1344l4 -32h8q16 0 28 64 q17 0 36 28l-4 4v4q-33 0 -72 -68zM243 1348h20l8 8v4l-12 4l-16 -4v-12zM275 1820v4l8 8l4 -4v-4l-8 -8zM315 1544h8l40 -4l4 4v4q0 16 -28 28h-12l-12 -12v-20zM335 956l4 -4h20q58 28 76 28t24 16l-8 8l-28 -12h-12l-16 12h-4l-32 -28h-20zM339 1860v4l4 4h4l4 -4v-4 l-4 -4h-4zM347 1244l12 -4q36 4 36 16l-16 12h-16q-16 -8 -16 -24zM351 1036h4l8 8v8h-12v-16zM423 1300h8v4l-8 8v-12zM471 124l12 -12l8 12v4l-8 8zM479 1088h4l8 8v4h-12v-12zM495 292l40 -12h4q28 21 60 32l16 20l-12 8q0 -13 -60 -32l-12 8h-12q0 -12 -24 -12v-12z M543 92l20 -4v4l-12 12l-8 -8v-4zM587 996l8 -8h20v8l-8 8h-12zM603 104l12 -4l4 4v4l-8 8l-8 -8v-4zM707 1220l24 -4l4 4v4l-8 8h-20v-12zM723 1028q0 -6 40 -24h8l8 8l-32 24h-24v-8zM747 1404l8 -8l4 4l28 -4q36 0 72 40h20q0 24 28 24q11 28 32 52v8q-43 0 -132 -60 q0 -22 -24 -36h-4l-16 12l-16 -16v-16zM795 1216h12v12h-12v-12zM863 1300h12v4h-12v-4zM879 1592l8 8v4h-8v-12zM1011 1504h12v4h-12v-4z" />
<glyph unicode="z" horiz-adv-x="1213" d="M30 1560v4h8l8 -8l-4 -4h-4zM102 1580v4h8v-4h-8zM138 1500v4l8 8l8 -8v-4l-8 -8zM226 108v36q8 40 28 40q22 0 44 80q21 32 108 240l4 4l-4 28v12q0 27 28 120v24q0 24 -40 84l-8 16v36q30 50 48 64h16q20 -14 20 -44v-40l12 -12l100 188l68 84q0 14 48 84l80 180v16 h-140l-20 -4l-24 4h-272l-8 8v252l16 20l-4 12l4 4h32l16 -8l84 -4l8 -8h52q14 -16 28 -16q0 16 44 16l4 4v4l128 4h60q13 -16 36 -16h24l20 4l24 -4h44l20 4l24 -4h84q15 -12 36 -12h4l28 8l8 -12v-216l-12 -44q-14 0 -80 -168q-6 -1 -60 -132l-96 -216l-140 -308 q-20 0 -20 -8l4 -36l-88 -196l4 -12h336l12 8h16l12 -8h20l12 8h4l12 -8h52l12 -12v-244l-12 -12h-152q-21 0 -36 12q-14 -12 -48 -12h-612q-12 0 -12 24q-40 34 -40 84zM278 68l8 -8l64 68v16h-8q-62 -27 -64 -36v-4l8 -12v-12zM370 328q40 0 40 -24h12q54 36 72 36h24 q13 0 28 -12h8l12 12l-32 24h-40l-4 -4h-4q-3 23 -20 36l100 140l20 32l-12 12q-27 0 -56 -84q-52 -28 -52 -64q-30 -52 -64 -52q-27 0 -32 -52zM382 1056v8h8v-8h-8zM518 1540h8l16 12q7 -5 16 -68l4 -4v-12l4 -60l20 -4h4l-16 116l4 4h28l184 -40q26 -16 48 -16 q12 -7 12 -28q10 -12 24 -12h28v16q-16 0 -16 24q0 12 -120 36q-18 0 -32 24l-32 -4q-81 0 -140 48h-32l-12 -20v-12zM578 76l20 -4l4 4v4q0 8 -12 8l-12 -4v-8zM586 436l16 -12q31 12 36 24v8l-12 12h-12q-28 -12 -28 -32zM610 168q9 -36 60 -36q0 -5 36 -16l28 -28h20 l12 8q0 -8 12 -8l4 -4v-16q0 -8 -12 -8v-8l20 -4q22 0 32 20q-36 45 -36 60l4 4h4l120 -56q29 -28 68 -28l4 4v8q-5 17 -104 52q-60 52 -100 52v8l24 24v12h-8q-20 0 -56 -24q-24 0 -24 -12l4 -12h24l8 -8l-12 -8q-28 0 -132 28v-4zM614 360l12 -8l24 24v4l-8 8zM614 916h12 l16 16v4h-16l-12 -12v-8zM686 444h8l12 12v4l-20 -4v-12zM710 544l20 -4q0 12 28 12v24h-36l-12 -24v-8zM746 768l12 -8h12v20h-12zM802 804h48l16 16v4q0 8 -12 8l-20 -12h-32v-16zM818 1072l8 8v4h-8v-12zM982 1328l4 -4h4l8 12l-12 8zM1022 204h4l8 8v4h-12v-12z M1042 1460l8 -12l-4 -16q12 0 12 -12l-4 -28h4l12 4l8 -12v-8q-12 -15 -12 -56h12q16 42 16 76l8 8l-24 28l4 80l-16 12h-8l-12 -12v-8q20 -3 20 -12v-4q-11 -20 -24 -20v-8z" />
<glyph unicode="{" horiz-adv-x="684" />
<glyph unicode="|" horiz-adv-x="532" />
<glyph unicode="}" horiz-adv-x="684" />
<glyph unicode="~" horiz-adv-x="1196" />
<glyph unicode="&#xa1;" horiz-adv-x="682" />
<glyph unicode="&#xa2;" />
<glyph unicode="&#xa3;" />
<glyph unicode="&#xa4;" />
<glyph unicode="&#xa5;" />
<glyph unicode="&#xa6;" horiz-adv-x="532" />
<glyph unicode="&#xa7;" />
<glyph unicode="&#xa8;" horiz-adv-x="682" />
<glyph unicode="&#xa9;" horiz-adv-x="1509" />
<glyph unicode="&#xaa;" horiz-adv-x="758" />
<glyph unicode="&#xab;" />
<glyph unicode="&#xac;" horiz-adv-x="1196" />
<glyph unicode="&#xad;" horiz-adv-x="682" />
<glyph unicode="&#xae;" horiz-adv-x="1509" />
<glyph unicode="&#xaf;" horiz-adv-x="1131" />
<glyph unicode="&#xb0;" horiz-adv-x="819" />
<glyph unicode="&#xb1;" horiz-adv-x="1124" />
<glyph unicode="&#xb2;" horiz-adv-x="682" />
<glyph unicode="&#xb3;" horiz-adv-x="682" />
<glyph unicode="&#xb4;" horiz-adv-x="682" />
<glyph unicode="&#xb5;" horiz-adv-x="1180" />
<glyph unicode="&#xb6;" horiz-adv-x="1100" />
<glyph unicode="&#xb7;" horiz-adv-x="569" />
<glyph unicode="&#xb8;" horiz-adv-x="682" />
<glyph unicode="&#xb9;" horiz-adv-x="682" />
<glyph unicode="&#xba;" horiz-adv-x="748" />
<glyph unicode="&#xbb;" />
<glyph unicode="&#xbc;" horiz-adv-x="1708" />
<glyph unicode="&#xbd;" horiz-adv-x="1708" />
<glyph unicode="&#xbe;" horiz-adv-x="1708" />
<glyph unicode="&#xbf;" horiz-adv-x="1251" />
<glyph unicode="&#xc0;" horiz-adv-x="1366" />
<glyph unicode="&#xc1;" horiz-adv-x="1366" />
<glyph unicode="&#xc2;" horiz-adv-x="1366" />
<glyph unicode="&#xc3;" horiz-adv-x="1366" />
<glyph unicode="&#xc4;" horiz-adv-x="1366" />
<glyph unicode="&#xc5;" horiz-adv-x="1366" />
<glyph unicode="&#xc6;" horiz-adv-x="2048" />
<glyph unicode="&#xc7;" horiz-adv-x="1479" />
<glyph unicode="&#xc8;" horiz-adv-x="1366" />
<glyph unicode="&#xc9;" horiz-adv-x="1366" />
<glyph unicode="&#xca;" horiz-adv-x="1366" />
<glyph unicode="&#xcb;" horiz-adv-x="1366" />
<glyph unicode="&#xcc;" horiz-adv-x="569" />
<glyph unicode="&#xcd;" horiz-adv-x="569" />
<glyph unicode="&#xce;" horiz-adv-x="569" />
<glyph unicode="&#xcf;" horiz-adv-x="569" />
<glyph unicode="&#xd0;" horiz-adv-x="1479" />
<glyph unicode="&#xd1;" horiz-adv-x="1479" />
<glyph unicode="&#xd2;" horiz-adv-x="1593" />
<glyph unicode="&#xd3;" horiz-adv-x="1593" />
<glyph unicode="&#xd4;" horiz-adv-x="1593" />
<glyph unicode="&#xd5;" horiz-adv-x="1593" />
<glyph unicode="&#xd6;" horiz-adv-x="1593" />
<glyph unicode="&#xd7;" horiz-adv-x="1196" />
<glyph unicode="&#xd8;" horiz-adv-x="1593" />
<glyph unicode="&#xd9;" horiz-adv-x="1479" />
<glyph unicode="&#xda;" horiz-adv-x="1479" />
<glyph unicode="&#xdb;" horiz-adv-x="1479" />
<glyph unicode="&#xdc;" horiz-adv-x="1479" />
<glyph unicode="&#xdd;" horiz-adv-x="1366" />
<glyph unicode="&#xde;" horiz-adv-x="1366" />
<glyph unicode="&#xdf;" horiz-adv-x="1251" />
<glyph unicode="&#xe0;" />
<glyph unicode="&#xe1;" />
<glyph unicode="&#xe2;" />
<glyph unicode="&#xe3;" />
<glyph unicode="&#xe4;" />
<glyph unicode="&#xe5;" />
<glyph unicode="&#xe6;" horiz-adv-x="1821" />
<glyph unicode="&#xe7;" horiz-adv-x="1024" />
<glyph unicode="&#xe8;" />
<glyph unicode="&#xe9;" />
<glyph unicode="&#xea;" />
<glyph unicode="&#xeb;" />
<glyph unicode="&#xec;" horiz-adv-x="569" />
<glyph unicode="&#xed;" horiz-adv-x="569" />
<glyph unicode="&#xee;" horiz-adv-x="569" />
<glyph unicode="&#xef;" horiz-adv-x="569" />
<glyph unicode="&#xf0;" />
<glyph unicode="&#xf1;" />
<glyph unicode="&#xf2;" />
<glyph unicode="&#xf3;" />
<glyph unicode="&#xf4;" />
<glyph unicode="&#xf5;" />
<glyph unicode="&#xf6;" />
<glyph unicode="&#xf7;" horiz-adv-x="1124" />
<glyph unicode="&#xf8;" horiz-adv-x="1251" />
<glyph unicode="&#xf9;" />
<glyph unicode="&#xfa;" />
<glyph unicode="&#xfb;" />
<glyph unicode="&#xfc;" />
<glyph unicode="&#xfd;" horiz-adv-x="1024" />
<glyph unicode="&#xfe;" />
<glyph unicode="&#xff;" horiz-adv-x="1024" />
<glyph unicode="&#x152;" horiz-adv-x="2048" />
<glyph unicode="&#x153;" horiz-adv-x="1933" />
<glyph unicode="&#x178;" horiz-adv-x="1366" />
<glyph unicode="&#x2c6;" horiz-adv-x="682" />
<glyph unicode="&#x2dc;" horiz-adv-x="682" />
<glyph unicode="&#x2000;" horiz-adv-x="966" />
<glyph unicode="&#x2001;" horiz-adv-x="1932" />
<glyph unicode="&#x2002;" horiz-adv-x="966" />
<glyph unicode="&#x2003;" horiz-adv-x="1932" />
<glyph unicode="&#x2004;" horiz-adv-x="644" />
<glyph unicode="&#x2005;" horiz-adv-x="483" />
<glyph unicode="&#x2006;" horiz-adv-x="322" />
<glyph unicode="&#x2007;" horiz-adv-x="322" />
<glyph unicode="&#x2008;" horiz-adv-x="241" />
<glyph unicode="&#x2009;" horiz-adv-x="386" />
<glyph unicode="&#x200a;" horiz-adv-x="107" />
<glyph unicode="&#x2010;" horiz-adv-x="682" />
<glyph unicode="&#x2011;" horiz-adv-x="682" />
<glyph unicode="&#x2012;" horiz-adv-x="682" />
<glyph unicode="&#x2013;" />
<glyph unicode="&#x2014;" horiz-adv-x="2048" />
<glyph unicode="&#x2018;" horiz-adv-x="455" />
<glyph unicode="&#x2019;" horiz-adv-x="455" />
<glyph unicode="&#x201a;" horiz-adv-x="455" />
<glyph unicode="&#x201c;" horiz-adv-x="682" />
<glyph unicode="&#x201d;" horiz-adv-x="682" />
<glyph unicode="&#x201e;" horiz-adv-x="682" />
<glyph unicode="&#x2022;" horiz-adv-x="717" />
<glyph unicode="&#x2026;" horiz-adv-x="2048" />
<glyph unicode="&#x202f;" horiz-adv-x="386" />
<glyph unicode="&#x2039;" horiz-adv-x="682" />
<glyph unicode="&#x203a;" horiz-adv-x="682" />
<glyph unicode="&#x205f;" horiz-adv-x="483" />
<glyph unicode="&#x20ac;" />
<glyph unicode="&#x2122;" horiz-adv-x="2048" />
<glyph unicode="&#x25fc;" horiz-adv-x="1710" d="M0 0v1710h1710v-1710h-1710z" />
</font>
</defs>
</svg>
